<svg width="104" height="53" viewBox="0 0 104 53" fill="none" xmlns="http://www.w3.org/2000/svg">
<path d="M18.4365 3.28608C18.0607 3.28608 17.7199 3.13228 17.4735 2.88585C17.2253 2.63941 17.0732 2.2986 17.0732 1.92283C17.0732 1.54706 17.2253 1.20624 17.4735 0.959809C17.7199 0.713375 18.0607 0.55957 18.4365 0.55957C27.7416 0.55957 37.0502 0.559575 47.0229 0.575305C55.8141 0.589287 63.499 0.617251 68.9625 0.673179C71.6489 0.699396 73.7357 0.734347 75.4135 0.821735C77.1176 0.91087 78.4284 1.05419 79.5452 1.30237C80.7355 1.56628 81.6828 1.93157 82.6003 2.44716C83.5109 2.96275 84.3813 3.61816 85.4317 4.46757C86.3161 5.18066 87.377 6.079 88.5322 7.08222C89.74 8.13088 91.063 9.31062 92.4035 10.5236C93.8157 11.8047 95.1912 13.0753 96.4182 14.2323C97.6695 15.4121 98.7899 16.4922 99.6672 17.3696C100.58 18.2819 101.287 19.0317 101.847 19.6941C102.413 20.3722 102.822 20.956 103.123 21.5257C103.446 22.1427 103.64 22.7177 103.759 23.3364C103.874 23.9376 103.92 24.5773 103.949 25.3428C103.975 26 103.991 26.7743 103.996 27.6132C104.003 28.4818 104 29.4134 103.986 30.3449C103.972 31.308 103.949 32.2605 103.918 33.1309C103.888 33.9995 103.85 34.7912 103.806 35.4397C103.76 36.1388 103.705 36.726 103.636 37.2346C103.568 37.745 103.486 38.1697 103.39 38.5437C103.283 38.9527 103.159 39.2952 103.016 39.6098C102.873 39.9244 102.712 40.2058 102.53 40.4977C102.355 40.7721 102.16 41.0605 101.939 41.3471C101.717 41.639 101.471 41.9309 101.198 42.2105C100.913 42.5041 100.601 42.7855 100.261 43.0372C99.9207 43.2924 99.5466 43.5231 99.1412 43.7136C98.7497 43.8988 98.3319 44.0439 97.9002 44.1558C97.4755 44.2676 97.0368 44.348 96.5877 44.4057C96.163 44.4616 95.74 44.5001 95.3188 44.5263C94.1006 44.4581 93.7301 43.9233 93.7074 43.413C93.7283 42.401 94.1268 42.2157 94.8085 41.9343C96.2364 41.7124 95.8851 41.7596 96.2364 41.7124C96.5562 41.6722 96.8708 41.6145 97.1749 41.5359C97.4668 41.4624 97.7377 41.3698 97.9807 41.2545C98.2201 41.1426 98.4455 41.0028 98.6535 40.8455C98.865 40.6864 99.0643 40.5064 99.2513 40.3159C99.4453 40.1149 99.6253 39.9017 99.7878 39.6885C99.9521 39.4717 100.101 39.255 100.23 39.0488C100.347 38.8635 100.45 38.6835 100.539 38.493C100.625 38.3042 100.698 38.1015 100.761 37.8638C100.833 37.5859 100.894 37.2538 100.948 36.8361C101.003 36.4167 101.05 35.9011 101.093 35.2596C101.137 34.5798 101.176 33.8055 101.205 32.9893C101.237 32.1259 101.259 31.2118 101.272 30.3135C101.284 29.4064 101.287 28.4975 101.282 27.6516C101.277 26.8529 101.261 26.1014 101.235 25.4495C101.212 24.8552 101.181 24.3676 101.104 23.9394C101.03 23.5304 100.913 23.1651 100.716 22.7929C100.497 22.3769 100.172 21.9207 99.7004 21.3684C99.2215 20.8074 98.5801 20.1363 97.7412 19.2956C96.8131 18.3693 95.6963 17.2892 94.4939 16.1531C93.2372 14.9664 91.8967 13.7272 90.5841 12.5352C89.3275 11.3974 88.0446 10.2562 86.8177 9.19177C85.7096 8.2305 84.654 7.33914 83.7206 6.58411C82.8136 5.85005 82.0708 5.28727 81.3262 4.86082C80.5957 4.44135 79.8616 4.15122 78.9598 3.95198C77.981 3.73525 76.7803 3.60767 75.1793 3.52727C73.5522 3.44513 71.5353 3.41367 68.9416 3.38745C63.8451 3.33502 56.2598 3.3088 47.4284 3.29657C39.8571 3.28608 29.1468 3.28608 18.4365 3.28608Z" fill="#25262B"/>
<path d="M69.0953 42.5181C69.4519 42.5251 69.77 42.6894 69.9937 42.9498C70.2051 43.1962 70.3345 43.5283 70.331 43.8901V43.9006C70.324 44.2641 70.1859 44.5944 69.9674 44.8321C69.7367 45.0838 69.4187 45.2359 69.0656 45.2324L46.8148 44.8042C46.4565 44.7989 46.1385 44.6346 45.9147 44.3742C45.7033 44.1278 45.5757 43.794 45.5792 43.4339V43.4234C45.5844 43.0582 45.7242 42.7296 45.9427 42.4901C46.1717 42.2402 46.4915 42.0864 46.8446 42.0899L69.0953 42.5181Z" fill="#25262B"/>
<path d="M67.5234 43.7987C67.5234 44.1728 67.3714 44.5118 67.1267 44.7583C66.8785 45.0047 66.5394 45.1585 66.1654 45.1585C65.7914 45.1585 65.4523 45.0047 65.2059 44.76C64.9595 44.5118 64.8057 44.1728 64.8057 43.7987L64.8109 2.0045C64.8092 1.63048 64.963 1.29141 65.2077 1.04672C65.4558 0.798541 65.7949 0.646484 66.1689 0.646484C66.5429 0.646484 66.882 0.798539 67.1284 1.04497C67.3749 1.29141 67.5269 1.63048 67.5269 2.0045L67.5234 43.7987Z" fill="#25262B"/>
<path d="M21.7252 43.1893C22.2233 43.233 22.5904 43.6734 22.5449 44.1715C22.5012 44.6697 22.0608 45.0349 21.5627 44.9912C21.1275 44.951 20.6993 44.9126 20.3794 44.8794C19.967 44.8374 19.5685 44.7902 19.1979 44.7378C18.7942 44.6801 18.3975 44.612 18.013 44.5141C17.6075 44.4127 17.209 44.2747 16.8157 44.0789C16.4138 43.8762 16.031 43.6175 15.6902 43.2819C15.3476 42.9446 15.0435 42.5304 14.7988 42.0183C14.5716 41.5429 14.4003 40.9941 14.2588 40.4104C14.1207 39.8476 14.0123 39.2691 13.904 38.6923C13.8131 38.1994 14.1364 37.7258 14.6275 37.6349C15.1204 37.5423 15.5941 37.8674 15.6849 38.3585C15.7916 38.9213 15.8964 39.4858 16.0188 39.9839C16.1341 40.461 16.2669 40.8945 16.4312 41.2388C16.578 41.5464 16.7581 41.7928 16.9591 41.9903C17.1618 42.1878 17.3873 42.3416 17.625 42.4605C17.8749 42.5846 18.1545 42.679 18.4534 42.7559C18.7732 42.8363 19.1088 42.8939 19.4531 42.9429C19.8306 42.997 20.2012 43.0407 20.5647 43.0774C21.0191 43.1246 21.3757 43.1578 21.7252 43.1893Z" fill="#25262B"/>
<path d="M21.7685 42.7383C22.1408 42.7715 22.4658 42.955 22.6878 43.2207C22.9098 43.4881 23.0304 43.8394 22.9972 44.2117C22.964 44.5857 22.7804 44.9108 22.5148 45.1327C22.2474 45.3547 21.8961 45.4753 21.5238 45.4421L20.3353 45.3302L19.7219 45.2638L19.1364 45.1869C18.9371 45.159 18.7326 45.1258 18.5176 45.0873C18.2974 45.0454 18.0894 45.0017 17.9024 44.9545C17.6892 44.9003 17.4742 44.8356 17.2575 44.757C17.0425 44.6801 16.8293 44.5892 16.6161 44.4826C16.3994 44.376 16.1844 44.2501 15.9729 44.1016C15.7614 43.9548 15.5604 43.7887 15.3734 43.6052C15.1829 43.4182 15.0046 43.2102 14.8404 42.9795C14.6743 42.7453 14.5223 42.4901 14.3912 42.214C14.2671 41.9501 14.1587 41.6774 14.0678 41.396C13.977 41.1251 13.8948 40.8298 13.8197 40.5169C13.7515 40.2373 13.6886 39.9436 13.6292 39.6448C13.568 39.3424 13.5138 39.0575 13.4614 38.7744C13.3915 38.4056 13.4788 38.0438 13.6746 37.7572C13.8703 37.4723 14.1762 37.2591 14.5467 37.1892C14.9155 37.121 15.2773 37.2066 15.5639 37.4024C15.8488 37.5981 16.062 37.9058 16.132 38.2745L16.291 39.1065C16.3487 39.3914 16.4064 39.6553 16.4605 39.8772C16.5147 40.1044 16.5741 40.3212 16.6388 40.5222C16.7017 40.7162 16.7699 40.8927 16.8415 41.043C16.9062 41.1758 16.9744 41.2929 17.046 41.3925C17.1159 41.4939 17.1946 41.5848 17.2785 41.6669C17.3571 41.7456 17.4463 41.8172 17.5389 41.8819C17.6263 41.9448 17.7242 42.0008 17.829 42.0532C17.9304 42.1056 18.0458 42.1546 18.1733 42.1983C18.2922 42.2402 18.4233 42.2787 18.5648 42.3154C18.7256 42.3556 18.8794 42.3888 19.0262 42.415C19.1713 42.4429 19.3391 42.4692 19.5191 42.4936L20.0679 42.5653L20.6115 42.6265L21.7685 42.7383ZM21.9922 43.7992C21.9188 43.7101 21.8104 43.6506 21.6881 43.6384L20.5188 43.5283L19.963 43.4671L19.3915 43.392C19.2255 43.3675 19.0525 43.3413 18.8637 43.3063C18.6784 43.2714 18.5037 43.2347 18.3446 43.1945C18.1873 43.156 18.03 43.1088 17.8727 43.0547C17.7224 43.0005 17.5721 42.9393 17.4253 42.8659C17.2925 42.7995 17.1579 42.7208 17.0216 42.6265C16.8922 42.5373 16.7646 42.4325 16.644 42.3136C16.5269 42.1983 16.4151 42.0672 16.3085 41.9169C16.2019 41.7701 16.1057 41.6075 16.0236 41.4345C15.9327 41.2405 15.8506 41.0273 15.7772 40.8C15.7055 40.5798 15.6408 40.3404 15.5797 40.0905C15.5132 39.8161 15.4538 39.5469 15.4014 39.2847L15.2406 38.4423C15.2196 38.3182 15.148 38.2169 15.0518 38.1522C14.9557 38.0858 14.8351 38.0578 14.7128 38.0805C14.5904 38.1015 14.4891 38.1732 14.4226 38.2693C14.358 38.3654 14.3283 38.486 14.351 38.6084L14.5153 39.4683C14.5712 39.7427 14.6306 40.0205 14.7005 40.3037C14.7652 40.5746 14.8421 40.8455 14.9295 41.1129C15.0151 41.3716 15.1078 41.6128 15.2091 41.8242C15.3227 42.0584 15.4468 42.2682 15.5779 42.4534C15.7125 42.6404 15.8558 42.81 16.0079 42.9585C16.1617 43.1088 16.3225 43.2434 16.4902 43.3588C16.6545 43.4741 16.8328 43.579 17.0198 43.6716C17.1981 43.7625 17.3799 43.8394 17.5634 43.9058C17.7451 43.9705 17.9321 44.0264 18.1244 44.0754C18.3236 44.1243 18.5072 44.1645 18.6802 44.196C18.8602 44.2292 19.056 44.2606 19.2622 44.2886L19.8285 44.362L20.4262 44.4284L21.6042 44.5403C21.73 44.5525 21.8471 44.5105 21.9363 44.4371C22.0237 44.362 22.0848 44.2554 22.0953 44.133C22.1076 44.0054 22.0674 43.8883 21.9922 43.7992Z" fill="#25262B"/>
<path d="M33.7932 30.7402C35.2438 30.7402 36.6281 31.0321 37.8934 31.5599C39.206 32.107 40.3875 32.9092 41.3785 33.9037C42.366 34.8982 43.1629 36.0849 43.7065 37.4045C44.2308 38.6751 44.5192 40.0663 44.5192 41.5222C44.5192 42.9763 44.2308 44.3675 43.7065 45.6399C43.1629 46.9577 42.366 48.1462 41.3785 49.1389C40.3875 50.1352 39.206 50.9356 37.8934 51.4844C36.6281 52.0105 35.2438 52.3024 33.7932 52.3024C32.3425 52.3024 30.9566 52.0105 29.6912 51.4844C28.3804 50.9374 27.1971 50.1352 26.2079 49.1389C25.2204 48.1462 24.4234 46.9577 23.8799 45.6399C23.3556 44.3675 23.0654 42.9763 23.0654 41.5222C23.0654 40.0663 23.3556 38.6751 23.8799 37.4045C24.4234 36.0849 25.2204 34.8982 26.2079 33.9037C27.1971 32.9092 28.3804 32.107 29.6912 31.5599C30.9566 31.0321 32.3425 30.7402 33.7932 30.7402ZM39.4507 35.8192C38.7149 35.0799 37.834 34.4822 36.8535 34.0732C35.9132 33.6817 34.8785 33.4667 33.7932 33.4667C32.7078 33.4667 31.6732 33.6817 30.7311 34.075C29.7524 34.4822 28.8715 35.0799 28.1339 35.821C27.3964 36.562 26.8021 37.4499 26.3967 38.4356C26.0069 39.3829 25.7902 40.4263 25.7902 41.5222C25.7902 42.618 26.0069 43.6614 26.3967 44.607C26.8021 45.5927 27.3964 46.4806 28.1339 47.2234C28.8715 47.9644 29.7524 48.5622 30.7311 48.9694C31.6732 49.3609 32.7078 49.5776 33.7932 49.5776C34.8785 49.5776 35.9132 49.3609 36.8535 48.9694C37.834 48.5622 38.7149 47.9644 39.4507 47.2234C40.19 46.4806 40.7842 45.5927 41.1897 44.607C41.5795 43.6597 41.7944 42.618 41.7944 41.5222C41.7944 40.4263 41.5795 39.3829 41.1897 38.4356C40.7842 37.4499 40.19 36.562 39.4507 35.8192Z" fill="#25262B"/>
<path d="M82.143 30.8789C83.5936 30.8789 84.9796 31.1708 86.245 31.6986C87.5576 32.2457 88.7391 33.0479 89.7283 34.0424C90.7158 35.0368 91.5128 36.2236 92.0563 37.5431C92.5806 38.8137 92.8708 40.205 92.8708 41.6609C92.8708 43.115 92.5806 44.5062 92.0563 45.7768C91.5128 47.0964 90.7158 48.2831 89.7283 49.2776C88.7391 50.2721 87.5576 51.0743 86.245 51.6231C84.9796 52.1492 83.5936 52.4411 82.143 52.4411C80.6924 52.4411 79.3081 52.1492 78.0428 51.6214C76.7302 51.0743 75.5487 50.2721 74.5595 49.2776C73.5702 48.2831 72.7732 47.0964 72.2297 45.7786C71.7054 44.5062 71.417 43.115 71.417 41.6609C71.417 40.205 71.7054 38.8137 72.2297 37.5431C72.7732 36.2236 73.5702 35.0368 74.5595 34.0424C75.5487 33.0479 76.7302 32.2457 78.0428 31.6986C79.3081 31.1708 80.6924 30.8789 82.143 30.8789ZM87.8023 35.9579C87.0665 35.2169 86.1838 34.6209 85.2051 34.2119C84.263 33.8204 83.2301 33.6054 82.143 33.6054C81.0576 33.6054 80.023 33.8204 79.0827 34.2119C78.1022 34.6209 77.2213 35.2186 76.4855 35.9579C75.7479 36.7007 75.152 37.5886 74.7465 38.5743C74.3567 39.5216 74.1417 40.565 74.1417 41.6609C74.1417 42.7567 74.3567 43.7984 74.7465 44.7457C75.152 45.7314 75.7462 46.6193 76.4855 47.3621C77.2213 48.1031 78.1022 48.7008 79.0827 49.1081C80.023 49.4996 81.0576 49.7163 82.143 49.7163C83.2301 49.7163 84.263 49.4996 85.2051 49.1081C86.1838 48.7008 87.0665 48.1031 87.8023 47.3621C88.5398 46.6193 89.1358 45.7314 89.5413 44.7457C89.931 43.7984 90.146 42.7567 90.146 41.6609C90.146 40.565 89.931 39.5216 89.5413 38.5743C89.1358 37.5886 88.5398 36.7007 87.8023 35.9579Z" fill="#25262B"/>
<path d="M96.7002 25.7881C96.7002 25.4123 96.8523 25.0715 97.0987 24.825C97.3451 24.5786 97.6859 24.4248 98.0617 24.4248C98.4375 24.4248 98.78 24.5786 99.0265 24.825C99.2729 25.0715 99.425 25.4123 99.425 25.7881V30.2833C99.425 30.6591 99.2729 30.9999 99.0265 31.2463C98.78 31.4928 98.4375 31.6466 98.0617 31.6466C97.6859 31.6466 97.3451 31.4928 97.0987 31.2463C96.8523 30.9999 96.7002 30.6591 96.7002 30.2833V25.7881Z" fill="#25262B"/>
<path d="M73.2031 8.50234V20.2753L79.3395 20.3434C81.3861 20.3661 83.2195 20.3819 84.6492 20.3871C85.3902 20.3906 86.0247 20.3906 86.57 20.3836C87.0943 20.3766 87.5435 20.3592 87.9367 20.3294C88.2321 20.3067 88.4593 20.2788 88.6306 20.2421C88.7721 20.2123 88.8648 20.1826 88.9172 20.1494C88.9259 20.1424 88.9382 20.1285 88.9504 20.111C88.9714 20.0795 88.9906 20.0323 89.0081 19.9781C89.043 19.8733 89.0658 19.7544 89.0815 19.6321C89.099 19.4975 89.1112 19.3507 89.1182 19.2056C89.1234 19.1008 89.1269 19.0011 89.1164 18.9138C89.1042 18.8334 89.0815 18.746 89.0326 18.6463C88.9452 18.4663 88.8001 18.2444 88.5711 17.9595C88.3317 17.6589 88.0031 17.2936 87.5627 16.8479C87.1607 16.4407 86.6836 15.9828 86.161 15.4986C85.6087 14.9883 84.948 14.3958 84.2385 13.7701C83.4415 13.0692 82.6427 12.3824 81.9104 11.7637C81.0785 11.0593 80.3217 10.4336 79.7292 9.95648C79.2346 9.55799 78.8501 9.25912 78.546 9.04065C78.2576 8.83267 78.0374 8.69459 77.8504 8.6072C77.7333 8.54953 77.6214 8.51807 77.4973 8.50059C77.347 8.47962 77.181 8.47437 76.9782 8.47088C76.4941 8.46389 75.8579 8.46564 75.1326 8.47263L73.2031 8.50234ZM70.4766 21.6158V5.837L71.8695 5.80903C73.8585 5.77408 75.8422 5.73912 77.0114 5.7566C77.3872 5.76185 77.7001 5.77408 78.0094 5.82477C78.3345 5.87895 78.6491 5.97507 79.0126 6.1481C79.3202 6.29316 79.6453 6.49066 80.0386 6.76856C80.4161 7.03597 80.8653 7.38377 81.4315 7.83819C82.0747 8.35727 82.8612 9.00569 83.6914 9.70655C84.4639 10.3585 85.2714 11.0523 86.0369 11.727C86.7098 12.3195 87.3809 12.9224 88.0066 13.5027C88.5589 14.0165 89.0675 14.5042 89.4992 14.9411C90.0428 15.4916 90.4535 15.9565 90.7663 16.3568C91.0879 16.7745 91.3134 17.1328 91.4707 17.4526C91.6682 17.8564 91.7661 18.1937 91.8115 18.4995C91.8552 18.8054 91.8465 19.0711 91.8325 19.3437C91.8202 19.5779 91.801 19.8191 91.7678 20.0585C91.7311 20.312 91.6769 20.5689 91.5948 20.8206C91.4934 21.1299 91.3518 21.4288 91.1543 21.7032C90.9551 21.9811 90.6999 22.2293 90.3748 22.4372C90.0935 22.6155 89.7789 22.7501 89.4048 22.8497C89.0465 22.9423 88.6323 23.0053 88.1395 23.0437C87.7515 23.0734 87.2656 23.0892 86.6731 23.0979C86.0998 23.1066 85.4269 23.1049 84.6387 23.1014C81.6273 23.0892 76.9066 23.0332 72.1492 22.9773L70.4766 22.9563V21.6158Z" fill="#25262B"/>
<path d="M12.2811 13.7447C11.783 13.7464 11.3758 13.3427 11.374 12.8428C11.3723 12.3447 11.7743 11.9375 12.2741 11.9357L31.538 11.8291C32.0378 11.8274 32.4451 12.2311 32.4468 12.7292C32.4486 13.2291 32.0448 13.6363 31.5467 13.638L12.2811 13.7447Z" fill="#EB7D3F"/>
<path d="M12.2814 14.1979C11.9074 14.1996 11.5666 14.0475 11.3202 13.8029C11.0737 13.5599 10.9217 13.2209 10.9199 12.8451C10.9182 12.4693 11.0685 12.1303 11.3132 11.8838C11.5561 11.6391 11.8969 11.4853 12.271 11.4836L31.5348 11.377C31.9106 11.3752 32.2514 11.5273 32.4978 11.7702C32.7425 12.0149 32.8963 12.354 32.898 12.728C32.8998 13.1038 32.7477 13.4446 32.5031 13.691C32.2601 13.9357 31.921 14.0895 31.547 14.0912L12.2814 14.1979ZM11.9581 13.1614C12.0403 13.2418 12.1539 13.2925 12.2779 13.2925L31.5418 13.1859C31.6676 13.1859 31.7812 13.1335 31.8616 13.0513C31.9438 12.9692 31.9927 12.8556 31.9927 12.7315C31.9927 12.6074 31.9403 12.4938 31.8581 12.4134C31.776 12.3312 31.6624 12.2806 31.54 12.2823L12.2745 12.3889C12.1504 12.3889 12.0368 12.4396 11.9564 12.5235C11.8742 12.6056 11.8235 12.7175 11.8253 12.8416C11.8253 12.9674 11.876 13.0793 11.9581 13.1614Z" fill="#EB7D3F"/>
<path d="M1.36151 22.8712C0.985738 22.8712 0.644923 22.7192 0.398488 22.4728C0.152054 22.2263 0 21.8838 0 21.508C0 21.1322 0.152054 20.7914 0.398488 20.545C0.644923 20.2985 0.985738 20.1465 1.36151 20.1465H19.0209C19.3967 20.1465 19.7375 20.2985 19.9839 20.545C20.2304 20.7914 20.3842 21.1322 20.3842 21.508C20.3842 21.8838 20.2304 22.2263 19.9839 22.4728C19.7375 22.7192 19.3967 22.8712 19.0209 22.8712H1.36151Z" fill="#EB7D3F"/>
<path d="M14.3122 31.8372C13.8105 31.8372 13.4033 31.43 13.4033 30.9284C13.4033 30.4268 13.8105 30.0195 14.3122 30.0195H18.914C19.4156 30.0195 19.8229 30.4268 19.8229 30.9284C19.8229 31.43 19.4156 31.8372 18.914 31.8372H14.3122Z" fill="#EB7D3F"/>
<path d="M14.3115 32.291C13.9357 32.291 13.5949 32.1372 13.3485 31.8907C13.102 31.6443 12.9482 31.3035 12.9482 30.9277C12.9482 30.5519 13.102 30.2111 13.3485 29.9647C13.5949 29.7183 13.9357 29.5645 14.3115 29.5645H18.9134C19.2891 29.5645 19.6299 29.7183 19.8764 29.9647C20.1228 30.2111 20.2766 30.5519 20.2766 30.9277C20.2766 31.3035 20.1228 31.6443 19.8764 31.8907C19.6299 32.1372 19.2891 32.291 18.9134 32.291H14.3115ZM13.9899 31.2493C14.0721 31.3314 14.1857 31.3821 14.3115 31.3821H18.9134C19.0374 31.3821 19.1528 31.3314 19.2349 31.2493C19.3153 31.1672 19.3678 31.0535 19.3678 30.9277C19.3678 30.8019 19.3153 30.6883 19.2349 30.6061C19.1528 30.524 19.0374 30.4733 18.9134 30.4733H14.3115C14.1857 30.4733 14.0721 30.524 13.9899 30.6061C13.9078 30.6883 13.8571 30.8019 13.8571 30.9277C13.8571 31.0535 13.9078 31.1672 13.9899 31.2493Z" fill="#EB7D3F"/>
</svg>
