<svg width="74" height="91" viewBox="0 0 74 91" fill="none" xmlns="http://www.w3.org/2000/svg">
<path d="M11.2196 30.8623H9.03292C5.93996 30.8623 3.43262 33.3696 3.43262 36.4626V43.7988C3.43262 46.8918 5.93996 49.3991 9.03292 49.3991H11.2196C14.3125 49.3991 16.8198 46.8918 16.8198 43.7988V36.4626C16.8198 33.3696 14.3125 30.8623 11.2196 30.8623Z" fill="#25262B"/>
<path d="M67.0311 30.8623H64.8444C61.7515 30.8623 59.2441 33.3696 59.2441 36.4626V43.7988C59.2441 46.8918 61.7515 49.3991 64.8444 49.3991H67.0311C70.124 49.3991 72.6314 46.8918 72.6314 43.7988V36.4626C72.6314 33.3696 70.124 30.8623 67.0311 30.8623Z" fill="#25262B"/>
<path d="M8.80859 30.8482C8.84525 28.4394 8.87976 26.0307 9.54826 23.2489C9.87604 21.8838 10.3548 20.4455 10.937 19.0244C11.5344 17.5623 12.2417 16.1175 13.0007 14.7956C13.7598 13.4758 14.5706 12.279 15.4699 11.1641C16.3842 10.032 17.3869 8.98181 18.5148 7.97906C19.6749 6.94828 20.9796 5.952 22.3921 5.04629C23.7161 4.1988 25.1372 3.4268 26.6252 2.77986C28.1455 2.11783 29.7305 1.58735 31.3413 1.19703C32.9716 0.8024 34.6256 0.547937 36.2667 0.440115C37.8258 0.336605 39.3914 0.368954 40.903 0.502654C42.5398 0.649292 44.0903 0.914534 45.4919 1.26603C46.8699 1.61107 48.1271 2.0402 49.3347 2.58362C50.5337 3.12489 51.6831 3.78045 52.8519 4.58481C53.9323 5.32878 55.0299 6.19999 56.0844 7.12079C57.2317 8.1257 58.3465 9.20824 59.3407 10.2584C60.2938 11.2655 61.1219 12.2251 61.8357 13.1502C62.5645 14.0926 63.1964 15.0242 63.742 15.9536C64.2919 16.8852 64.7469 17.8082 65.1264 18.7225C65.5038 19.639 65.8057 20.5555 66.0451 21.472C66.2844 22.3971 66.4591 23.3006 66.5863 24.1697C66.7179 25.0581 66.8063 25.9056 66.8753 26.7164V26.7208C67.0068 28.2475 67.078 29.77 67.1492 31.2924V31.3269L64.5248 31.4304L64.5226 31.4067C64.4579 29.9986 64.3911 28.5882 64.2509 26.9429C64.1819 26.1579 64.0978 25.3493 63.9813 24.5514C63.8606 23.7362 63.7075 22.9189 63.5005 22.1297C63.2934 21.3318 63.0282 20.5274 62.6961 19.7209C62.3618 18.9123 61.9586 18.0993 61.4777 17.282C60.9947 16.4604 60.4232 15.6215 59.7547 14.7568C59.0711 13.8705 58.3013 12.9734 57.4365 12.0612C56.5157 11.0887 55.4655 10.0708 54.3549 9.09826C53.3759 8.2443 52.3602 7.43563 51.3596 6.74773C50.3332 6.04257 49.3175 5.46249 48.2522 4.9816C47.1955 4.50718 46.0828 4.12764 44.8515 3.81927C43.549 3.49365 42.1365 3.24997 40.6766 3.11843C39.3116 2.99767 37.8797 2.96963 36.4327 3.06667C34.934 3.16371 33.4331 3.39445 31.9581 3.75242C30.496 4.10608 29.0555 4.58697 27.6754 5.18861C26.3297 5.77517 25.0316 6.48033 23.8132 7.26096C22.5279 8.08688 21.3332 8.99906 20.2658 9.94574C19.2329 10.8644 18.3293 11.8068 17.5185 12.8117C16.6947 13.8338 15.9572 14.9185 15.2758 16.1046C14.5706 17.3316 13.9172 18.6664 13.3673 20.0142C12.8368 21.3102 12.3991 22.6213 12.1036 23.8548C11.502 26.3585 11.4675 28.6206 11.4352 30.8805L8.80859 30.8482Z" fill="#25262B"/>
<path d="M33.2122 10.7852H42.2132C47.4253 10.7852 52.1609 12.9157 55.5961 16.3488C59.0292 19.7819 61.1598 24.5196 61.1598 29.7296V53.5885C61.1598 58.7985 59.0292 63.5362 55.5961 66.9693C52.1609 70.4023 47.4253 72.5351 42.2132 72.5351H33.2122C28.0001 72.5351 23.2623 70.4023 19.8293 66.9693C16.3962 63.5362 14.2656 58.7985 14.2656 53.5885V29.7296C14.2656 24.5196 16.3962 19.7819 19.8293 16.3488C23.2623 12.9157 28.0001 10.7852 33.2122 10.7852ZM42.2132 13.4203H33.2122C28.7268 13.4203 24.6489 15.2555 21.6924 18.212C18.7381 21.1685 16.9008 25.2463 16.9008 29.7296V53.5885C16.9008 58.0718 18.7381 62.1496 21.6924 65.1061C24.6489 68.0626 28.7268 69.8977 33.2122 69.8977H42.2132C46.6986 69.8977 50.7743 68.0626 53.7308 65.1061C56.6873 62.1496 58.5224 58.0718 58.5224 53.5885V29.7296C58.5224 25.2463 56.6873 21.1685 53.7308 18.212C50.7743 15.2555 46.6986 13.4203 42.2132 13.4203Z" fill="#25262B"/>
<path d="M15.5832 31.0498C14.8565 31.0498 14.2656 30.4589 14.2656 29.73C14.2656 29.0033 14.8565 28.4124 15.5832 28.4124H15.5918V28.4189C17.0216 28.4103 18.4513 28.4016 19.8444 28.1731C20.5215 28.0609 21.2051 27.8906 21.8779 27.6598C22.5119 27.4442 23.1157 27.1768 23.6721 26.8641C24.2392 26.5428 24.7697 26.1654 25.2506 25.7557C25.7422 25.333 26.1778 24.8758 26.5423 24.4057C26.7256 24.1685 26.8959 23.9227 27.0555 23.692C27.9461 22.4046 28.6384 21.404 30.1242 22.1458L30.1263 22.1436C30.8595 22.5081 31.3641 23.3879 31.9981 24.4963C32.3345 25.0829 32.714 25.7471 33.0936 26.3056C33.6154 27.0668 34.2257 27.8086 34.9848 28.5289C35.7546 29.2621 36.6819 29.9802 37.8141 30.6832C38.9483 31.384 40.3048 32.0805 41.7086 32.7016C43.1707 33.3485 44.65 33.9006 45.9525 34.2801C47.2248 34.6532 48.3526 34.8731 49.4071 35.0155C50.453 35.1578 51.4708 35.2268 52.4887 35.2937C53.2133 35.3411 53.761 35.9686 53.7136 36.6932C53.6661 37.4199 53.0386 37.9676 52.314 37.9202C51.2703 37.849 50.2287 37.78 49.0578 37.6226C47.8933 37.463 46.6426 37.2194 45.2215 36.8032C43.7788 36.3805 42.183 35.7896 40.6476 35.1104C39.1597 34.4526 37.6933 33.6979 36.4339 32.9172C35.1314 32.1107 34.064 31.2827 33.1712 30.433C32.2655 29.5704 31.5366 28.6906 30.9242 27.7871V27.7827C30.4239 27.0452 30.0444 26.3854 29.7123 25.8053C29.2982 25.0829 28.9705 24.5092 28.951 24.5006V24.4963C28.399 24.2203 29.378 24.9535 29.2184 25.1864C29.0373 25.4473 28.8411 25.7298 28.6211 26.0123C28.1488 26.6247 27.586 27.2134 26.9585 27.7526C26.3547 28.2701 25.6862 28.7445 24.9702 29.1499C24.25 29.5575 23.4974 29.8896 22.7318 30.1527C21.9383 30.4244 21.1059 30.6293 20.267 30.7673C18.695 31.026 17.1466 31.0347 15.5962 31.0433L15.5832 31.0498Z" fill="#25262B"/>
<path d="M38.6823 52.5985C34.4681 52.5985 31.0518 55.317 31.0518 58.6704C31.0518 62.0237 34.4681 64.7422 38.6823 64.7422L40.2335 64.7422C44.4477 64.7422 47.864 62.0237 47.864 58.6704C47.864 55.317 44.4477 52.5985 40.2335 52.5985L38.6823 52.5985Z" fill="#EB7D3F"/>
<path d="M45.9386 61.6043C44.4874 61.7057 43.228 60.6145 43.1266 59.1632C43.0253 57.7141 44.1164 56.4547 45.5677 56.3512C46.7495 56.2671 47.9355 56.1809 48.9555 56.0687C49.9604 55.9587 50.8769 55.8207 51.6166 55.6288C52.27 55.4584 52.8091 55.2385 53.2814 54.9711C53.7515 54.7059 54.1828 54.3694 54.6184 53.9705C55.054 53.5672 55.4788 53.1165 55.8626 52.6723C56.3672 52.0901 56.8136 51.51 57.1543 51.0356C57.7258 50.2334 57.9846 49.7309 58.2412 49.2306L58.2455 49.2328C58.9011 47.954 60.4688 47.4386 61.7562 48.0812C63.0522 48.7303 63.5784 50.3067 62.9315 51.6049L62.9185 51.6415C62.5778 52.3036 62.2349 52.9677 61.437 54.0826C61.0165 54.6735 60.4623 55.3916 59.8391 56.114C59.3194 56.7135 58.7544 57.313 58.1808 57.8413C57.4778 58.4883 56.7381 59.0554 55.8777 59.5428C55.0195 60.0301 54.0641 60.4204 52.9342 60.7159C51.8883 60.9854 50.7281 61.1666 49.5097 61.3003C48.3086 61.4318 47.1225 61.5181 45.9386 61.6043Z" fill="#EB7D3F"/>
<path d="M24.4455 69.5059C24.4714 68.7814 25.0795 68.2142 25.8041 68.2401C26.5287 68.2638 27.0958 68.8741 27.0699 69.5987L26.6818 80.4348L25.4116 80.424C20.8896 80.3917 16.3675 80.3572 13.0983 80.5966C11.5392 80.7108 10.2949 80.8877 9.27277 81.1464C8.31531 81.388 7.56055 81.7007 6.92009 82.0996C6.28178 82.4985 5.74266 82.9924 5.2855 83.5142C4.80892 84.0598 4.40998 84.6485 4.07573 85.2092C3.7307 85.785 3.45683 86.3262 3.21746 86.8503C2.99966 87.3225 2.76892 87.894 2.53602 88.4633C2.26431 89.1361 1.49662 89.4617 0.821652 89.1879C0.14884 88.9161 -0.176788 88.1484 0.0970813 87.4735C0.31057 86.9473 0.526218 86.4168 0.828121 85.7569C1.10846 85.1488 1.42545 84.5213 1.82008 83.8614C2.22334 83.1865 2.70854 82.4705 3.30804 81.7848C3.92694 81.0774 4.66013 80.4089 5.53133 79.8655C6.40038 79.3221 7.39666 78.9037 8.63446 78.5932C9.80326 78.2978 11.1942 78.0972 12.9129 77.97C15.8974 77.7522 19.9731 77.7608 24.148 77.7889L24.4455 69.5059Z" fill="#25262B"/>
<path d="M49.102 81.2535C48.3731 81.2535 47.7822 80.6627 47.7822 79.936C47.7822 79.2071 48.3731 78.6162 49.102 78.6162C53.844 78.6162 58.586 78.6162 61.5986 78.8275C63.162 78.9375 64.2553 79.1036 65.105 79.3214C65.9978 79.5478 66.6382 79.8324 67.2679 80.1624C67.8609 80.4708 68.4432 80.8287 69.0082 81.2384C69.5818 81.6568 70.1252 82.1226 70.6298 82.6466C71.1215 83.1555 71.5786 83.7205 71.9733 84.2834C72.3981 84.8893 72.7668 85.5147 73.045 86.0926C73.3254 86.6727 73.5151 87.1946 73.6553 87.6884C73.7847 88.1391 73.8796 88.5898 73.9723 89.0383C74.1211 89.75 73.6639 90.4465 72.9523 90.5931C72.2428 90.7419 71.5463 90.2848 71.3975 89.5753C71.3199 89.2001 71.2422 88.827 71.1215 88.4108C71.0158 88.0377 70.8778 87.6496 70.6772 87.2355C70.4616 86.787 70.1683 86.291 69.8211 85.7972C69.4934 85.3292 69.1224 84.8699 68.7343 84.4688C68.3289 84.0462 67.9019 83.6796 67.4641 83.3604C67.0156 83.0326 66.5412 82.7437 66.0538 82.4892C65.6031 82.252 65.1352 82.0471 64.4559 81.8746C63.7378 81.6913 62.7954 81.549 61.4239 81.4541C58.5666 81.2535 53.8332 81.2535 49.102 81.2535Z" fill="#25262B"/>
</svg>
