<svg width="86" height="85" viewBox="0 0 86 85" fill="none" xmlns="http://www.w3.org/2000/svg">
<path d="M1.5 42.3404C1.5 35.5569 2.19511 30.0723 3.58765 25.9235C4.9941 21.7631 7.07016 18.5659 9.82744 16.3317C12.5731 14.0976 16.0417 12.9863 20.2194 12.9863C23.2987 12.9863 26.0027 13.6022 28.3452 14.8454C30.6762 16.091 32.6039 17.8829 34.1031 20.2235C35.6045 22.5526 36.7816 25.4026 37.6389 28.7596C38.5101 32.1189 38.9387 36.6543 38.9387 42.3404C38.9387 49.0844 38.2413 54.5413 36.8627 58.6901C35.484 62.8504 33.408 66.0477 30.6484 68.2957C27.905 70.5437 24.4225 71.6666 20.2194 71.6666C14.6886 71.6666 10.3372 69.701 7.17675 65.7536C3.38607 60.9381 1.5 53.1383 1.5 42.3404ZM8.72916 42.3681C8.72916 51.8256 9.82744 58.1136 12.0379 61.2182C14.246 64.3368 16.9778 65.8879 20.2194 65.8879C23.4586 65.8879 26.1904 64.3229 28.4008 61.2043C30.609 58.0742 31.7072 51.8001 31.7072 42.3681C31.7072 32.9084 30.609 26.6204 28.4008 23.5157C26.2043 20.3972 23.4447 18.846 20.1383 18.846C16.8967 18.846 14.2993 20.2235 12.3576 22.967C9.93402 26.4583 8.72916 32.9338 8.72916 42.3681Z" fill="#EB7D3F"/>
<path d="M45.7314 43.2919C45.7314 40.7221 46.3779 38.5319 47.6801 36.7354C48.9823 34.9295 50.866 34.0312 53.336 34.0312C55.6043 34.0312 57.4858 34.8369 58.9733 36.4483C60.4609 38.062 61.2093 40.4373 61.2093 43.5605C61.2093 46.6072 60.4516 48.9595 58.9478 50.6055C57.4441 52.2493 55.5881 53.0735 53.3869 53.0735C51.1927 53.0735 49.3692 52.2586 47.9164 50.638C46.4613 49.0173 45.7314 46.5656 45.7314 43.2919ZM53.4611 37.1035C52.3605 37.1035 51.4453 37.5735 50.7131 38.5227C49.9832 39.4719 49.6125 41.2106 49.6125 43.7364C49.6125 46.0377 49.9832 47.6583 50.7223 48.589C51.4615 49.529 52.3767 49.999 53.4611 49.999C54.5802 49.999 55.5024 49.529 56.2346 48.5821C56.9645 47.6329 57.3259 45.9034 57.3259 43.3915C57.3259 41.074 56.9575 39.4464 56.2184 38.5134C55.4769 37.5735 54.5617 37.1035 53.4611 37.1035ZM53.4866 72.0139L73.1745 34.0312H76.7867L57.1498 72.0139H53.4866ZM69.0247 62.2323C69.0247 59.6463 69.6711 57.4561 70.9733 55.6596C72.2662 53.8699 74.1569 52.9717 76.6361 52.9717C78.9045 52.9717 80.7883 53.7773 82.2735 55.391C83.761 57.0024 84.5002 59.3777 84.5002 62.5009C84.5002 65.55 83.7541 67.8999 82.2503 69.5459C80.7442 71.192 78.879 72.0139 76.6616 72.0139C74.4766 72.0139 72.6624 71.199 71.2073 69.5714C69.7545 67.9415 69.0247 65.4898 69.0247 62.2323ZM76.7612 56.0462C75.6444 56.0462 74.7292 56.5162 73.997 57.4631C73.2671 58.4123 72.9057 60.151 72.9057 62.6768C72.9057 64.9619 73.2741 66.5733 74.0156 67.5225C74.7454 68.4717 75.6537 68.9417 76.7381 68.9417C77.8711 68.9417 78.7956 68.4717 79.5278 67.5225C80.2577 66.5733 80.6191 64.8438 80.6191 62.3342C80.6191 60.0167 80.2484 58.3868 79.5093 57.4561C78.7794 56.5162 77.8642 56.0462 76.7612 56.0462Z" fill="#25262B"/>
</svg>
