<svg width="92" height="101" viewBox="0 0 92 101" fill="none" xmlns="http://www.w3.org/2000/svg">
<path fill-rule="evenodd" clip-rule="evenodd" d="M65.9142 72.7355C65.755 70.8256 63.2195 68.4359 61.0797 68.4359C55.9999 68.4359 46.2138 70.7659 41.0168 70.7659C39.224 70.7659 32.1414 70.1049 31.381 70.2619C29.7518 70.6001 29.2036 73.3633 31.6131 73.9004L41.3749 74.526C44.3547 74.526 59.8109 71.8579 60.8299 72.0745C61.7208 72.2624 62.3331 72.972 62.3331 73.9889C62.3331 75.7595 57.9872 77.0726 56.0596 77.9258C53.4157 79.0952 48.568 80.7089 45.67 81.5069C42.5221 82.3735 44.1889 85.2737 45.4953 85.2737C46.6625 85.2737 51.2096 83.6445 52.547 83.1892C55.0095 82.3536 56.9592 81.5423 59.2383 80.5674C66.7874 77.3312 63.2726 77.2892 66.5133 76.3785L82.8669 71.9551C84.0075 71.6236 85.5173 71.1262 86.6646 71.5042C87.8185 71.8866 88.4618 73.1356 87.7699 74.3447C87.2018 75.3395 86.0103 75.6247 84.8498 76.0867C82.595 76.9841 80.5436 77.9059 78.3353 78.8874C73.9849 80.8194 69.7915 82.5039 65.4389 84.4403C61.9197 86.0054 55.6749 88.5276 52.2353 89.6838C46.8128 91.5097 40.9416 91.0057 35.1057 91.0057C33.5539 91.0057 32.0021 91.0057 30.4481 91.0057C26.1398 91.0057 26.8604 90.4773 24.7758 94.6464C24.5393 95.1195 24.2939 95.9308 24.0663 96.2668C23.812 96.6404 23.9646 96.5343 23.4584 96.7332C22.3973 97.1532 7.06934 96.9167 4.65542 96.9167C2.47582 96.9167 4.67089 91.0432 5.03563 89.9534C6.4747 85.6517 8.04861 82.6476 11.0085 79.4467C12.0608 78.3083 13.8226 77.0107 15.2218 76.3166C16.4443 75.7131 17.7308 75.3616 17.7308 73.8098C17.7308 72.8924 16.7891 72.0192 15.9403 72.0192C14.3619 72.0192 9.8281 75.408 8.54819 76.626L6.24038 79.334C5.86017 79.8512 5.59269 80.2911 5.22795 80.8305C3.06382 84.0535 0 91.8324 0 95.8423C0 98.1082 1.92318 100.5 4.11825 100.5H23.1047C24.8223 100.5 26.1597 99.6158 26.9267 98.5878C27.2848 98.1082 28.704 95.1615 28.8366 94.589C30.7863 94.589 32.0596 94.768 34.0314 94.768C39.5622 94.768 45.9286 95.1328 51.1941 93.8374C53.4931 93.2715 55.4826 92.4094 57.6091 91.6556L88.0529 78.7526C90.5088 77.7379 91.645 75.6821 91.7091 73.6175V73.224C91.6096 70.4188 89.556 67.7197 86.1562 67.7197C83.214 67.7197 78.5077 69.2649 75.4837 70.1248C73.8235 70.5957 72.3557 70.9317 70.6868 71.418C69.8357 71.6678 69.1593 71.8336 68.306 72.0834C67.5721 72.2978 66.469 72.4702 65.9142 72.7355Z" fill="#25262B"/>
<path d="M31.3253 20.0953C30.5693 20.9618 29.8133 21.8416 29.0462 22.7922C28.1377 23.9173 27.2446 25.1132 26.3781 26.4484C25.5116 27.7836 24.6694 29.2602 23.9045 30.7546C23.122 32.282 22.4124 33.856 21.8332 35.337C21.2784 36.7562 20.8584 38.0715 20.5312 39.2873C20.2085 40.4965 19.9786 41.6039 19.8062 42.6119C19.6359 43.6155 19.521 44.513 19.4591 45.3354C19.3994 46.1555 19.3906 46.9004 19.4304 47.6012C19.4679 48.2599 19.5541 48.9032 19.6713 49.5133C19.7995 50.172 19.9587 50.7512 20.1333 51.2375C20.3013 51.7017 20.487 52.1018 20.697 52.4666H20.6992C20.9158 52.8402 21.159 53.1828 21.4353 53.5232C21.7227 53.8747 22.0388 54.2218 22.3991 54.5445C22.7528 54.8606 23.1706 55.1723 23.6768 55.4707C24.1764 55.7669 24.7489 56.0388 25.5381 56.2776C26.3825 56.534 27.5011 56.7639 29.075 56.9606C30.6467 57.1574 32.5721 57.3099 34.5859 57.4204C36.8937 57.5464 39.3054 57.6194 41.4519 57.6371C43.4988 57.6547 45.3513 57.6238 47.0158 57.5442C48.6229 57.4668 50.0332 57.3386 51.2556 57.164C52.4184 56.9982 53.3955 56.786 54.2333 56.534C55.0291 56.293 55.6745 56.0211 56.2183 55.7249C56.7444 55.4354 57.1755 55.1259 57.5336 54.7877C57.8895 54.4494 58.1879 54.0737 58.4444 53.6514C58.7074 53.2226 58.9263 52.7495 59.1009 52.1637C59.2844 51.5359 59.4192 50.7667 59.501 49.7785C59.585 48.7529 59.6093 47.5702 59.5916 46.3124C59.5695 44.891 59.4921 43.2906 59.3772 41.6592C59.2733 40.1627 59.1407 38.686 58.9108 37.2624C58.6853 35.8521 58.3604 34.4506 57.874 33.0624C57.4142 31.7559 56.8041 30.4517 56.1144 29.205C55.3363 27.7991 54.4455 26.4595 53.5436 25.268C51.9962 23.2276 50.4178 21.6405 48.8351 20.0953H31.3253ZM26.4466 20.701C27.3839 19.5404 28.3521 18.4329 29.3204 17.3277L29.8244 16.7529H50.2012L50.6897 17.2437L50.6875 17.2459C52.5289 19.0364 54.3681 20.8292 56.2073 23.2564C57.1821 24.5429 58.157 26.0129 59.0257 27.5846C59.806 28.9905 60.4957 30.4716 61.0219 31.9659C61.5789 33.5509 61.9459 35.1403 62.2023 36.7407C62.4565 38.3257 62.6002 39.8819 62.7085 41.4381C62.8212 43.0364 62.8986 44.6899 62.9229 46.2726C62.9428 47.6896 62.9185 48.9828 62.8323 50.0394C62.7328 51.2552 62.5516 52.2477 62.2995 53.1032C62.0365 53.9985 61.6983 54.728 61.2938 55.3889C60.8848 56.0587 60.4073 56.66 59.8326 57.2038C59.2578 57.7476 58.5991 58.2251 57.8254 58.6495C57.0738 59.0629 56.2139 59.4276 55.1993 59.7349C54.2266 60.0289 53.086 60.2765 51.7265 60.4688C50.4267 60.6545 48.9103 60.7893 47.1728 60.8755C45.4883 60.9551 43.5762 60.9883 41.4253 60.9684C39.1706 60.9507 36.7058 60.8755 34.4179 60.7517C32.2582 60.6346 30.2444 60.4754 28.6705 60.2787C26.9374 60.0598 25.6287 59.7857 24.5721 59.4652C23.4646 59.1292 22.6666 58.7512 21.9791 58.3444C21.2961 57.9399 20.7036 57.4956 20.1797 57.0269C19.6625 56.5627 19.2292 56.0919 18.849 55.6255C18.4599 55.1458 18.1173 54.6639 17.8122 54.1378V54.1311C17.505 53.5984 17.2375 53.0214 16.9988 52.3605C16.7556 51.684 16.5456 50.9369 16.3931 50.1543C16.2516 49.4249 16.1477 48.6269 16.0991 47.7824C16.0504 46.9269 16.0593 46.0449 16.1278 45.101C16.1985 44.1615 16.3267 43.1557 16.5146 42.0505C16.7025 40.9518 16.9523 39.7449 17.306 38.423C17.6575 37.1077 18.1173 35.6752 18.723 34.1212C19.3242 32.5849 20.0847 30.9093 20.9402 29.2381C21.7647 27.6288 22.6644 26.0483 23.5818 24.6335C24.5279 23.1768 25.4851 21.8947 26.4466 20.701Z" fill="#25262B"/>
<path d="M31.1137 16.7529H49.0899C49.3043 16.7529 49.4988 16.6623 49.6425 16.5208C49.7862 16.3771 49.8746 16.1804 49.8746 15.9682C49.8746 15.7538 49.7862 15.557 49.6425 15.4133C49.4988 15.2719 49.3043 15.1812 49.0899 15.1812H31.1137C30.8993 15.1812 30.7025 15.2719 30.561 15.4133C30.4174 15.557 30.3289 15.7538 30.3289 15.966C30.3289 16.1804 30.4174 16.3771 30.561 16.5208C30.7025 16.6623 30.8993 16.7529 31.1137 16.7529ZM49.0899 20.0953H31.1137C29.9752 20.0953 28.9429 19.6333 28.1958 18.8839C27.4486 18.1367 26.9844 17.1044 26.9844 15.9682C26.9844 14.8297 27.4486 13.7974 28.1958 13.0502C28.9429 12.3031 29.9752 11.8389 31.1137 11.8389H49.0899C50.2261 11.8389 51.2584 12.3031 52.0078 13.0502C52.755 13.7974 53.2192 14.8297 53.2192 15.966C53.2192 17.1044 52.755 18.1367 52.0078 18.8839C51.2584 19.6333 50.2261 20.0953 49.0899 20.0953Z" fill="#25262B"/>
<path d="M32.7117 13.0462L32.7139 13.0528L30.1784 13.7779L29.5108 13.9746C28.7481 11.3772 27.9855 8.77984 27.5368 7.00698C27.3002 6.06308 27.1411 5.32476 27.0394 4.74559C26.9311 4.1399 26.8802 3.66242 26.8603 3.27779C26.836 2.82683 26.8559 2.50851 26.8913 2.27862C26.9421 1.9603 27.0261 1.75029 27.0858 1.60882C27.424 0.810811 27.6186 0.410701 28.9029 0.516807C29.0819 0.532281 29.3362 0.587545 29.8357 0.700283C30.3088 0.80639 31.0118 0.963338 31.5158 1.08934C32.1767 1.25734 32.8907 1.45629 33.5053 1.67292H33.5119C34.7675 2.11282 35.4395 2.57262 36.0076 2.96168L36.0562 2.99262C36.2618 3.1341 36.4475 3.25789 36.6 3.33968C36.6951 3.39052 36.7901 3.4281 36.8918 3.448C37.02 3.47452 37.1681 3.47895 37.3516 3.46347C37.6279 3.43694 37.9683 3.37284 38.3972 3.26231C38.689 3.18715 39.246 3.02136 39.8208 2.85115C40.537 2.63672 41.2842 2.41346 41.9938 2.24988C42.6459 2.09956 43.2273 2.01335 43.8219 1.98682C44.4232 1.9603 44.9979 1.99567 45.6367 2.08851C46.2469 2.17693 46.9012 2.31177 47.5268 2.45988C48.0883 2.5903 48.7006 2.75168 49.2046 2.88431L49.2621 2.89978C49.9429 3.07883 50.332 3.18273 50.6149 3.13631C51.0349 3.06557 51.6472 2.78483 51.9611 2.64115L51.9943 2.62567C53.115 2.11282 53.7583 1.85419 54.4569 3.38168C54.8061 4.14211 54.616 4.54443 54.1827 5.46402L54.1098 5.61876H54.1054C53.9307 5.99455 53.6456 6.60687 53.2654 7.46678C52.9316 8.22279 52.6 9.00532 52.3723 9.61101C51.9633 10.7052 51.7644 11.5408 51.6185 12.1664C51.6671 11.9542 51.7688 11.5231 51.6141 12.1686H51.6163L51.6185 12.1664C51.5942 12.2703 51.5809 12.3211 51.6163 12.1686H51.6141L51.5522 12.4228C51.3599 13.2208 51.2317 13.6298 51.1675 13.8354L51.1034 14.0432L47.9158 13.0506L47.9799 12.8428H47.9821V12.8406C48.0463 12.6306 48.1789 12.2106 48.3115 11.6513L48.369 11.4126H48.3668C48.3292 11.5651 48.3005 11.6845 48.3646 11.4104C48.5281 10.7207 48.7448 9.7967 49.251 8.44826C49.4964 7.79173 49.7793 7.10867 50.0556 6.47424C49.5627 6.43003 49.0697 6.29961 48.4132 6.12497L48.3557 6.11171C47.9247 5.99676 47.3919 5.8575 46.7708 5.7116C46.2137 5.58118 45.6478 5.46402 45.1681 5.39328C44.7172 5.32696 44.3325 5.30265 43.9656 5.31812C43.5964 5.33581 43.2051 5.39549 42.7387 5.5016C42.1772 5.63202 41.461 5.84423 40.7735 6.04981C40.2894 6.19571 39.8186 6.33498 39.2195 6.48972C38.6116 6.64445 38.101 6.73951 37.6522 6.78151C37.1084 6.83014 36.6509 6.81024 36.2397 6.72624C35.7998 6.64003 35.4174 6.4875 35.046 6.29298C34.7321 6.12718 34.4624 5.94592 34.1751 5.74918L34.1264 5.71823C33.7263 5.44412 33.251 5.11917 32.4022 4.82075L32.4044 4.81854C31.9336 4.65275 31.3102 4.48253 30.7067 4.33001L30.342 4.23937C30.4348 4.75222 30.5741 5.39107 30.7774 6.19571C31.2306 7.99068 31.9711 10.5129 32.7117 13.0329V13.0462ZM48.369 11.4126C48.4773 10.9661 48.4154 11.2159 48.3668 11.4126H48.369Z" fill="#25262B"/>
<path d="M35.6035 13.9018L34.3545 8.81086L37.5952 8.02832L38.8441 13.1192L35.6035 13.9018Z" fill="#25262B"/>
<path d="M43.6719 13.3332L44.3682 7L47.6862 7.35148L46.9899 13.6869L43.6719 13.3332Z" fill="#25262B"/>
<path d="M40.7431 24.7334C44.2048 24.7334 47.3393 26.1371 49.6096 28.4051C51.8776 30.6754 53.2813 33.8077 53.2813 37.2694C53.2813 40.7311 51.8776 43.8657 49.6096 46.1359C47.3393 48.404 44.2048 49.8077 40.7431 49.8077C37.2813 49.8077 34.149 48.404 31.8788 46.1359C29.6107 43.8657 28.207 40.7311 28.207 37.2694C28.207 33.8077 29.6107 30.6754 31.8788 28.4051C34.149 26.1371 37.2813 24.7334 40.7431 24.7334ZM47.5825 30.4322C45.8317 28.6814 43.4156 27.6005 40.7431 27.6005C38.0727 27.6005 35.6566 28.6814 33.9058 30.4322C32.1551 32.183 31.0741 34.5991 31.0741 37.2694C31.0741 39.942 32.1551 42.3581 33.9058 44.1089C35.6566 45.8574 38.0727 46.9406 40.7431 46.9406C43.4156 46.9406 45.8317 45.8574 47.5825 44.1089C49.331 42.3581 50.4142 39.942 50.4142 37.2694C50.4142 34.5991 49.331 32.183 47.5825 30.4322Z" fill="#25262B"/>
<path d="M42.1485 39.7388C42.1485 39.3608 42.0402 39.0535 41.8213 38.8192C41.6047 38.5805 41.2355 38.3616 40.7094 38.156C39.6749 37.7802 38.91 37.3602 38.4104 36.896C37.9087 36.434 37.6589 35.7819 37.6589 34.9419C37.6589 34.1594 37.9087 33.5183 38.4104 33.0187C38.91 32.5191 39.582 32.2251 40.4309 32.1367V30.6357H41.5406V32.1522C42.3585 32.2738 43.0018 32.6208 43.4704 33.1911C43.939 33.7592 44.1667 34.4931 44.1579 35.3928L44.138 35.4282H42.1485C42.1485 34.8778 42.0335 34.4534 41.8081 34.1549C41.5848 33.8587 41.2731 33.7106 40.8841 33.7106C40.4839 33.7106 40.1855 33.8234 39.9888 34.0533C39.7943 34.2787 39.697 34.5838 39.697 34.9618C39.697 35.3199 39.8009 35.6139 40.0087 35.8372C40.2165 36.0582 40.5945 36.2815 41.1493 36.4981C42.1772 36.9026 42.9399 37.3337 43.435 37.7935C43.9302 38.2533 44.1778 38.8988 44.1778 39.7255C44.1778 40.5368 43.9302 41.1823 43.4328 41.6664C42.9354 42.1483 42.2568 42.4357 41.4013 42.5241V43.9057H40.2894V42.5307C39.4207 42.4423 38.7 42.1328 38.1341 41.6067C37.566 41.0762 37.2897 40.3003 37.3096 39.2768L37.3229 39.2414H39.3124C39.3124 39.8648 39.456 40.3113 39.7434 40.581C40.0286 40.8507 40.3933 40.9855 40.8354 40.9855C41.2576 40.9855 41.5848 40.875 41.8081 40.6473C42.0335 40.4218 42.1485 40.119 42.1485 39.7388Z" fill="#25262B"/>
<path fill-rule="evenodd" clip-rule="evenodd" d="M46.9457 41.9248L49.7089 53.1942L45.8471 53.1611C44.9253 53.1611 44.1582 54.0055 44.1582 55.1041C44.1582 56.1365 45.8891 57.5534 46.7976 58.462L53.9156 65.6175C54.5743 66.389 55.2242 67.1826 56.3207 67.1826C57.1452 67.1826 57.7199 66.5017 58.1598 66.064C58.6174 65.6043 59.2828 65.0229 59.6652 64.5277C60.1538 63.8955 66.1775 57.9602 67.1546 56.9831C67.7779 56.3597 68.3173 55.9574 68.3173 54.9339C68.3173 54.032 67.5237 53.1611 66.6262 53.1611L62.9302 53.0395L65.5298 41.9248C65.5298 40.8372 64.3361 39.6436 63.2485 39.6436H49.2248C48.1372 39.6436 46.9457 40.8372 46.9457 41.9248Z" fill="#EB7D3F"/>
<path fill-rule="evenodd" clip-rule="evenodd" d="M23.2834 73.8096C26.9065 73.8096 25.7128 70.2285 23.8206 70.2285C22.733 70.2285 22.0389 70.9403 21.9328 71.8886C21.8289 72.8392 22.7618 73.8096 23.2834 73.8096Z" fill="#25262B"/>
</svg>
