<svg width="99" height="101" viewBox="0 0 99 101" fill="none" xmlns="http://www.w3.org/2000/svg">
<path d="M38.8096 81.5006L38.8941 82.2526C39.517 82.0145 40.1422 81.7832 40.7606 81.5362C41.1277 81.385 41.5148 81.2248 41.9731 81.1825L43.1611 81.069L43.6817 85.2448C44.1333 85.0802 44.5649 84.9244 45.0054 84.7309C45.5482 84.4928 46.0977 84.2526 46.7206 84.1547L47.5037 84.0323C48.1422 84.8955 48.3869 85.1002 48.4269 86.2637C48.4714 86.9133 48.5115 87.5696 48.5627 88.2192C49.7417 87.7498 51.1655 87.2181 51.6972 87.1669L52.9787 87.0446L53.4703 91.2426L53.586 91.2003V91.1936C53.9509 91.0557 54.309 90.9178 54.6694 90.7665C55.259 90.5151 55.873 90.2548 56.3891 90.1525L57.2901 89.9745L57.7684 90.7598C57.9642 91.0824 58.18 92.851 58.3246 94.2392C59.1322 93.9144 59.9442 93.5985 60.754 93.2759C61.0365 93.1781 61.1744 93.1135 61.4926 93.1224L62.536 93.1358L62.8229 94.039C63.0098 94.6375 63.0743 95.6341 63.1366 96.6375L63.1744 97.2359C63.784 96.9956 64.3913 96.7531 65.0031 96.5173C64.9408 96.059 64.8697 95.5963 64.8274 95.1358C64.7317 94.3393 64.5982 93.5029 64.6138 92.7042L64.6272 92.0412L65.1655 91.6608C66.2579 90.8822 67.6594 90.6842 68.8875 90.2014C68.8029 89.2848 68.6872 88.346 68.5604 87.4317C68.5115 87.1046 68.4625 86.7865 68.4759 86.3772L68.4959 85.7365L69.0054 85.3583C69.6706 84.8666 70.6583 84.6286 71.437 84.3216C71.8708 84.148 72.3135 83.9967 72.754 83.8366C72.6427 82.9623 72.5582 82.0835 72.4336 81.2136C72.3135 80.3838 72.2534 79.9656 72.5916 79.3939C72.9409 78.8021 73.348 78.6642 74.1622 78.3927C74.9853 78.1124 75.8063 77.7987 76.6294 77.5095C76.5871 77.1603 76.5271 76.7086 76.467 76.2593C76.2868 74.9267 76.1088 73.5963 76.4915 73.009C76.883 72.4016 79.7039 71.4717 80.5849 71.1669C80.5449 70.7843 80.4648 70.2882 80.3847 69.7965C80.2356 68.8822 80.0866 67.9789 80.1533 67.2871L80.2112 66.6619L80.7384 66.3149C81.3413 65.9167 82.2556 65.6252 83.1678 65.3338C83.606 65.1936 84.0465 65.0535 84.3891 64.9244C84.2512 63.9055 83.7885 61.1847 84.2067 60.455C84.596 59.7765 85.9331 59.3449 87.2189 58.9267C87.9397 58.6953 88.3335 59.0624 88.4826 58.7665C88.5649 58.6041 88.2556 57.8677 88.1222 56.8911C88.0043 56.0145 87.8908 55.1892 87.8975 54.7798L87.9064 54.0902L88.4781 53.7053C88.8897 53.4272 89.2167 53.3182 89.5927 53.1914C90.4492 52.8866 91.319 52.5907 92.1667 52.2615C92.1288 51.9901 92.0821 51.6897 92.0332 51.3827C91.8441 50.1792 91.6439 48.8911 91.8419 48.0857L92.0043 47.4228L96.0376 45.8722C95.9687 45.2848 95.8863 44.6997 95.8107 44.1147C94.7228 44.5618 93.4904 45.0424 92.7985 45.138L91.8863 45.2648L91.5415 44.6063C91.0743 44.0724 91.1122 42.4083 91.0298 41.7098L90.9653 41.0779C90.6761 41.1981 90.3869 41.316 90.0999 41.4428C89.3902 41.7565 88.2868 42.2459 87.5237 42.1369L86.6806 42.019L86.4448 41.2025C86.249 40.5351 86.1956 39.5696 86.1422 38.6263L86.111 38.0613L82.1934 39.534L81.6794 38.4261C81.3836 37.7876 81.3569 37.0134 81.3368 36.326C81.3213 35.8811 81.2679 35.4784 81.2323 35.0357C80.1533 35.4339 78.8941 35.9256 78.6294 36.0479L77.3079 36.6575L76.8341 35.2826C76.5782 34.5373 76.5159 33.4673 76.4447 32.6664H76.4492L76.4003 32.0946C75.8419 32.2993 75.279 32.4995 74.7228 32.7131C74.8029 31.8455 74.843 30.8444 74.843 29.8677L74.8541 29.8633C75.6772 29.5652 76.5271 29.2537 76.7985 29.0891L77.9976 28.3594L78.645 29.6097C78.8986 30.1013 78.9142 30.5018 78.932 30.9267C78.9475 31.3138 79.0076 31.692 79.0365 32.0791C79.061 32.395 79.0921 32.7042 79.1188 33.0223C79.5237 32.8666 79.9531 32.7042 80.3513 32.5551C81.2189 32.237 82.0154 31.9745 82.3068 31.9612L83.477 31.8966L83.6706 33.0601C83.7996 33.8499 83.8174 34.633 83.913 35.4206C83.9353 35.5941 83.9442 35.8188 83.9531 36.0657L87.8352 34.6063L88.3513 35.7075C88.645 36.3327 88.705 37.3939 88.7651 38.4817L88.8051 39.1402C89.1433 38.9912 89.477 38.8466 89.8174 38.7064C90.487 38.4283 91.5437 37.9856 92.0577 37.9745L93.2034 37.9434L93.3836 39.0802C93.5059 39.8455 93.5504 40.6286 93.6416 41.4005C93.6683 41.6252 93.6861 41.8744 93.6995 42.128C94.2601 41.9122 94.8986 41.6452 95.4459 41.4183C96.3313 41.049 97.2256 40.7064 98.1199 40.3594C98.1978 41.514 98.2668 42.6352 98.4136 43.7854L98.5182 44.5907C98.6116 45.2537 98.7718 46.415 98.6939 46.9445L98.5805 47.7009L94.3936 49.3115C94.4359 49.7676 94.5337 50.3883 94.6249 50.9801C94.7473 51.7632 94.8652 52.5106 94.8652 53.0646L94.8674 53.7832L94.2579 54.1703C93.7017 54.524 92.2445 55.0401 91.3035 55.3716L90.6027 55.6208L90.7251 56.5418C90.9119 57.9055 91.1144 59.3894 90.8296 59.95C90.4848 60.6286 89.2746 61.0223 88.0221 61.4272C87.2078 61.692 86.596 61.5607 86.4803 61.7609C86.378 61.9434 86.7562 62.8377 86.8986 63.8855C87.0009 64.633 87.0899 65.296 87.0988 65.6341L87.1188 66.2837L86.6116 66.6953C86.0109 67.1781 84.9853 67.5073 83.9598 67.8343C83.5482 67.9656 83.1389 68.0969 82.8029 68.2214C82.8452 68.5618 82.9097 68.9689 82.9764 69.3761C83.1544 70.4684 83.3346 71.5785 83.1566 72.3549L83.0121 72.9778C82.6027 73.1714 82.2 73.3694 81.7751 73.5318C81.5571 73.6163 81.3346 73.692 81.1122 73.7654C80.5671 73.95 78.814 74.2504 78.6917 74.4372C78.5449 74.6664 78.9564 75.0579 79.0699 75.91C79.2123 76.9734 79.3546 78.039 79.2723 78.5618L79.1745 79.1603L78.6539 79.4762C78.2334 79.732 77.5415 79.9723 76.9275 80.1858C76.2935 80.4039 75.6772 80.653 75.0387 80.8666C75.1411 81.5674 75.1989 82.2682 75.2901 82.9712C75.3724 83.6096 75.4637 84.2948 75.4103 84.7999L75.3457 85.4339L74.8029 85.7765C74.1021 86.2214 73.1833 86.4506 72.4047 86.7598C72.0042 86.9178 71.5905 87.0557 71.1856 87.2003L71.279 87.9322C71.3969 88.8799 71.5793 90.3727 71.5526 91.0335L71.526 91.6897L70.992 92.0613C69.913 92.8132 68.4937 93.0157 67.2835 93.4962C67.368 94.217 67.437 94.94 67.5371 95.6564C67.6083 96.1547 67.6772 96.6508 67.6883 97.2759L67.6995 97.8655L67.2679 98.2637C67.0387 98.4728 66.0287 98.9267 64.9898 99.3427C63.8507 99.7987 62.5627 100.273 62.2823 100.317L61.13 100.5L60.8118 99.3761C60.6361 98.7531 60.5738 97.7743 60.5137 96.8021L60.4737 96.2103L59.8485 96.4573L59.8508 96.4617L59.8129 96.4773C59.3079 96.6819 57.8574 97.2715 57.3124 97.3271L55.9931 97.4628C55.8641 96.0457 55.7462 94.6285 55.6283 93.2092C55.259 93.3649 54.8941 93.5095 54.5204 93.6519V93.6475C53.9175 93.8788 53.3413 94.1013 52.7139 94.2815L51.2278 94.7109L50.7006 90.1947C49.3613 90.7064 48.0376 91.2693 46.7139 91.8165L46.2734 90.4684C45.962 89.5207 45.9264 88.2348 45.8596 87.2248C45.0098 87.5919 44.1199 87.8521 43.279 88.2548L42.289 88.7287L41.6483 87.8432C41.3213 87.3916 41.0966 85.554 40.9742 84.2748L39.2412 84.9333C38.6316 85.2025 38.18 85.425 37.4792 85.316L36.2334 85.1247L36.3736 83.8766C36.3847 83.7743 36.3802 83.6119 36.3691 83.4228C37.2679 82.8955 38.0888 82.2459 38.8096 81.5006ZM74.8541 80.7309C74.7807 80.8555 74.8341 80.8088 74.903 80.7798C74.9053 80.6864 74.9386 80.5907 74.8541 80.7309Z" fill="#25262B"/>
<path d="M44.7162 76.2552L45.4459 77.1673L45.8775 76.6178L45.8819 76.62C46.3558 76.0238 46.6895 75.3942 47.2279 74.8536L48.3069 74.2218C49.1189 74.5422 49.4348 74.6556 50.0243 75.5433C50.3847 76.0772 50.7807 76.6156 51.1611 77.1362C51.9198 76.115 52.8541 74.9115 53.2768 74.5911L54.298 73.8192L56.9209 77.1339C57.0188 77.0049 57.1656 76.7869 57.2657 76.6846C57.7774 76.0238 58.229 75.2452 58.8408 74.6779L59.5104 74.0527L60.3269 74.4665C60.6673 74.6378 61.7796 76.0327 62.6317 77.1384C63.1478 76.4376 63.6684 75.7391 64.189 75.0405C64.3959 74.8025 64.4626 74.6868 64.7451 74.5221L65.6239 73.9815L66.3514 74.6111C66.8363 75.0272 67.4081 75.8392 67.9865 76.6556L68.3336 77.1451C68.7229 76.62 69.1122 76.095 69.5104 75.5767C69.2168 75.2163 68.9142 74.8603 68.6339 74.491C68.1467 73.8459 67.5861 73.2207 67.1767 72.5288L66.843 71.9593L67.1011 71.3542C67.6283 70.1084 68.7006 69.2163 69.5037 68.1551C69.4036 68.0194 67.9821 66.2218 67.9821 66.2174C67.6817 65.8636 67.3725 65.5166 67.1411 65.1139L66.8252 64.5667L67.0633 63.9727C67.3658 63.214 68.0888 62.4821 68.5872 61.8125H68.5894C68.8675 61.441 69.1656 61.0783 69.457 60.7135C69.1767 60.3664 68.8808 60.0194 68.6161 59.6657C68.2735 59.2051 68.0088 58.8892 67.8108 58.6512C67.2724 58.0083 67.001 57.6834 66.9898 57.0116C66.9765 56.3175 67.2479 55.9905 67.7974 55.3342C68.0065 55.085 68.2779 54.758 68.5538 54.3909C68.8341 54.0171 69.1389 53.6567 69.4326 53.2919C69.2145 53.0183 68.9276 52.6645 68.6383 52.313C67.7885 51.2763 66.9409 50.2396 66.9565 49.5388C66.972 48.8336 68.7874 46.6512 69.308 46.0194L69.3102 46.0216L69.4771 45.8169C69.2412 45.5144 68.912 45.1339 68.5872 44.758C67.9776 44.055 67.3747 43.3586 67.0699 42.7424L66.7896 42.1729L67.0544 41.6056C67.3569 40.9582 67.9821 40.2285 68.6072 39.4988C68.9098 39.1473 69.2123 38.7936 69.437 38.5044C68.7852 37.7101 66.9631 35.6345 66.9364 34.7936C66.9142 34.0194 67.8241 32.9515 68.7006 31.9215C69.1901 31.3453 69.7173 31.4343 69.6906 31.1117C69.6751 30.9337 69.0277 30.4665 68.4025 29.7079C67.8374 29.0183 67.3058 28.3709 67.1011 28.0283L66.7474 27.4365L67.0277 26.8136C67.2301 26.3709 67.4526 26.1017 67.7106 25.7925C68.2802 25.0806 68.8675 24.3731 69.4148 23.6478C69.2412 23.4387 69.0432 23.2074 68.8408 22.9693C68.0488 22.0461 67.2034 21.0561 66.9476 20.2619L66.7385 19.6078L69.3569 16.1729C68.9876 15.7124 68.6116 15.2541 68.2401 14.798C67.5438 15.7546 66.7474 16.8136 66.2179 17.2496L65.506 17.8392L64.5694 17.3698C64.4515 17.2385 64.3358 17.1006 64.2157 16.9715C63.8597 16.6 63.5905 16.2107 63.3235 15.8258C63.0677 15.4543 62.7963 15.1161 62.5249 14.758C62.3425 15.0094 62.1556 15.2608 61.9798 15.5166H61.9754C61.5327 16.1618 60.8475 17.1584 60.1467 17.4654L59.3725 17.8036L58.7429 17.2341C58.318 16.8492 57.8797 16.2641 57.4437 15.6478C57.4971 14.0883 57.2145 12.5066 56.5493 11.0116L56.5382 10.9337L57.4815 11.55C58.0599 11.9282 58.6695 12.8025 59.2924 13.699L59.6728 14.2418L59.813 14.0372L59.8108 14.0349C59.9709 13.8014 60.1356 13.5722 60.3024 13.3408C60.7251 12.7513 61.3925 11.8214 61.8241 11.5388L62.7874 10.9115L63.5393 11.7858C64.0443 12.3775 64.4893 13.016 64.972 13.6256C65.1166 13.808 65.2613 14.0105 65.4036 14.2174C65.7685 13.7391 66.1712 13.1784 66.516 12.7001C67.0788 11.917 67.655 11.1562 68.2379 10.3887L69.2768 11.8458C69.7507 12.511 70.2824 13.1451 70.7963 13.7813L70.7985 13.7791C71.2234 14.293 71.9665 15.194 72.1845 15.7012L72.4826 16.4042L69.7663 19.9682C70.0421 20.3331 70.447 20.8069 70.8363 21.263C71.348 21.8614 71.8375 22.4332 72.1333 22.9115L72.5138 23.5277L72.2023 24.1729C71.9175 24.758 70.9364 25.9727 70.3069 26.7535L69.8463 27.3253L70.4314 28.0416C71.308 29.1095 72.2624 30.2708 72.3135 30.8959C72.3758 31.6456 71.5505 32.6156 70.6962 33.6189C70.1422 34.2708 69.5549 34.4955 69.5616 34.7202C69.5683 34.9293 70.358 35.4899 71.0277 36.3041C71.5193 36.9048 71.9576 37.4365 72.1222 37.6879L72.4759 38.2285L72.2601 38.8403C71.9999 39.5811 71.3013 40.3953 70.605 41.2074C70.3224 41.5344 70.0399 41.8636 69.8196 42.1484C70.0332 42.4176 70.3024 42.7268 70.5716 43.0383C71.2968 43.8748 72.031 44.7224 72.2868 45.4854L72.4893 46.0839C72.2446 46.4643 72.0065 46.8425 71.7307 47.2007C71.5905 47.3809 71.4437 47.5633 71.3013 47.7391C70.9498 48.1618 69.5838 49.3564 69.5794 49.59C69.5749 49.8636 70.1311 49.9816 70.6762 50.6467C71.3525 51.4743 72.031 52.3019 72.2401 52.8069L72.4693 53.3631L72.1934 53.9015C71.9643 54.3486 71.506 54.9093 71.0966 55.4098C70.6717 55.9326 70.2757 56.4688 69.8441 56.9849C70.0733 57.2608 70.3736 57.6189 70.7251 58.0906C71.2101 58.7402 71.8797 59.4254 72.2245 60.1373L72.5026 60.7157L72.2245 61.2852C71.8641 62.0216 71.1923 62.7113 70.6962 63.3809C70.6962 63.3987 69.9843 64.2752 69.8842 64.3998L70.0354 64.5889L70.0377 64.5867L70.3447 64.9693C70.9498 65.7279 71.9042 66.9182 72.2134 67.4699L72.5316 68.0372L72.269 68.6378C71.7396 69.857 70.6539 70.7624 69.8664 71.8125C69.9887 71.9727 70.12 72.1373 70.2512 72.2997L70.2535 72.2975C70.576 72.7024 70.8897 73.1117 71.219 73.5099C71.5416 73.8992 71.8641 74.2886 72.1956 74.8047L72.5138 75.303L72.3536 75.8703C72.269 76.1684 71.6506 77.0806 70.9854 77.9816C70.2535 78.9693 69.4036 80.0505 69.1923 80.2329L68.3046 80.9982L67.4437 80.2063C66.9654 79.768 66.3981 78.9649 65.8352 78.1684L65.4971 77.6901L65.0699 78.2619C64.7451 78.7046 63.8174 79.9704 63.3881 80.2997L62.338 81.105C61.4837 79.966 60.6406 78.8225 59.7952 77.6746C59.6461 77.8837 59.4993 78.0883 59.348 78.2841C58.8742 78.907 58.407 79.5388 57.8819 80.1173L56.8408 81.263L54.0199 77.6923C53.1478 78.8314 52.318 80.006 51.477 81.1673L50.3936 80.2507C49.6328 79.6078 48.9253 78.5288 48.338 77.7035C47.9954 78.1951 47.6128 78.6445 47.2546 79.1228C46.8341 79.6834 46.4715 80.2708 46.0933 80.8581L45.0811 80.4398C44.5649 80.2263 43.4081 78.7802 42.6317 77.7546L41.506 79.2296C41.0833 79.7747 40.9097 80.1818 40.2045 80.4799L39.0432 80.9693L38.5071 79.8303C38.4159 79.639 38.1645 79.303 37.9042 78.9671C39.0566 78.5644 40.1689 78.0972 41.1901 77.5744C41.7418 77.2941 43.0388 77.0272 44.7162 76.2552ZM35.4348 79.7101C35.2079 79.9838 35.0232 80.1884 34.9187 80.2774L33.8263 81.2207L33.1011 80.2018C33.873 80.075 34.6561 79.9081 35.4348 79.7101ZM69.6128 56.9693C69.615 57.1206 69.6372 57.045 69.6795 56.9804C69.6328 56.9026 69.6083 56.8047 69.6128 56.9693Z" fill="#EB7D3F"/>
<path d="M17.8643 59.4611L16.6474 62.8648L17.0879 63.1696C18.0712 63.8459 19.188 64.5712 19.5595 64.807L20.1046 65.1541L20.1624 65.8014C20.2314 66.5912 19.7531 67.7814 19.2948 68.9227C19.1546 69.272 19.0167 69.6168 18.9077 69.9104C19.208 70.1129 19.5773 70.3309 19.9488 70.5489C20.8298 71.0673 21.7063 71.5856 22.2314 72.2441L22.6118 72.7202L22.4894 73.3253C22.4004 73.7614 22.2113 74.2553 22.0868 74.5801L22.0801 74.6068C22 74.8137 21.9377 74.9983 21.8754 75.1807C21.8265 75.3276 21.7775 75.4722 21.6952 75.6947C21.6418 75.8415 21.564 76.0261 21.4794 76.233V76.2375C21.3904 76.4555 21.2881 76.7002 21.2036 76.9249L22.832 78.0662L22.8966 77.8815C23.2592 76.847 23.6351 75.6991 23.6863 75.4655L23.9199 74.3843L25.0234 74.431C25.7753 74.4622 26.1891 74.7892 26.5962 75.1096L26.7675 75.243C27.1546 75.5033 27.4794 75.7436 27.8042 75.9816L28.2069 76.2753C28.6185 75.0695 29.1413 73.6146 29.4283 73.2141L29.9911 72.4266L30.9099 72.7314C31.4661 72.9138 32.6963 73.7547 33.7152 74.4866L33.8398 74.1374C34.1802 73.1807 34.5117 72.1952 34.5539 71.9794L34.7764 70.8359L35.9377 70.9205C36.6941 70.9738 37.6374 71.6813 38.2692 72.1574L38.5651 72.3754L38.5673 72.3732L39.1124 72.7447C39.1702 72.5823 39.7775 71.0117 39.7775 70.8582C39.9021 70.4777 40.0311 70.0773 40.2914 69.708L40.9833 68.7269L42.5606 69.6368L42.6207 69.6835V69.6858C42.9143 69.8993 43.8087 70.5512 44.4939 71.0473L44.7386 70.3932C44.8365 70.1396 44.9032 69.9238 44.9677 69.7058L44.9633 69.7036C45.1324 69.1429 45.3059 68.5734 45.6418 68.0284L46.0601 67.3476L46.8498 67.4054C47.5506 67.4544 47.9488 67.7725 48.3559 68.0973L48.5339 68.2353C48.6986 68.3532 48.9566 68.5467 49.228 68.7492C49.4527 68.9182 49.693 69.0962 49.9266 69.2675C50.3359 68.0662 50.8565 66.6379 51.1635 66.1974L51.9021 65.1474L55.4127 67.5011L55.5996 66.9783L55.604 66.9739C55.6351 66.8849 55.7308 66.5845 55.8265 66.282C56.0156 65.688 56.2091 65.0717 56.485 64.5801L56.9344 63.7747L57.8376 63.9216C58.2202 63.9816 59.7041 64.9672 60.8521 65.7569C61.1413 64.9027 61.4149 64.035 61.7264 63.1897L61.7464 63.1452C61.7798 63.0473 61.802 62.985 61.8598 62.8826L61.871 62.8737C61.9422 62.7514 61.9822 62.7091 62.0645 62.6179V62.6135L62.7297 61.837L63.6129 62.2108C64.2002 62.46 64.9944 63.0562 65.7953 63.6591L66.2781 64.0195L66.5717 63.163C66.703 62.7759 66.8276 62.4244 66.921 62.1596L66.4983 61.8882C66.2291 61.7147 65.9577 61.5411 65.7531 61.3988C65.564 61.2653 65.3682 61.1363 65.1702 61.005C64.6763 60.678 64.1758 60.3465 63.7642 59.9794L63.2725 59.5412L63.3326 58.8849C63.4127 57.9905 63.7976 57.1096 64.1802 56.233C64.3515 55.8415 64.5228 55.4477 64.6429 55.1029C64.1535 54.7558 63.4905 54.3176 63.01 53.9994C62.7786 53.8459 62.5562 53.6991 62.3226 53.5523C62.0356 53.3721 61.7531 53.1941 61.4616 52.9316L60.99 52.5044L61.0345 51.8726C61.0745 51.3053 61.3571 50.5756 61.6085 49.9282C61.6841 49.7325 61.7575 49.5456 61.8243 49.3476C61.9177 49.0762 62.0111 48.8315 62.1068 48.5801L62.3137 48.0306L61.8754 47.7436C61.6307 47.5812 61.3904 47.4255 61.1969 47.2898C60.7453 46.9672 60.3893 46.7425 60.1179 46.5712C59.406 46.1218 59.0478 45.8949 58.832 45.2631C58.6073 44.6068 58.7675 44.213 59.0879 43.421C59.1991 43.1452 59.3459 42.7848 59.515 42.2909C59.5795 42.104 59.6908 41.8237 59.8065 41.5256L60.02 40.9716C59.7286 40.7781 59.3504 40.5311 58.97 40.2864C57.8398 39.5567 56.7097 38.827 56.5095 38.1529C56.3159 37.4944 57.3726 34.8559 57.653 34.1552C57.653 34.1351 57.7597 33.8771 57.7731 33.8437C57.4572 33.6257 57.0278 33.3654 56.6029 33.1073C55.8042 32.6224 55.0145 32.1418 54.5428 31.6546L54.1001 31.1985L54.178 30.5801C54.267 29.8749 54.6407 28.985 55.0145 28.0973L55.01 28.0951C55.188 27.668 55.3682 27.2386 55.495 26.8982L54.9188 26.5245C53.6885 25.7325 52.2091 24.7825 51.9778 24.1285C51.7175 23.3965 52.2558 22.1018 52.7764 20.8515C53.0679 20.1507 53.6018 20.0862 53.475 19.7814C53.4038 19.6101 52.6474 19.3743 51.8198 18.8426C51.0656 18.3554 50.3582 17.8993 50.0601 17.639L49.5439 17.1852L49.624 16.5022C49.6796 16.0128 49.8087 15.6924 49.9577 15.3231L50.2781 14.4911C50.4783 13.9772 50.743 13.2898 50.9255 12.7603C50.6963 12.6112 50.436 12.4511 50.1691 12.2864C49.1301 11.6479 48.0178 10.9627 47.5373 10.2931L47.139 9.73693L48.5806 5.65907C48.3204 5.48776 48.0222 5.29644 47.8042 5.15628L47.5195 4.97164V4.96941L47.1101 4.70022L47.1079 4.70245L47.0968 4.69577C46.7297 5.81479 46.2959 7.0584 45.9221 7.64572L45.4216 8.42881L44.7164 8.26641C44.5784 8.26863 44.4249 8.23526 44.1936 8.13515L44.1379 8.1129L43.931 7.99722C43.4772 7.7525 43.1035 7.46552 42.7341 7.18298C42.5428 7.03392 42.3493 6.88709 42.1713 6.76919L42.1669 6.76251C41.9644 6.62903 41.7976 6.51335 41.6418 6.40434C41.6107 6.50222 41.4661 6.91602 41.4661 6.95606C41.4349 7.0495 41.3993 7.16518 41.3593 7.29866C41.1368 8.04171 40.7898 9.19633 40.2113 9.71023L39.5729 10.2753L38.8009 9.92603C38.1757 9.64349 37.4016 9.05395 36.6474 8.47775L36.1958 8.13737L34.772 12.0662L33.6018 11.7414C32.9188 11.5523 32.3137 11.0651 31.7775 10.6357H31.7731C31.5951 10.4955 31.4305 10.3621 31.3081 10.282C31.1457 10.173 30.941 10.0284 30.7275 9.87264C30.3293 10.9538 29.8865 12.2308 29.8064 12.5133L29.4105 13.9171L28.0578 13.381C27.4572 13.1429 26.5206 12.4778 25.9622 12.0795L25.3504 11.6368L25.1101 12.282C24.9032 12.8382 24.7008 13.3832 24.574 13.7992L24.5628 13.8393L23.6641 15.9638L19.8865 13.401L19.7731 13.7748C19.4527 14.8426 19.1257 15.9305 18.5695 16.569L17.8665 17.3743L16.9366 16.8515C16.7786 16.7625 16.614 16.6646 16.4227 16.5445V16.5423C16.2158 16.411 16.0512 16.3042 15.9132 16.2063L15.5528 15.9572V15.9549C15.3037 15.7814 15.0634 15.6146 14.9299 15.5189L14.4627 15.1696L14.3671 15.5234C14.1046 16.4955 13.7998 17.6235 13.2147 18.3287L12.6274 19.0339L11.7686 18.7291C11.2547 18.5467 10.4761 17.9616 9.6574 17.3476L9.02336 16.876L8.80312 17.5167C8.73193 17.7125 8.66963 17.9127 8.60512 18.124C8.42047 18.7202 8.2158 19.3854 7.92659 19.8682L7.42825 20.6913L6.49611 20.4689C6.26696 20.4155 5.98443 20.2798 5.72191 20.1262C5.47275 19.9816 5.18354 19.7881 5.01446 19.6568C4.74082 19.4455 4.16463 19.0161 3.60623 18.6224L3.36374 19.2564L3.35929 19.2608L3.25918 19.5211C3.15684 19.7836 3.01446 20.1507 2.89655 20.4777C3.17019 20.6735 3.50389 20.9049 3.84872 21.1407C4.69188 21.7147 5.54394 22.2731 5.71524 22.3532L6.45606 22.7024L6.46496 23.53C6.47386 24.2241 6.18688 24.9294 5.92436 25.5723C5.83315 25.7948 5.74639 26.0061 5.69522 26.1685C5.62403 26.3954 5.50834 26.6958 5.38154 27.0139L5.19244 27.5078C5.46162 27.6858 5.78865 27.8927 6.12013 28.1018C7.31924 28.8604 8.55618 29.6435 8.7475 30.3999C8.88321 30.936 8.31146 32.4622 7.8109 33.7948L7.50834 34.6046L8.21135 35.0717H8.2158C8.34483 35.1585 8.43159 35.2141 8.58287 35.3209C8.75417 35.4388 8.87875 35.5189 9.01668 35.6101C9.63515 36.0106 10.4761 36.5556 10.7942 36.9761L11.1479 37.441L11.0412 38.0083C10.8765 38.8849 10.5206 39.7747 10.1669 40.6602C10.0311 41.0005 9.89544 41.3432 9.77531 41.6769C9.99778 41.8281 10.2692 41.9972 10.5206 42.1574C10.8543 42.3665 11.1657 42.5623 11.3793 42.7202V42.7269C11.475 42.7981 11.644 42.9049 11.8154 43.0117V43.0161C12.2136 43.2653 12.6185 43.5189 12.9922 43.9216L13.3615 44.322L13.3415 44.8559C13.3148 45.5278 12.9522 46.3821 12.5717 47.2809C12.3671 47.7636 12.1535 48.2642 12.02 48.649L12.2113 48.7736C12.4961 48.965 12.6674 49.0784 12.8498 49.1941C13.6885 49.7414 14.7853 50.4533 15.257 50.936L15.6663 51.3587L15.6263 51.9394C15.564 52.8293 15.079 53.9483 14.6385 54.9583L14.2959 55.7569L15.0478 56.2508C16.1046 56.9449 17.2814 57.7169 17.6685 58.2219L18.1068 58.7892L17.8643 59.4611ZM13.8443 62.8804L15.079 59.4321C14.6874 59.163 14.129 58.7959 13.6062 58.4533C12.9054 57.995 12.2581 57.5701 11.9221 57.2809L11.4616 56.8826L11.4705 56.2731C11.4772 55.639 11.8376 54.8137 12.2314 53.9082C12.4627 53.3787 12.7075 52.8114 12.8587 52.3598C12.4472 52.064 11.8865 51.7013 11.4194 51.3965L10.7408 50.9538L10.5406 50.8204L10.5428 50.8181C10.2536 50.6268 9.9644 50.4377 9.70411 50.2086L9.27253 49.8281L9.26363 49.2364C9.25028 48.3799 9.71524 47.2853 10.1535 46.2531C10.2981 45.9105 10.4383 45.579 10.545 45.312L10.4294 45.2408L10.4271 45.243C10.2358 45.1229 10.0423 45.0028 9.80645 44.827L9.80423 44.8293C9.6218 44.6935 9.37931 44.54 9.12125 44.3799C8.42937 43.9416 7.64183 43.4477 7.21468 42.8782L6.82759 42.3665L6.99222 41.7525C7.17019 41.0918 7.44828 40.3932 7.72859 39.6924C7.92436 39.203 8.12013 38.7136 8.26696 38.2553C7.76196 37.926 7.25695 37.599 6.75639 37.2653V37.2608C6.15573 36.8626 5.20356 36.2286 4.9099 35.8304L4.57175 35.3699L4.67853 34.8115C4.73192 34.5334 5.02558 33.7525 5.35261 32.8804C5.71524 31.9104 6.26029 31.2964 6.19577 31.0473C6.13348 30.7981 5.4772 30.8026 4.7208 30.3242C3.91769 29.817 3.13459 29.3209 2.76307 28.9605L2.27809 28.4933L2.37375 27.8304C2.44716 27.3031 2.70523 26.6468 2.93437 26.0573C3.03226 25.8059 3.1257 25.5679 3.18576 25.3765C3.26363 25.1274 3.37264 24.8626 3.4861 24.5845L3.65517 24.1641C3.26585 23.9149 2.80756 23.6123 2.36707 23.312C1.55951 22.7603 0.769746 22.193 0.491659 21.9349L0 21.4766L0.0867629 20.8026C0.157953 20.2531 0.576194 19.1785 0.812012 18.5734L0.907676 18.3198H0.905452L1.02781 18.0017C1.2436 17.4321 1.50389 16.7536 1.61068 16.3287L1.93771 15.0295L3.23026 15.3832C3.57063 15.4766 4.08899 15.777 4.62959 16.1396C5.14572 16.4866 5.71524 16.8982 6.13793 17.2141C6.20912 16.9805 6.27809 16.767 6.3337 16.6112L6.48721 16.1908C6.72303 15.5011 7.0812 14.4689 7.34371 14.1218L7.95996 13.3076L8.90323 13.7058C9.51724 13.9638 10.396 14.6224 11.2325 15.2497L11.6307 15.5478C11.6974 15.3165 11.7642 15.0762 11.8243 14.8448C11.9355 14.4355 12.0378 14.0573 12.1624 13.7147L12.307 13.3365C12.3826 13.1385 12.4605 12.9427 12.5095 12.7714L12.8676 11.5122L14.129 11.866C14.6429 12.0106 15.5417 12.6891 16.1424 13.1429L16.4739 13.3877C16.743 13.5834 16.881 13.6791 17.0211 13.777C17.0968 13.5389 17.1746 13.2809 17.2525 13.0228C17.5172 12.1396 17.7798 11.2697 18.1557 10.6846L18.8854 9.5545L22.4316 11.9594L22.6518 11.3654C22.9566 10.5534 23.2703 9.71023 23.3237 9.3921L23.5484 7.99722L24.9166 8.31757C25.4616 8.44438 25.7753 8.69132 26.109 8.95384C26.2002 9.02503 26.2959 9.10067 26.3382 9.12736H26.3448C26.614 9.30534 26.832 9.46552 27.0545 9.62792C27.3103 9.81479 27.5662 9.99722 27.822 10.1774C27.9666 9.77252 28.1201 9.33871 28.267 8.94271C28.5895 8.07286 28.9077 7.29644 29.0834 7.0673L29.7998 6.12848L30.8076 6.73804C31.2102 6.98053 31.6262 7.28532 32.0378 7.58342C32.2514 7.73915 32.4627 7.89488 32.7586 8.09065C32.9277 8.20189 33.099 8.33537 33.2792 8.47775L34.6919 4.57786L35.8621 4.90044C36.5273 5.08287 37.3749 5.73026 38.2403 6.38876L38.7675 6.78698L38.8387 6.54672C38.8943 6.35762 38.9433 6.19744 38.9766 6.10178C39.0323 5.93937 39.059 5.85706 39.0945 5.74805C39.317 5.05617 39.6707 3.95272 39.9911 3.55895L40.7164 2.66463L41.6952 3.26529C42.0979 3.51223 42.5161 3.80589 42.9232 4.09288C43.1947 4.2842 43.4661 4.4733 43.6218 4.57786C43.8354 4.71802 44.0289 4.86485 44.2202 5.00946C44.4205 4.44438 44.6318 3.7881 44.812 3.22747C44.9433 2.82035 45.0612 2.45773 45.1546 2.18854L45.7464 0.5L47.1769 1.56563C47.5996 1.88153 48.0534 2.17964 48.5473 2.50222V2.50667L48.9633 2.78031H48.97L49.2236 2.94494C49.7842 3.30312 50.7675 3.9327 51.1279 4.34872L51.6285 4.92492L50.1357 9.14961C50.5072 9.41435 51.0389 9.74138 51.5484 10.0551C52.2269 10.4733 52.8765 10.8715 53.2903 11.2275L53.8398 11.6947L53.7397 12.4043C53.6507 13.0339 53.0901 14.4911 52.7275 15.4321C52.7275 15.4655 52.5095 16.015 52.465 16.1285L53.2392 16.629C54.3982 17.3765 55.6596 18.1885 55.9043 18.7736C56.1958 19.4744 55.7086 20.6468 55.2036 21.8593C54.8765 22.6491 54.3826 23.0406 54.4583 23.2542C54.5272 23.4522 55.4527 23.7436 56.3382 24.3131C56.9744 24.7225 57.5373 25.0851 57.7976 25.2942L58.3026 25.7036L58.287 26.3487C58.2647 27.1452 57.8509 28.1307 57.4371 29.114H57.4327C57.2658 29.5122 57.0968 29.9105 56.9744 30.2486C57.2614 30.4399 57.6107 30.6513 57.9622 30.8648C58.9099 31.441 59.8732 32.0239 60.3448 32.6646L60.7275 33.1808L60.5606 33.7903C60.4983 34.0261 60.4227 34.2553 60.3448 34.4755C60.2736 34.6668 60.1935 34.8715 60.1157 35.0651L60.0912 35.1274C59.8776 35.6546 58.9677 37.2008 59.03 37.4121C59.1101 37.6769 59.6707 37.6101 60.3893 38.0751C61.2948 38.6579 62.2002 39.2453 62.5451 39.6502L62.9344 40.1107L62.8365 40.7091C62.7564 41.203 62.4917 41.8793 62.2558 42.4822C62.1646 42.7158 62.0779 42.9338 62.0045 43.1452C61.8287 43.6591 61.6685 44.0573 61.5439 44.3665C61.8398 44.5534 62.2247 44.7981 62.7208 45.1496C62.8899 45.2697 63.0945 45.4032 63.3059 45.5411C63.8465 45.8927 64.4227 46.2664 64.7742 46.6357L65.2147 47.0984L65.1235 47.7258C65.0478 48.2553 64.8009 48.9049 64.5651 49.5167C64.4672 49.7747 64.3693 50.0284 64.3137 50.1908C64.2558 50.3598 64.158 50.6112 64.0556 50.876L63.8532 51.4077L64.4605 51.8081C65.2636 52.3398 66.5362 53.1807 67.01 53.619L67.4861 54.0617L67.4216 54.7113C67.3348 55.5678 66.9611 56.4244 66.5873 57.2831C66.4071 57.6924 66.2291 58.1062 66.1046 58.4666C66.2714 58.5823 66.4472 58.698 66.6207 58.8137C66.8432 58.9605 67.0634 59.1073 67.2658 59.2475C67.5261 59.4299 67.7175 59.5545 67.9088 59.6746C68.3404 59.9505 68.7742 60.2286 69.2369 60.609L69.693 60.985L69.7152 61.5745C69.7264 61.8838 69.4171 62.9405 69.0612 63.9972C68.6674 65.1652 68.1869 66.4577 68.0423 66.6958L67.4327 67.6947L66.3715 67.2052C65.7909 66.9383 65.0033 66.3443 64.2202 65.7569L63.7464 65.4032L63.5039 66.104C63.3192 66.6535 62.8365 68.0995 62.5384 68.5311L61.7842 69.6257L60.5584 68.7603C60.1402 68.4644 59.0879 67.6947 58.3159 67.1385C58.2558 67.3298 58.1913 67.53 58.0756 67.8526H58.0779L57.9266 68.2753C57.713 68.8804 57.5061 69.4611 57.2414 70.0439L56.6007 71.4588L52.8231 68.9249C52.5028 69.8215 52.1313 70.965 51.9466 71.5256L51.4661 73.0072L50.1557 72.4666C49.4038 72.1596 48.4605 71.4522 47.6529 70.8471L47.4171 70.6713C47.3415 70.9138 47.2681 71.1474 47.1969 71.3298C47.0745 71.6502 46.9455 71.9994 46.8231 72.3554C46.703 72.7069 46.5962 73.0361 46.5273 73.3009L46.2425 74.3665L45.1524 74.2798C44.6007 74.233 43.0545 73.2074 42 72.4666C41.7709 73.1162 41.515 73.7703 41.3126 74.4266C41.1724 74.8982 41.03 75.3721 40.5206 75.8103L39.5684 76.629L38.7052 75.7058C38.5161 75.5033 37.9555 75.1296 37.5039 74.827L37.0656 74.5334V74.5289C36.9544 74.451 36.832 74.3598 36.6941 74.2553L36.6073 74.1885L36.3204 75.0117C35.9689 75.9972 35.5951 76.965 35.4283 77.2364L34.6808 78.4622L33.3504 77.4744C32.8432 77.0984 31.8843 76.3865 31.1212 75.8637C30.8476 76.6379 30.5184 77.6301 30.3181 78.2308C30.1891 78.6179 30.3115 78.2753 30.1602 78.7136L29.6618 80.1707L28.3048 79.4544C27.5595 79.0628 26.9055 78.5823 26.2514 78.1018L25.7264 77.7191L25.3749 78.7469C25.0456 79.688 24.7075 80.5712 24.545 80.8203L23.802 81.9483L18.3738 78.1463L18.4027 77.4366C18.4294 76.7269 18.7809 75.8815 19.0501 75.2297C19.1212 75.0651 19.1835 74.916 19.2258 74.7981L19.386 74.3354C19.4661 74.0995 19.5462 73.8637 19.6218 73.6702L19.624 73.6724L19.6974 73.4789C19.3971 73.2697 19.01 73.0428 18.6207 72.8137C17.7931 72.3265 16.9611 71.837 16.4205 71.223L16 70.7469L16.1068 70.1285C16.2047 69.5634 16.525 68.7692 16.8565 67.9438C17.0612 67.4366 17.2703 66.9138 17.406 66.5378C16.8676 66.1885 16.178 65.7325 15.6062 65.3409C14.9878 64.916 14.4405 64.52 14.1891 64.2864L13.5528 63.6947L13.8443 62.8804ZM61.3215 44.4199C61.3682 44.5601 61.366 44.4822 61.3882 44.4088C61.3192 44.3487 61.2681 44.2642 61.3215 44.4199Z" fill="#25262B"/>
<path d="M28.8574 69C32.1711 69 34.8574 66.3137 34.8574 63C34.8574 59.6863 32.1711 57 28.8574 57C25.5437 57 22.8574 59.6863 22.8574 63C22.8574 66.3137 25.5437 69 28.8574 69Z" fill="#EB7D3F"/>
</svg>
