<svg width="90" height="101" viewBox="0 0 90 101" fill="none" xmlns="http://www.w3.org/2000/svg">
<path d="M68.1287 59.9208C70.7933 65.7265 73.4467 71.5368 76.0732 77.3582C76.8624 79.1129 77.0828 79.6456 77.2245 80.0194C77.6045 81.0176 77.7507 81.6868 77.3886 82.6761C77.2402 83.0856 77.0154 83.4505 76.741 83.7907L76.7455 83.7951C76.2103 84.4509 75.8393 84.6546 75.113 84.997L73.413 85.7871L57.3171 93.1014H57.3148L42.0082 100.055C41.2729 100.378 40.8772 100.525 40.0294 100.496L40.0272 100.492C39.0602 100.456 38.0641 100.102 37.4457 99.3369C37.2793 99.1354 37.0927 98.8467 36.8453 98.3857C36.6542 98.0343 36.3933 97.5195 35.5771 95.776C34.401 93.2715 33.243 90.7558 32.0849 88.2424C33.0743 88.4147 34.1717 88.3766 35.3612 88.079L35.5298 88.1304C36.9532 91.2146 37.8595 93.1663 38.4553 94.4398C39.1952 96.0177 39.447 96.5145 39.6449 96.8794C39.6899 96.9846 39.8135 97.186 39.8832 97.289L40.1351 97.3315V97.327C40.4139 97.327 40.4612 97.28 40.722 97.1636L51.8529 92.1882C50.6296 90.8028 49.458 89.686 48.1088 88.7773L50.688 88.5579C51.4459 88.6743 52.2104 88.737 52.9682 88.737C53.6023 89.3771 54.2342 90.0732 54.8863 90.8297L56.0309 90.3015L56.0241 90.2903L57.6027 89.5696C59.5703 89.4577 61.4771 88.3319 62.6284 86.754L62.6914 87.2307L72.0863 82.8976C72.6237 82.6537 73.9437 82.1165 74.317 81.6264C74.236 81.2078 74.0809 80.8206 73.9235 80.4267C73.7098 79.8941 73.4108 79.1913 72.9745 78.211C71.8817 75.7624 70.7596 73.3206 69.6398 70.8855C68.1759 71.971 66.9863 72.9938 65.9924 74.1823C66.3859 72.1791 65.7293 72.8148 66.359 70.8004C66.4984 70.355 66.5928 69.9141 66.6468 69.4799C66.8267 69.2651 66.9953 69.0323 67.1527 68.7839C67.517 68.5019 67.8948 68.2198 68.2883 67.9356L67.924 67.1411C68.2411 66.1898 68.421 65.0842 68.421 63.8129L68.1287 59.9208ZM23.1487 68.8219C17.9656 57.5461 12.7892 46.2681 7.62173 34.9878C6.47492 32.4833 5.86328 31.1314 5.44728 30.1892C4.9908 29.1574 4.75244 28.5889 4.63551 28.2644C3.93618 26.3306 4.83114 24.643 6.5806 23.6963C7.05957 23.4367 7.61723 23.1815 13.2659 20.6121L29.1481 13.4053C28.4848 14.5378 28.0575 16.0799 28.1767 18.2151L27.6101 17.5772L22.1211 20.0727C22.7552 24.3431 22.8137 27.5593 21.0755 31.7715C19.4272 35.7711 17.1785 38.0742 13.6999 40.6167L24.417 63.9539C23.4523 65.2767 22.9688 66.9732 23.1487 68.8219ZM19.0989 21.447L14.5926 23.4993C8.97767 26.0531 8.42225 26.306 8.10519 26.4783C7.90056 26.5902 7.57226 26.7603 7.57451 27.0379C8.44924 29.2782 9.51061 31.4873 10.5113 33.674L12.3439 37.6646C15.0873 35.6077 16.83 33.7478 18.141 30.5697C19.4519 27.3892 19.5531 24.7796 19.0989 21.447ZM28.125 51.5255C28.5545 50.5989 29.0942 49.726 29.7193 48.918C29.6968 49.247 29.6901 49.5783 29.6968 49.9095C29.5169 50.1915 29.2179 50.3549 28.125 51.5255Z" fill="#25262B"/>
<path d="M66.8173 63.4928C66.3248 70.384 65.8616 77.2843 65.3107 84.1688C65.1915 85.6057 65.1218 87.0986 64.9239 88.5064C64.78 89.565 64.5844 90.2208 63.7906 90.9169C63.4645 91.2056 63.089 91.4204 62.6865 91.5883V91.5928C61.904 91.9151 61.479 91.9151 60.6762 91.8703L58.8031 91.7539L41.1533 90.5028L24.3693 89.3143C23.5643 89.2427 23.1551 89.189 22.4197 88.7593V88.7525C21.5855 88.2602 20.8839 87.4768 20.7085 86.5077C20.6613 86.2525 20.6366 85.9101 20.6388 85.3864C20.6388 84.988 20.659 84.4128 20.7805 82.4924C20.8974 80.6661 21.1065 77.5663 21.4888 72.0895C22.802 53.3249 24.1332 34.5624 25.4824 15.8022C25.6803 13.056 25.7927 11.5788 25.8804 10.5538C25.9749 9.43022 26.0401 8.81696 26.0941 8.47676C26.4134 6.44676 28.0077 5.38812 30 5.39259C30.5442 5.39259 31.1558 5.43512 37.3531 5.87156L42.0685 6.20728C41.6728 7.16745 41.4232 8.22609 41.1331 9.32055L37.1282 9.03854C30.9692 8.60434 30.3598 8.56181 29.9977 8.56181C29.7661 8.56181 29.3973 8.5551 29.2647 8.79906C28.9521 11.1804 28.8239 13.6312 28.6508 16.0261L28.3405 20.4039C31.7337 19.9048 34.1645 19.1013 36.8427 16.937C38.4302 15.6545 39.55 14.343 40.4495 12.8344C40.436 14.2422 40.7261 15.7418 41.2028 17.1653C40.526 17.9195 39.7524 18.6536 38.8417 19.39C35.4687 22.1161 32.3858 23.065 28.1111 23.6402L25.2868 63.3876C24.8483 64.35 24.439 65.4042 24.122 66.6307C23.9016 67.4901 23.7487 68.7994 23.6947 70.2318C20.9289 73.3966 21.4416 78.0206 24.0928 80.5206C23.9871 82.1276 23.8274 83.7995 23.8229 85.3998C23.8072 85.4826 23.8252 85.7713 23.8342 85.872L24.0343 86.031L24.0365 86.0265C24.2794 86.1585 24.3469 86.1406 24.6302 86.163L36.7954 87.0986C36.3772 85.2454 35.869 83.6652 35.0819 82.1903C36.6448 83.0453 37.8141 84.3568 39.5478 85.0036C39.7524 85.7467 39.9368 86.5256 40.1122 87.3537L41.3714 87.4343L41.3737 87.4209L45.3763 87.6961C45.5382 87.2597 45.6979 86.8367 45.862 86.4271C46.9796 86.7382 48.0725 86.8792 49.1113 86.877C48.9697 87.2127 48.8303 87.5574 48.6953 87.9132L51.6163 88.1035C53.7885 90.035 56.9322 90.7244 60.0668 88.6586C60.647 88.6876 61.2721 88.6787 61.5981 88.531C61.7511 88.0565 61.8005 87.5417 61.859 87.0449C62.8709 85.693 62.8304 84.3501 63.6107 82.7342C64.8699 80.1312 64.5596 77.987 64.5034 76.3689C64.5551 75.8563 64.6586 75.3192 64.8767 74.7261L66.7993 63.6271C66.7993 63.5845 66.806 63.5398 66.8173 63.4928ZM63.984 7.79861C65.3467 7.90604 66.2012 7.98213 66.7453 8.03585C68.0563 8.16566 68.9288 8.34024 69.6956 9.49736C69.2976 9.33398 68.8748 9.19521 68.4296 9.08107C64.3617 8.04032 67.0804 9.38545 63.984 7.79861Z" fill="#25262B"/>
<path d="M64.4091 71.631L66.7837 63.5714C69.8576 53.1416 74.3505 37.911 77.15 28.2578C76.3945 27.855 75.6389 27.4319 74.8856 26.9575C73.7096 26.2166 72.5718 25.3616 71.5082 24.2829C70.4693 23.2309 69.5203 21.9709 68.7266 20.628C67.9103 19.2537 67.2582 17.8012 66.8332 16.4023C66.4082 15.008 66.2013 13.6427 66.1001 12.2953C66.0349 11.3933 66.0169 10.5473 66.0147 9.71921L63.8537 9.08581L60.2244 8.02717C59.6869 8.86647 59.1315 9.71026 58.4704 10.5854L58.4682 10.5921C57.6587 11.6642 56.7435 12.6982 55.6236 13.6472C54.506 14.5961 53.1681 15.4668 51.7379 16.1852C50.3393 16.888 48.8574 17.4386 47.4115 17.7654C44.9178 18.3294 42.6151 18.2443 40.344 18.0608L38.8756 23.0384C35.1293 35.7444 28.995 56.5503 26.9285 63.5736C29.0152 64.6748 31.075 65.8588 32.9301 67.7411C33.9713 68.793 34.918 70.0531 35.714 71.396C36.528 72.7702 37.1801 74.2227 37.6051 75.6216C38.0279 77.016 38.237 78.3812 38.3382 79.7286C38.4191 80.832 38.4281 81.8526 38.4236 82.8553L39.6356 83.2045L39.6379 83.191L40.9489 83.5805L43.4921 84.3079C44.0273 83.4686 44.585 82.6225 45.2461 81.7474C46.0623 80.6664 46.9798 79.6301 48.0929 78.6856C49.2104 77.7366 50.5484 76.866 51.9785 76.1476C53.3772 75.4448 54.8591 74.8964 56.305 74.5674C58.8887 73.9833 61.2633 74.0952 63.6154 74.2921L64.4024 71.6287L64.4091 71.631ZM46.6875 85.2233L56.64 88.0747C57.3304 88.2783 58.0252 88.4798 58.4772 88.5514C58.6773 88.5805 58.846 88.5917 58.9831 88.5872C59.0506 88.585 59.109 88.5783 59.1608 88.5671L59.2237 88.4619C59.3272 88.2739 59.4486 87.9919 59.6532 87.4032C59.8421 86.8638 60.0782 86.1364 60.3953 85.1136L60.4155 85.0509L60.42 85.0308C60.8225 83.708 61.3892 81.8056 62.2167 79.0146L62.2572 78.8803L62.2887 78.7796L62.3089 78.7035L62.3629 78.5245L62.3651 78.5178L62.4168 78.3432L62.4483 78.2358L62.4708 78.1597L62.5248 77.9739L62.5405 77.9247L62.581 77.7859L62.6372 77.5956L62.6394 77.5889L62.6957 77.4032C60.7955 77.2622 58.8977 77.2263 57.0043 77.6538C55.8035 77.9269 54.569 78.3835 53.4064 78.9676C52.2281 79.5607 51.1106 80.2904 50.1594 81.0984C49.2239 81.8929 48.4639 82.7501 47.7915 83.6409C47.416 84.1378 47.0495 84.6727 46.6875 85.2233ZM55.7406 91.123L40.0764 86.5393L38.7632 86.1566V86.1543L22.62 81.4318C22.2962 81.3334 22.0916 81.264 21.9342 81.2013L21.9297 81.1991C21.6756 81.0961 21.5092 80.9999 21.3248 80.8701C21.1562 80.7492 20.983 80.6127 20.8346 80.4761L20.8369 80.4694C20.6862 80.3307 20.5355 80.174 20.4051 80.0106C20.2522 79.8226 20.1308 79.6346 20.0363 79.4578C19.9239 79.2474 19.8384 79.0437 19.7755 78.849L19.7777 78.8445C19.69 78.576 19.6293 78.3208 19.6451 77.9135C19.6541 77.6538 19.7035 77.3136 19.816 76.8033C19.9037 76.4139 20.0476 75.8566 20.576 74.0057C21.0797 72.2442 21.9499 69.2608 23.497 63.9922C28.1315 48.2087 32.9526 31.8545 35.8152 22.1454L39.4535 9.84678C40.236 7.20576 40.661 5.78678 40.9669 4.80423C41.2997 3.72544 41.4953 3.14128 41.6212 2.81899C41.8236 2.2975 41.9698 2.0804 42.1317 1.87001C42.2733 1.68872 42.433 1.5231 42.6129 1.36866C42.7883 1.21647 42.9749 1.0889 43.1795 0.97475C43.3729 0.867319 43.5933 0.76884 43.8294 0.690504C44.0565 0.616645 44.2904 0.560691 44.522 0.529357C44.7671 0.498023 45.0212 0.491308 45.3023 0.511451C45.5474 0.531595 45.8037 0.569644 46.0961 0.63455C46.629 0.750934 47.2181 0.921033 53.1793 2.66232C53.7078 2.81675 51.8796 2.28407 64.7464 6.05312C69.0391 7.31096 73.3116 8.56656 76.1989 9.42377C79.1176 10.2899 80.631 10.7555 81.4315 11.0129C82.4276 11.3352 82.621 11.4515 82.7897 11.559C82.9538 11.6619 83.0887 11.7649 83.2192 11.8857L83.2259 11.888C83.3496 12.0044 83.453 12.1275 83.57 12.2841H83.5745C83.6666 12.4095 83.7723 12.5684 83.8848 12.7989C83.9905 13.016 84.0872 13.2667 84.1501 13.5554C84.2266 13.9023 84.2873 14.2873 83.8803 15.9771C83.5587 17.311 82.8841 19.8066 81.5147 24.5873C78.5779 34.8447 73.2801 52.8126 69.8441 64.4644L65.8213 78.0679C64.8544 81.3378 64.2068 83.5066 63.7233 85.0935L63.4602 85.9529L63.458 85.9596L63.44 86.0178L63.2983 86.4856C62.7384 88.3276 62.5562 88.8737 62.4168 89.2475C62.2369 89.7399 62.093 90.051 61.9603 90.2748C61.7512 90.6239 61.5623 90.8075 61.3442 90.9865L61.342 90.9932C61.1846 91.1208 61.0024 91.2484 60.7933 91.3625C60.6156 91.461 60.4133 91.5528 60.1817 91.6311C59.9838 91.696 59.7724 91.7475 59.57 91.7833L59.5678 91.79C59.3699 91.8258 59.1495 91.8482 58.9426 91.8572C58.7155 91.8683 58.5221 91.8594 58.2546 91.8102H58.2478C58.0814 91.7788 57.8723 91.7251 57.5462 91.6356L56.9099 91.4498C56.5208 91.3491 56.1318 91.2349 55.7406 91.123ZM78.054 25.1356L78.4588 23.7211C79.799 19.0456 80.4646 16.5769 80.7884 15.2295C81.029 14.2425 81.0447 14.2515 81.0425 14.238L81.0357 14.2112L80.4533 14.0232C79.6438 13.7613 78.1462 13.3003 75.2926 12.4542C73.6331 11.9596 71.5194 11.3374 69.2078 10.657C69.219 11.1404 69.237 11.6127 69.2707 12.0715C69.3517 13.1816 69.5271 14.3119 69.8824 15.4847C70.2444 16.6754 70.7886 17.8907 71.4587 19.021C72.1198 20.14 72.9091 21.1875 73.7726 22.0626C74.6293 22.931 75.5827 23.6428 76.5856 24.2739C77.0601 24.5738 77.5525 24.8581 78.054 25.1356ZM57.0358 7.0961L52.2799 5.70844C46.3569 3.97835 45.77 3.80825 45.417 3.73215C45.2663 3.69858 45.1494 3.67844 45.0594 3.67172C45.0099 3.66725 44.9695 3.66948 44.9312 3.67396L44.8278 3.69634L44.7266 3.74111L44.6816 3.7702L44.6502 3.80825L44.5962 3.96044C44.459 4.3096 44.2814 4.8378 44.0048 5.72859C43.699 6.71561 43.274 8.12565 42.5004 10.7353L41.2592 14.9475C43.0806 15.0706 44.8998 15.0885 46.7122 14.679C47.913 14.4059 49.1475 13.9493 50.31 13.3652C51.4861 12.7743 52.6037 12.0424 53.5549 11.2344C54.4858 10.4466 55.2481 9.58492 55.9272 8.68742C56.3027 8.18831 56.6715 7.65116 57.0358 7.0961ZM26.0155 66.6869C24.799 70.8342 24.0749 73.323 23.6319 74.8741C23.153 76.5482 23.0158 77.0853 22.9236 77.4927V77.4972C22.8741 77.7143 22.8472 77.8597 22.8359 77.956L22.8831 78.0343L22.9978 78.1529L23.0001 78.1485C23.0248 78.1686 23.135 78.2716 23.153 78.276C23.2407 78.3096 23.3621 78.3499 23.551 78.4081L35.2373 81.9041C35.2328 81.2349 35.2148 80.5791 35.1676 79.9524C35.0866 78.8423 34.9112 77.712 34.5559 76.5392C34.1939 75.3485 33.6497 74.1332 32.9796 73.0007C32.3185 71.8839 31.5292 70.8364 30.6657 69.9613C29.3076 68.5826 27.6885 67.5911 26.0155 66.6869ZM64.6925 50.0552C63.7773 53.155 61.4184 55.4961 58.3467 56.7719C55.3808 58.0029 51.7402 58.2356 48.1311 57.1815C44.5197 56.1273 41.5852 53.972 39.7571 51.3421C37.8637 48.6161 37.1509 45.3774 38.0638 42.2754C38.979 39.1755 41.3379 36.8344 44.4118 35.5587C47.3778 34.3277 51.0184 34.0927 54.6275 35.1491C58.2366 36.2033 61.1733 38.3586 62.9992 40.9907C64.8926 43.7145 65.6077 46.9531 64.6925 50.0552ZM57.1167 53.8533C59.3204 52.9379 61.0002 51.3018 61.632 49.1599C62.2639 47.0203 61.7377 44.7396 60.3795 42.7834C58.9561 40.7333 56.6265 39.0412 53.728 38.1952C50.8317 37.3492 47.9512 37.5193 45.6418 38.4772C43.4359 39.3926 41.7561 41.0287 41.1265 43.1706C40.4946 45.3103 41.0186 47.5932 42.3768 49.5471C43.8002 51.5973 46.1298 53.2893 49.0283 54.1353C51.9268 54.9814 54.8051 54.8113 57.1167 53.8533Z" fill="#25262B"/>
<path d="M89.322 14.1905C64.1505 35.914 17.592 76.3776 5.8473 86.3374L5.84055 86.3419C4.19903 87.734 3.23436 88.533 3.11068 88.5934V88.5957L3.01849 88.6695C2.21122 89.2447 1.10713 89.2358 0.450518 88.4815C-0.203842 87.7273 -0.145377 86.6597 0.625913 85.9278L0.715861 85.8517L0.724854 85.8472L3.63462 83.336L4.99731 82.1587C33.9735 57.1362 85.2227 12.4202 86.2121 11.9278H86.2099L86.3043 11.8517C86.4438 11.751 86.5944 11.6682 86.7518 11.6055L86.9362 11.4443L86.9992 11.5204C87.6693 11.3347 88.3911 11.4869 88.87 12.0397C89.3603 12.6037 89.4525 13.3423 89.1444 13.9869L89.322 14.1905Z" fill="#EB7D3F"/>
<path d="M0.000804404 14.1905C25.1723 35.914 71.7308 76.3776 83.4755 86.3374L83.48 86.3419C85.1238 87.734 86.0885 88.533 86.2122 88.5934V88.5957L86.3044 88.6695C87.1116 89.2447 88.2157 89.2358 88.8723 88.4815C89.5267 87.7273 89.4682 86.6597 88.6969 85.9278L88.607 85.8517L88.598 85.8472L85.6882 83.336L84.3256 82.1587C55.3493 57.1362 4.10011 12.4202 3.1107 11.9278H3.11295L3.01851 11.8517C2.87909 11.751 2.72843 11.6682 2.57102 11.6055L2.38663 11.4443L2.32142 11.5204C1.65357 11.3347 0.931748 11.4869 0.452784 12.0397C-0.0374241 12.6037 -0.129619 13.3423 0.178447 13.9869L0.000804404 14.1905Z" fill="#EB7D3F"/>
</svg>
