<svg width="113" height="101" viewBox="0 0 113 101" fill="none" xmlns="http://www.w3.org/2000/svg">
<path d="M6.44886 49.1958L8.45936 49.0947C8.4318 49.9648 8.42835 50.8365 8.45075 51.7082C8.49554 52.58 7.37745 53.0766 6.75207 52.4532C6.5574 52.2785 6.45748 52.0216 6.44369 51.7596C6.42474 50.9033 6.42646 50.0504 6.44886 49.1958ZM58.7184 97.9379L58.82 99.9297C58.2377 99.9605 57.6537 99.9828 57.0645 99.9982C56.1876 100.043 55.6863 98.9329 56.3151 98.3095C56.4908 98.116 56.7493 98.0166 57.0128 98.0029C57.5848 97.9892 58.1516 97.967 58.7184 97.9379ZM8.94863 57.5518C8.81081 56.4386 7.08113 56.3821 6.95536 57.6186C6.95192 57.6991 6.95192 57.7573 6.96225 57.8395C7.1621 59.1788 7.41018 60.5284 7.72545 61.8454C8.09585 63.1368 9.94441 62.6624 9.67737 61.383C9.36727 60.143 9.13986 58.8157 8.94863 57.5518ZM11.364 66.9954C10.9195 65.7828 9.02444 66.4388 9.48614 67.6958C9.96163 68.9718 10.4802 70.2203 11.0591 71.4534C11.519 72.4861 13.1988 72.0254 12.9438 70.8026C12.9231 70.7272 12.9076 70.6759 12.8749 70.6056C12.3201 69.4188 11.8223 68.2216 11.364 66.9954ZM15.6916 75.7539C14.9767 74.6698 13.328 75.6494 13.9809 76.8003C14.7062 77.9546 15.4884 79.0833 16.3101 80.1742C17.1302 81.1847 18.6566 80.1023 17.9261 78.9908C17.1371 77.9495 16.3859 76.8585 15.6916 75.7539ZM21.7266 83.4403C21.2821 82.995 20.5603 83.0446 20.1881 83.5584C19.9108 83.9404 19.9504 84.4935 20.2863 84.8292C21.239 85.8089 22.2159 86.7405 23.2409 87.6431C24.2005 88.5046 25.5719 87.0488 24.5675 86.1462C23.582 85.2796 22.6414 84.3805 21.7266 83.4403ZM29.2173 89.7462C28.1474 89.0526 27.019 90.5375 28.051 91.3698C29.1501 92.1422 30.3888 92.8975 31.562 93.5569C32.6956 94.1392 33.669 92.6149 32.5974 91.8477C31.438 91.1609 30.3354 90.5049 29.2173 89.7462ZM37.8399 94.3995C36.7269 93.9165 35.8053 95.5949 37.0388 96.2286C38.2826 96.763 39.6299 97.2391 40.9202 97.6501C42.09 98.0321 42.8084 96.3006 41.6042 95.7765C40.3241 95.3192 39.1061 94.9202 37.8399 94.3995ZM47.2377 97.1911C45.9215 96.9599 45.5873 98.9261 46.8725 99.1538C48.218 99.4022 49.5669 99.6043 50.9262 99.7413C52.2665 99.8629 52.4216 97.8745 51.1261 97.7563C49.8185 97.621 48.5298 97.4309 47.2377 97.1911Z" fill="#EB7D3F"/>
<path d="M34.6528 34.8265L55.3556 45.0117L77.7605 34.6176L57.0732 25.8043L34.6528 34.8265ZM54.6234 48.204L29.1829 35.688L29.1484 33.7304L57.1042 22.3516C82.9616 33.4187 57.4074 22.4766 83.2889 33.5574C83.2683 35.6931 83.2889 33.5574 83.27 35.5715L55.3108 48.5414L54.6234 48.204Z" fill="#25262B"/>
<path d="M32.3268 37.2366L32.1734 64.7658L54.1494 75.0913L53.748 47.7745L32.3268 37.2366ZM28.969 65.7677L29.1482 33.7308L30.9606 33.0098L56.9179 45.7793L57.3848 78.6417C55.8274 79.3627 57.7414 78.4773 55.8274 79.3627C46.9895 75.2112 37.8018 70.9382 28.9639 66.7798L28.969 65.7677Z" fill="#25262B"/>
<path d="M57.3504 75.137L79.7898 64.7481L80.0551 37.0631L56.9473 47.7826L57.3504 75.137ZM82.0587 67.2194L55.8274 79.3622L54.1925 78.0314L53.7188 45.7702L81.6538 32.8105L83.2888 33.5573L82.9701 66.7964L82.0587 67.2194Z" fill="#25262B"/>
<path d="M42.2109 38.9196L68.4456 27.2051L72.3409 28.8715L43.5289 41.8243L42.2109 38.9196Z" fill="#25262B"/>
<path d="M0.417351 48.7383C-0.140834 48.1817 -0.139112 47.2808 0.422519 46.7259C0.982427 46.1727 1.88862 46.1744 2.4468 46.7327L7.36193 51.6481L12.7836 46.9143C13.3796 46.3971 14.2824 46.457 14.8027 47.0479C15.323 47.6387 15.2627 48.5379 14.6683 49.0551L7.22755 55.5512L0.417351 48.7383Z" fill="#EB7D3F"/>
<path d="M99.6346 54.5431C99.0765 55.0997 98.1703 55.1031 97.6104 54.5482C97.0504 53.995 97.047 53.0942 97.6052 52.5358L104.415 45.7246L111.856 52.2207C112.45 52.7379 112.511 53.6353 111.991 54.2262C111.47 54.8188 110.567 54.8787 109.971 54.3615L104.55 49.6277L99.6346 54.5431Z" fill="#EB7D3F"/>
<path d="M106.025 48.3242C106.056 49.0452 106.073 49.7714 106.073 50.4993C106.073 64.3067 100.443 76.8073 91.3413 85.8553C82.238 94.9032 69.6633 100.5 55.7759 100.5L55.4365 100.497V97.3044L55.7759 97.3061C68.7778 97.3061 80.5497 92.0671 89.0706 83.598C97.5898 75.1289 102.86 63.4264 102.86 50.4993C102.86 49.7697 102.843 49.0452 102.81 48.3242H106.025Z" fill="#EB7D3F"/>
<path d="M5.48047 50.4992C5.48047 36.6935 11.1106 24.1928 20.2121 15.1449C29.3136 6.09695 41.8883 0.5 55.7757 0.5V3.69238C42.7738 3.69238 31.0019 8.93139 22.481 17.4022C13.9618 25.8712 8.69175 37.5738 8.69175 50.4992L7.54438 52.2152L5.48047 50.4992Z" fill="#EB7D3F"/>
<path d="M49.8086 1.21735C49.6501 1.23619 49.5036 1.29442 49.3779 1.37663C49.3314 1.36121 49.2814 1.34922 49.2314 1.34066L49.464 3.2417C49.5209 3.21773 49.5726 3.19032 49.6208 3.1595C49.7552 3.20231 49.9016 3.21773 50.0515 3.19889C51.3591 3.04304 52.6581 2.93856 53.976 2.88376C55.3043 2.81697 55.194 0.825152 53.8847 0.890232C52.5134 0.948463 51.1713 1.05979 49.8086 1.21735ZM104.097 43.3075C104.023 43.3178 103.126 43.2921 102.843 42.3827C102.621 41.0862 102.355 39.8068 102.028 38.5326C101.771 37.219 103.646 36.8302 103.978 38.0565C104.318 39.3821 104.592 40.7111 104.824 42.059C104.919 42.744 104.678 43.2201 104.097 43.3075ZM100.235 32.9733C100.646 34.102 102.493 33.6087 102.126 32.3071C101.68 31.0672 101.043 29.7005 100.455 28.5153C99.8282 27.3439 98.1209 28.2105 98.6429 29.3716C99.2131 30.5517 99.7679 31.7488 100.235 32.9733ZM95.74 24.309C96.4704 25.4069 98.1415 24.3022 97.4145 23.2112C96.6789 22.0826 95.8675 20.954 95.0302 19.8972C94.3479 19.005 92.825 19.803 93.3418 20.9557C93.3797 21.0225 93.4056 21.0687 93.4538 21.1321C94.2549 22.158 95.0267 23.2181 95.74 24.309ZM89.5465 16.7408C90.2305 17.4704 91.5846 16.7528 91.1866 15.6619C91.116 15.5129 91.0798 15.4512 90.9627 15.3262C89.9962 14.3688 88.9901 13.4457 87.9478 12.5705C87.0347 11.7776 85.6875 13.074 86.5833 14.0297C87.5808 14.9494 88.5714 15.7766 89.5465 16.7408ZM81.9335 10.5907C83.0275 11.2792 84.1421 9.69498 83.0258 8.91572C81.8749 8.17243 80.7172 7.48223 79.513 6.828C78.3828 6.20288 77.3767 7.93095 78.5568 8.58347C79.7163 9.21372 80.8275 9.87481 81.9335 10.5907ZM73.2179 6.10868C74.4635 6.55055 75.1698 4.77282 73.9501 4.25046C72.639 3.78633 71.4159 3.3222 70.0755 2.91973C68.7541 2.58918 68.2631 4.43542 69.5001 4.83105C70.7629 5.21126 71.9895 5.63257 73.2179 6.10868ZM63.7666 3.50032C64.9502 3.71268 65.4757 1.91269 64.1474 1.54275C62.8157 1.29442 61.3771 1.13686 60.0265 1.02211C58.8929 0.903934 58.4346 2.632 59.7267 2.99166C61.0636 3.19033 62.4022 3.27425 63.7666 3.50032Z" fill="#EB7D3F"/>
</svg>
