<svg width="49" height="18" viewBox="0 0 49 18" fill="none" xmlns="http://www.w3.org/2000/svg">
<path d="M16 5C16.1326 5 16.2598 5.05268 16.3536 5.14645C16.4473 5.24021 16.5 5.36739 16.5 5.5V8.5H19.5C19.6326 8.5 19.7598 8.55268 19.8536 8.64645C19.9473 8.74021 20 8.86739 20 9C20 9.13261 19.9473 9.25979 19.8536 9.35355C19.7598 9.44732 19.6326 9.5 19.5 9.5H16.5V12.5C16.5 12.6326 16.4473 12.7598 16.3536 12.8536C16.2598 12.9473 16.1326 13 16 13C15.8674 13 15.7402 12.9473 15.6464 12.8536C15.5527 12.7598 15.5 12.6326 15.5 12.5V9.5H12.5C12.3674 9.5 12.2402 9.44732 12.1464 9.35355C12.0527 9.25979 12 9.13261 12 9C12 8.86739 12.0527 8.74021 12.1464 8.64645C12.2402 8.55268 12.3674 8.5 12.5 8.5H15.5V5.5C15.5 5.36739 15.5527 5.24021 15.6464 5.14645C15.7402 5.05268 15.8674 5 16 5Z" fill="white"/>
<path d="M36.8888 3.88036C36.8436 3.82616 36.7871 3.78255 36.7232 3.75262C36.6593 3.72269 36.5897 3.70718 36.5191 3.70717H23.4482L22.9374 0.895284C22.9173 0.784434 22.8589 0.68415 22.7724 0.611914C22.686 0.539678 22.5769 0.500072 22.4642 0.5H20.4811C20.3535 0.5 20.2312 0.550685 20.1409 0.640904C20.0507 0.731123 20 0.853487 20 0.981076C20 1.10867 20.0507 1.23103 20.1409 1.32125C20.2312 1.41147 20.3535 1.46215 20.4811 1.46215H22.0625L24.1322 12.8428C24.1971 13.2016 24.3719 13.5314 24.6326 13.7865C24.3176 14.0381 24.0823 14.3755 23.9552 14.758C23.8281 15.1405 23.8146 15.5517 23.9164 15.9417C24.0182 16.3317 24.2308 16.6838 24.5287 16.9554C24.8265 17.2271 25.1966 17.4066 25.5944 17.4722C25.9921 17.5378 26.4003 17.4867 26.7696 17.3252C27.1389 17.1636 27.4535 16.8984 27.6751 16.5618C27.8968 16.2251 28.0162 15.8315 28.0187 15.4284C28.0212 15.0254 27.9069 14.6302 27.6894 14.2908H31.8769C31.6276 14.681 31.5152 15.143 31.5576 15.6041C31.6 16.0651 31.7946 16.4989 32.1109 16.8371C32.4271 17.1753 32.847 17.3986 33.3042 17.4718C33.7614 17.545 34.23 17.4639 34.636 17.2414C35.0421 17.0188 35.3625 16.6674 35.5467 16.2426C35.7309 15.8179 35.7684 15.3439 35.6534 14.8954C35.5383 14.4469 35.2772 14.0495 34.9113 13.7658C34.5453 13.4822 34.0953 13.3284 33.6323 13.3287H25.8675C25.6797 13.3287 25.4978 13.2628 25.3536 13.1425C25.2094 13.0222 25.112 12.8552 25.0784 12.6704L24.7897 11.0837H34.2818C34.695 11.0838 35.0951 10.9389 35.4123 10.6743C35.7296 10.4096 35.9439 10.0421 36.0179 9.63563L36.9922 4.27404C37.0048 4.20485 37.0021 4.13374 36.9842 4.06572C36.9663 3.9977 36.9338 3.93443 36.8888 3.88036ZM27.0567 15.4134C27.0567 15.6354 26.9909 15.8524 26.8675 16.037C26.7441 16.2216 26.5688 16.3655 26.3637 16.4504C26.1585 16.5354 25.9328 16.5576 25.715 16.5143C25.4973 16.471 25.2972 16.3641 25.1402 16.2071C24.9832 16.0501 24.8763 15.8501 24.833 15.6323C24.7896 15.4146 24.8119 15.1889 24.8969 14.9838C24.9818 14.7787 25.1257 14.6034 25.3103 14.48C25.495 14.3567 25.712 14.2908 25.9341 14.2908C26.2318 14.2908 26.5174 14.4091 26.7279 14.6196C26.9384 14.8301 27.0567 15.1156 27.0567 15.4134ZM34.7549 15.4134C34.7549 15.6354 34.6891 15.8524 34.5657 16.037C34.4424 16.2216 34.267 16.3655 34.0619 16.4504C33.8568 16.5354 33.631 16.5576 33.4133 16.5143C33.1955 16.471 32.9954 16.3641 32.8384 16.2071C32.6814 16.0501 32.5745 15.8501 32.5312 15.6323C32.4879 15.4146 32.5101 15.1889 32.5951 14.9838C32.6801 14.7787 32.8239 14.6034 33.0086 14.48C33.1932 14.3567 33.4102 14.2908 33.6323 14.2908C33.93 14.2908 34.2156 14.4091 34.4261 14.6196C34.6367 14.8301 34.7549 15.1156 34.7549 15.4134ZM35.0709 9.46325C35.0373 9.64799 34.9399 9.81508 34.7957 9.93537C34.6515 10.0557 34.4696 10.1215 34.2818 10.1215H24.6149L23.6238 4.66933H35.9426L35.0709 9.46325Z" fill="white"/>
</svg>
