<svg width="11" height="11" viewBox="0 0 11 11" fill="none" xmlns="http://www.w3.org/2000/svg">
<path d="M0 10.6946V10.0834H5.19444V3.32455C4.906 3.272 4.65137 3.14122 4.43056 2.93222C4.20974 2.72322 4.06919 2.45881 4.00889 2.139H1.90422L3.66667 6.54633C3.64304 6.95374 3.4538 7.30044 3.09894 7.58644C2.74409 7.87244 2.32222 8.01544 1.83333 8.01544C1.34444 8.01544 0.922574 7.87244 0.567722 7.58644C0.21287 7.30044 0.0236296 6.95374 0 6.54633L1.76306 2.139H0.611111V1.52789H4.00889C4.07611 1.18729 4.246 0.898442 4.51856 0.661331C4.79111 0.42422 5.11826 0.305664 5.5 0.305664C5.88174 0.305664 6.20889 0.42422 6.48144 0.661331C6.754 0.898442 6.92389 1.18729 6.99111 1.52789H10.3889V2.139H9.23755L11 6.54633C10.9764 6.95374 10.7871 7.30044 10.4323 7.58644C10.0774 7.87244 9.65556 8.01544 9.16667 8.01544C8.67778 8.01544 8.25591 7.87244 7.90106 7.58644C7.5462 7.30044 7.35696 6.95374 7.33333 6.54633L9.09578 2.139H6.99172C6.93102 2.45881 6.79026 2.72322 6.56944 2.93222C6.34863 3.14122 6.094 3.2722 5.80556 3.32516V10.0834H11V10.6946H0ZM7.93833 6.48766H10.395L9.16667 3.41744L7.93833 6.48766ZM0.605 6.48766H3.06167L1.83333 3.41744L0.605 6.48766ZM5.5 2.75011C5.75137 2.75011 5.96709 2.66027 6.14717 2.48061C6.32683 2.30053 6.41667 2.08481 6.41667 1.83344C6.41667 1.58207 6.32683 1.36635 6.14717 1.18628C5.96709 1.00661 5.75137 0.916775 5.5 0.916775C5.24863 0.916775 5.03291 1.00661 4.85283 1.18628C4.67276 1.36594 4.58293 1.58166 4.58333 1.83344C4.58374 2.08522 4.67357 2.30094 4.85283 2.48061C5.03291 2.66027 5.24863 2.75011 5.5 2.75011Z" fill="#25262B"/>
</svg>
