<svg width="11" height="11" viewBox="0 0 11 11" fill="none" xmlns="http://www.w3.org/2000/svg">
<path d="M8 0.798828C6.95 0.798828 6.037 1.27233 5.5 2.06583C4.963 1.27233 4.05 0.798828 3 0.798828C2.20463 0.799754 1.44211 1.11612 0.879703 1.67853C0.317294 2.24094 0.000926306 3.00346 0 3.79883C0 5.25883 0.91 6.77833 2.705 8.31433C3.52753 9.0152 4.41601 9.63476 5.358 10.1643C5.40166 10.1878 5.45044 10.2001 5.5 10.2001C5.54956 10.2001 5.59835 10.1878 5.642 10.1643C6.58399 9.63476 7.47247 9.0152 8.295 8.31433C10.09 6.77833 11 5.25883 11 3.79883C10.9991 3.00346 10.6827 2.24094 10.1203 1.67853C9.55789 1.11612 8.79537 0.799754 8 0.798828ZM5.5 9.55433C4.6795 9.08083 0.6 6.58483 0.6 3.79883C0.600662 3.16251 0.853731 2.55245 1.30367 2.1025C1.75362 1.65256 2.36368 1.39949 3 1.39883C4.014 1.39883 4.8655 1.94033 5.2225 2.81233C5.2451 2.86735 5.28355 2.91441 5.33296 2.94753C5.38237 2.98065 5.44052 2.99834 5.5 2.99834C5.55948 2.99834 5.61763 2.98065 5.66704 2.94753C5.71645 2.91441 5.7549 2.86735 5.7775 2.81233C6.1345 1.94033 6.986 1.39883 8 1.39883C8.63632 1.39949 9.24638 1.65256 9.69633 2.1025C10.1463 2.55245 10.3993 3.16251 10.4 3.79883C10.4 6.58483 6.3205 9.08083 5.5 9.55433Z" fill="#25262B"/>
</svg>
