<svg width="16" height="14" viewBox="0 0 16 14" fill="none" xmlns="http://www.w3.org/2000/svg">
<path d="M15.5 4.72472C15.5 9.41222 8.54978 13.2064 8.25379 13.3631C8.17578 13.4051 8.08858 13.427 8 13.427C7.91142 13.427 7.82422 13.4051 7.7462 13.3631C7.45022 13.2064 0.5 9.41222 0.5 4.72472C0.501241 3.62398 0.939058 2.56868 1.7174 1.79034C2.49574 1.012 3.55104 0.574178 4.65179 0.572937C6.0346 0.572937 7.24531 1.16758 8 2.17271C8.75469 1.16758 9.9654 0.572937 11.3482 0.572937C12.449 0.574178 13.5043 1.012 14.2826 1.79034C15.0609 2.56868 15.4988 3.62398 15.5 4.72472Z" fill="#EB7D3F"/>
</svg>
