<svg width="28" height="28" viewBox="0 0 28 28" fill="none" xmlns="http://www.w3.org/2000/svg">
<path d="M27.8168 5.56765C27.7425 5.47838 27.6494 5.40655 27.5442 5.35726C27.4389 5.30796 27.3242 5.28241 27.208 5.2824H5.67933L4.838 0.651056C4.8049 0.468479 4.70877 0.303305 4.56637 0.184328C4.42396 0.0653515 4.24432 0.000118166 4.05874 0H0.792465C0.58229 0 0.380723 0.0834805 0.232107 0.232077C0.0834915 0.380673 0 0.582213 0 0.79236C0 1.00251 0.0834915 1.20405 0.232107 1.35264C0.380723 1.50124 0.58229 1.58472 0.792465 1.58472H3.39703L6.80595 20.3293C6.91283 20.9204 7.20084 21.4635 7.63011 21.8837C7.11135 22.298 6.72384 22.8538 6.51449 23.4838C6.30514 24.1138 6.28293 24.791 6.45055 25.4333C6.61818 26.0757 6.96845 26.6557 7.45896 27.1031C7.94946 27.5505 8.55917 27.8461 9.21425 27.9542C9.86934 28.0623 10.5417 27.9782 11.15 27.712C11.7582 27.4459 12.2763 27.0092 12.6414 26.4547C13.0066 25.9002 13.2031 25.2518 13.2073 24.588C13.2114 23.9242 13.023 23.2733 12.6649 22.7143H19.562C19.1513 23.3569 18.9663 24.1179 19.036 24.8773C19.1058 25.6366 19.4264 26.3512 19.9473 26.9082C20.4682 27.4652 21.1597 27.833 21.9128 27.9536C22.6658 28.0741 23.4376 27.9406 24.1064 27.574C24.7752 27.2074 25.3029 26.6287 25.6063 25.9291C25.9097 25.2294 25.9715 24.4487 25.782 23.7101C25.5925 22.9714 25.1625 22.3168 24.5597 21.8496C23.957 21.3824 23.2158 21.1291 22.4532 21.1296H9.66411C9.35479 21.1297 9.05527 21.0212 8.81776 20.823C8.58025 20.6249 8.41983 20.3497 8.36447 20.0454L7.88899 17.4319H23.523C24.2035 17.4321 24.8625 17.1935 25.385 16.7576C25.9076 16.3218 26.2606 15.7163 26.3825 15.0469L27.9872 6.21607C28.0079 6.10211 28.0034 5.98498 27.974 5.87296C27.9446 5.76093 27.8909 5.65671 27.8168 5.56765ZM11.6228 24.5632C11.6228 24.9288 11.5144 25.2863 11.3112 25.5903C11.108 25.8944 10.8192 26.1313 10.4813 26.2713C10.1435 26.4112 9.77168 26.4478 9.41299 26.3765C9.05431 26.3052 8.72483 26.1291 8.46623 25.8705C8.20763 25.6119 8.03152 25.2825 7.96018 24.9239C7.88883 24.5652 7.92545 24.1935 8.0654 23.8557C8.20535 23.5178 8.44236 23.2291 8.74644 23.0259C9.05052 22.8228 9.40802 22.7143 9.77373 22.7143C10.2641 22.7143 10.7345 22.9091 11.0812 23.2558C11.428 23.6026 11.6228 24.0728 11.6228 24.5632ZM24.3023 24.5632C24.3023 24.9288 24.1938 25.2863 23.9906 25.5903C23.7874 25.8944 23.4987 26.1313 23.1608 26.2713C22.8229 26.4112 22.4511 26.4478 22.0924 26.3765C21.7337 26.3052 21.4043 26.1291 21.1457 25.8705C20.8871 25.6119 20.711 25.2825 20.6396 24.9239C20.5683 24.5652 20.6049 24.1935 20.7448 23.8557C20.8848 23.5178 21.1218 23.2291 21.4259 23.0259C21.73 22.8228 22.0875 22.7143 22.4532 22.7143C22.9436 22.7143 23.4139 22.9091 23.7607 23.2558C24.1074 23.6026 24.3023 24.0728 24.3023 24.5632ZM24.8226 14.763C24.7673 15.0673 24.6068 15.3425 24.3693 15.5406C24.1318 15.7388 23.8323 15.8473 23.523 15.8472H7.60106L5.96858 6.86712H26.2583L24.8226 14.763Z" fill="#25262B"/>
</svg>
