<svg width="33" height="28" viewBox="0 0 33 28" fill="none" xmlns="http://www.w3.org/2000/svg">
<path d="M24.0649 0C20.9377 0 18.2185 1.41024 16.6191 3.77355C15.0197 1.41024 12.3005 0 9.17328 0C6.80442 0.00275885 4.53337 0.945008 2.85833 2.62005C1.18329 4.29509 0.24104 6.56613 0.238281 8.935C0.238281 13.2834 2.94856 17.8089 8.29467 22.3837C10.7444 24.4711 13.3906 26.3164 16.1962 27.8936C16.3262 27.9634 16.4715 28 16.6191 28C16.7667 28 16.912 27.9634 17.042 27.8936C19.8476 26.3164 22.4938 24.4711 24.9435 22.3837C30.2897 17.8089 32.9999 13.2834 32.9999 8.935C32.9972 6.56613 32.0549 4.29509 30.3799 2.62005C28.7048 0.945008 26.4338 0.00275885 24.0649 0ZM16.6191 26.0768C14.1754 24.6665 2.02528 17.2326 2.02528 8.935C2.02725 7.03983 2.78098 5.22286 4.12106 3.88278C5.46114 2.54269 7.27812 1.78897 9.17328 1.787C12.1933 1.787 14.7294 3.39977 15.7926 5.99687C15.8599 6.16075 15.9745 6.30092 16.1216 6.39956C16.2688 6.4982 16.4419 6.55087 16.6191 6.55087C16.7963 6.55087 16.9694 6.4982 17.1166 6.39956C17.2638 6.30092 17.3783 6.16075 17.4456 5.99687C18.5089 3.39977 21.0449 1.787 24.0649 1.787C25.9601 1.78897 27.7771 2.54269 29.1172 3.88278C30.4572 5.22286 31.211 7.03983 31.2129 8.935C31.2129 17.2326 19.0628 24.6665 16.6191 26.0768Z" fill="#25262B"/>
</svg>
