<svg width="63" height="34" viewBox="0 0 63 34" fill="none" xmlns="http://www.w3.org/2000/svg">
<path d="M26.2305 8.20836C24.94 6.98144 24.1193 5.14962 24.1193 3.10592V1.19598H38.8807V5.99833H31.0131C29.1977 5.99833 27.5306 6.82845 26.2305 8.20836ZM30.0695 10.4849H38.8807V15.2874H29.7955V19.8042H24.1193V15.6351C24.1193 13.0767 24.9521 10.7656 26.2847 9.13442C27.3555 9.98469 28.6614 10.4849 30.0695 10.4849ZM39.5 6.69391V0.5H23.5V3.10592C23.5 5.3441 24.3914 7.3522 25.7965 8.7062C24.3811 10.4601 23.5 12.9179 23.5 15.6351V20.5H30.4148V15.9829H39.5V9.7893H30.0695C28.8322 9.7893 27.6824 9.36292 26.7294 8.63448C27.9066 7.42025 29.3959 6.69391 31.0131 6.69391H39.5Z" fill="#111414"/>
<path d="M17.1837 29.297L18.6047 29.2683H21.8872C22.2873 29.2683 22.5931 29.1615 22.804 28.947C23.0148 28.7335 23.1207 28.4443 23.1207 28.0797C23.1207 27.731 23.0148 27.4653 22.804 27.2829C22.5931 27.1007 22.2873 27.0099 21.8872 27.0099H18.6047L17.1785 26.9923V25.6542H21.8872C22.4234 25.6542 22.8901 25.7353 23.2864 25.8985C23.6838 26.0606 23.993 26.3145 24.2148 26.6589C24.4366 27.0035 24.5475 27.4451 24.5475 27.9841C24.5475 28.3488 24.4902 28.658 24.3756 28.9117C24.2613 29.1656 24.1018 29.371 23.8981 29.5302C23.6945 29.6882 23.4604 29.8088 23.1959 29.8924C22.9308 29.9759 22.6489 30.029 22.3481 30.053L22.1982 29.9573C22.6989 29.9654 23.1097 30.0111 23.4314 30.0947C23.7533 30.1775 23.9944 30.3285 24.1553 30.5461C24.3163 30.7645 24.3967 31.0874 24.3967 31.5155V33.3458H22.9706V31.6224C22.9706 31.3291 22.9235 31.1011 22.8308 30.9388C22.7381 30.7759 22.5721 30.6633 22.3321 30.5999C22.0924 30.5366 21.7474 30.5042 21.2973 30.5042H18.6047V30.5076H17.1785L17.1837 29.297Z" fill="#111414"/>
<path d="M32.9678 31.7765L32.5171 31.9789V25.6541H33.9438V33.3459H32.5171L26.9076 27.2709L27.3576 27.0693V33.3459H25.9315V25.6541H27.3576L32.9678 31.7765Z" fill="#111414"/>
<path d="M35.6917 25.6543H37.1185V33.3459H35.6917V25.6543Z" fill="#111414"/>
<path d="M40.0889 30.8497V29.5895H43.2636C43.6425 29.5895 43.9432 29.4763 44.1649 29.2505C44.386 29.0249 44.4976 28.7093 44.4976 28.3054C44.4976 27.8853 44.386 27.5641 44.1649 27.3424C43.9432 27.1207 43.6425 27.0099 43.2636 27.0099H40.2607V33.3459H38.8337V25.6543H43.1352C43.5215 25.6543 43.8838 25.7055 44.2237 25.8093C44.5636 25.912 44.8599 26.0703 45.1143 26.2848C45.3678 26.4982 45.5665 26.7722 45.7091 27.1047C45.852 27.4372 45.9236 27.8379 45.9236 28.3054C45.9236 28.7647 45.852 29.1574 45.7091 29.4819C45.5665 29.8073 45.3678 30.0706 45.1143 30.273C44.8599 30.4745 44.5636 30.6215 44.2237 30.7123C43.8838 30.8039 43.5215 30.8497 43.1352 30.8497H40.0889Z" fill="#111414"/>
<path d="M51.2868 32.1331C51.8592 32.1331 52.3615 32.0384 52.7941 31.848C53.2266 31.6576 53.5665 31.3686 53.8128 30.9797C54.06 30.5919 54.1832 30.1003 54.1832 29.506C54.1832 28.9117 54.06 28.4202 53.8128 28.0324C53.5665 27.6435 53.2266 27.3529 52.7941 27.1585C52.3615 26.9641 51.8592 26.8668 51.2868 26.8668C50.7223 26.8668 50.2179 26.9641 49.7744 27.1585C49.331 27.3529 48.9846 27.6435 48.7346 28.0324C48.4839 28.4202 48.3593 28.9117 48.3593 29.506C48.3593 30.1003 48.4839 30.5919 48.7346 30.9797C48.9846 31.3686 49.331 31.6576 49.7744 31.848C50.2179 32.0384 50.7223 32.1331 51.2868 32.1331ZM51.2868 33.4999C50.3642 33.4999 49.5766 33.3403 48.9223 33.019C48.268 32.6977 47.7673 32.24 47.4201 31.6456C47.0737 31.0513 46.8998 30.338 46.8998 29.506C46.8998 28.666 47.0737 27.9488 47.4201 27.3545C47.7673 26.7602 48.268 26.3023 48.9223 25.981C49.5766 25.6606 50.3642 25.5 51.2868 25.5C52.2166 25.5 53.007 25.6606 53.6578 25.981C54.3078 26.3023 54.8071 26.7602 55.1541 27.3545C55.5006 27.9488 55.6737 28.666 55.6737 29.506C55.6737 30.338 55.5006 31.0513 55.1541 31.6456C54.8071 32.24 54.3078 32.6977 53.6578 33.019C53.007 33.3403 52.2166 33.4999 51.2868 33.4999Z" fill="#111414"/>
<path d="M58.3876 25.6542V32.0263H63V33.3458H56.9615V25.6542H58.3876Z" fill="#111414"/>
<path d="M6.76828 25.6542V26.9737H1.42628V29.0427H5.80304V30.2786H1.42628V33.3458H0V25.6542H6.76828Z" fill="#111414"/>
<path d="M14.2118 29.9462V25.6542H15.6386V30.1125C15.6386 30.6199 15.572 31.0633 15.4402 31.444C15.3075 31.824 15.1198 32.1451 14.8771 32.4069C14.6337 32.668 14.3496 32.8801 14.0242 33.0431C13.6987 33.2053 13.3444 33.3217 12.9625 33.3931C12.5799 33.4648 12.1777 33.5 11.7553 33.5C11.3191 33.5 10.9045 33.4648 10.5111 33.3931C10.1183 33.3217 9.75879 33.2053 9.43362 33.0431C9.10816 32.8801 8.82763 32.668 8.59138 32.4069C8.35513 32.1451 8.17119 31.824 8.03934 31.444C7.90667 31.0633 7.84067 30.6199 7.84067 30.1125V25.6542H9.26687V29.9462C9.26687 30.5484 9.3741 31.0064 9.58862 31.3187C9.80314 31.632 10.0987 31.8464 10.4741 31.9613C10.8494 32.076 11.2764 32.1331 11.7553 32.1331C12.2206 32.1331 12.6364 32.076 13.0052 31.9613C13.3733 31.8464 13.6663 31.632 13.885 31.3187C14.1024 31.0064 14.2118 30.5484 14.2118 29.9462Z" fill="#111414"/>
</svg>
