<svg width="251" height="30" viewBox="0 0 251 30" fill="none" xmlns="http://www.w3.org/2000/svg">
<path d="M102.069 14.4051L106.688 14.3207H117.359C118.658 14.3207 119.653 14.0075 120.338 13.3784C121.023 12.7522 121.368 11.9041 121.368 10.8345C121.368 9.8125 121.023 9.0328 120.338 8.49765C119.653 7.96318 118.658 7.69697 117.359 7.69697H106.688L102.052 7.64541V3.7207H117.359C119.102 3.7207 120.619 3.95885 121.907 4.43675C123.198 4.91237 124.204 5.65694 124.924 6.66749C125.645 7.67826 126.006 8.97395 126.006 10.5546C126.006 11.624 125.82 12.5309 125.447 13.2746C125.075 14.0189 124.557 14.6225 123.895 15.0883C123.233 15.5528 122.472 15.9059 121.613 16.1507C120.751 16.3961 119.834 16.5515 118.856 16.6222L118.369 16.342C119.997 16.3655 121.332 16.4999 122.378 16.7444C123.424 16.9876 124.209 17.4302 124.731 18.0684C125.254 18.709 125.515 19.6561 125.515 20.9114V26.2799H120.88V21.2244C120.88 20.3651 120.727 19.6962 120.425 19.2206C120.124 18.7418 119.585 18.412 118.805 18.226C118.025 18.0401 116.904 17.9459 115.441 17.9459H106.688V17.9557H102.052L102.069 14.4051Z" fill="#25262B"/>
<path d="M153.377 21.6767L151.912 22.2705V3.7207H156.55V26.2799H151.912L133.678 8.46206L135.14 7.87056V26.2799H130.505V3.7207H135.14L153.377 21.6767Z" fill="#25262B"/>
<path d="M162.231 3.7207H166.869V26.2799H162.231V3.7207Z" fill="#25262B"/>
<path d="M176.524 18.9592V15.2631H186.844C188.076 15.2631 189.053 14.9316 189.774 14.2692C190.493 13.6079 190.856 12.6815 190.856 11.4969C190.856 10.2649 190.493 9.32251 189.774 8.67238C189.053 8.02203 188.076 7.69697 186.844 7.69697H177.083V26.2801H172.444V3.7207H186.428C187.683 3.7207 188.86 3.87217 189.965 4.17556C191.07 4.47713 192.033 4.94157 192.86 5.57003C193.685 6.19689 194.33 7.00008 194.794 7.97549C195.258 8.95068 195.491 10.1257 195.491 11.4969C195.491 12.8441 195.258 13.9966 194.794 14.9476C194.33 15.902 193.685 16.6746 192.86 17.2677C192.033 17.8592 191.07 18.2906 189.965 18.5561C188.86 18.8248 187.683 18.9592 186.428 18.9592H176.524Z" fill="#25262B"/>
<path d="M212.925 22.7231C214.785 22.7231 216.418 22.4452 217.824 21.8868C219.231 21.3284 220.336 20.4802 221.136 19.3406C221.939 18.2028 222.34 16.7606 222.34 15.0176C222.34 13.2746 221.939 11.8333 221.136 10.6953C220.336 9.55516 219.231 8.70293 217.824 8.13218C216.418 7.56258 214.785 7.27767 212.925 7.27767C211.09 7.27767 209.45 7.56258 208.009 8.13218C206.567 8.70293 205.442 9.55516 204.629 10.6953C203.814 11.8333 203.408 13.2746 203.408 15.0176C203.408 16.7606 203.814 18.2028 204.629 19.3406C205.442 20.4802 206.567 21.3284 208.009 21.8868C209.45 22.4452 211.09 22.7231 212.925 22.7231ZM212.925 26.7322C209.926 26.7322 207.366 26.2629 205.239 25.3215C203.112 24.3792 201.484 23.036 200.356 21.293C199.23 19.55 198.664 17.4584 198.664 15.0176C198.664 12.5544 199.23 10.4507 200.356 8.70772C201.484 6.96469 203.112 5.62156 205.239 4.67921C207.366 3.73915 209.926 3.26855 212.925 3.26855C215.947 3.26855 218.517 3.73915 220.633 4.67921C222.745 5.62156 224.368 6.96469 225.496 8.70772C226.622 10.4507 227.186 12.5544 227.186 15.0176C227.186 17.4584 226.622 19.55 225.496 21.293C224.368 23.036 222.745 24.3792 220.633 25.3215C218.517 26.2629 215.947 26.7322 212.925 26.7322Z" fill="#25262B"/>
<path d="M236.007 3.7207V22.4099H251V26.2799H231.371V3.7207H236.007Z" fill="#25262B"/>
<path d="M68.2117 3.7207V7.59066H50.8462V13.6592H65.0739V17.2837H50.8462V26.2799H46.2109V3.7207H68.2117Z" fill="#25262B"/>
<path d="M92.4081 16.3092V3.7207H97.0459V16.7969C97.0459 18.2858 96.8294 19.5863 96.4003 20.7025C95.9699 21.817 95.3599 22.7585 94.5704 23.527C93.7793 24.2923 92.8556 24.9144 91.7981 25.3923C90.7408 25.8679 89.5883 26.2101 88.3474 26.4192C87.1033 26.6293 85.7964 26.7331 84.4227 26.7331C83.0047 26.7331 81.6577 26.6293 80.378 26.4192C79.1017 26.2101 77.9333 25.8679 76.8758 25.3923C75.8175 24.9144 74.9067 24.2923 74.1382 23.527C73.3703 22.7585 72.7724 21.817 72.3436 20.7025C71.9122 19.5863 71.6982 18.2858 71.6982 16.7969V3.7207H76.3335V16.3092C76.3335 18.0757 76.6828 19.4189 77.3797 20.3345C78.0766 21.2536 79.0383 21.8829 80.2582 22.2192C81.4782 22.5566 82.8656 22.7238 84.4227 22.7238C85.9349 22.7238 87.2867 22.5566 88.4859 22.2192C89.6826 21.8829 90.6345 21.2536 91.3457 20.3345C92.0524 19.4189 92.4081 18.0757 92.4081 16.3092Z" fill="#25262B"/>
<path d="M5.41721 11.6995C3.32905 9.93226 2.00211 7.29366 2.00211 4.35076V1.59856H25.8825V8.5159H13.1548C10.2176 8.5159 7.52088 9.7119 5.41721 11.6995ZM11.6283 14.9788H25.8825V21.8955H11.1849V28.4018H2.00211V22.3969C2.00211 18.7112 3.34912 15.3828 5.50503 13.033C7.23688 14.2587 9.35013 14.9788 11.6283 14.9788ZM26.8844 9.51801V0.59668H1V4.35076C1 7.57356 2.44214 10.4658 4.71484 12.4167C2.42526 14.9426 1 18.4836 1 22.3969V29.4037H12.1867V22.8983H26.8844V13.976H11.6283C9.62615 13.976 7.76633 13.3629 6.2245 12.3129C8.12835 10.5641 10.5379 9.51801 13.1548 9.51801H26.8844Z" fill="#25262B" stroke="#25262B"/>
</svg>
