<svg width="15" height="15" viewBox="0 0 15 15" fill="none" xmlns="http://www.w3.org/2000/svg">
<path d="M7.50001 13.75C8.32092 13.7511 9.13396 13.5899 9.89238 13.2757C10.6508 12.9616 11.3397 12.5006 11.9194 11.9194C12.5006 11.3397 12.9616 10.6508 13.2757 9.89238C13.5899 9.13396 13.7511 8.32092 13.75 7.50001C13.7511 6.67909 13.5899 5.86606 13.2757 5.10764C12.9615 4.34922 12.5006 3.66035 11.9194 3.08063C11.3397 2.49939 10.6508 2.03844 9.89238 1.72428C9.13396 1.41012 8.32092 1.24894 7.50001 1.25001C6.67909 1.24896 5.86606 1.41015 5.10764 1.72431C4.34922 2.03847 3.66035 2.4994 3.08063 3.08063C2.4994 3.66035 2.03847 4.34922 1.72431 5.10764C1.41015 5.86606 1.24896 6.67909 1.25001 7.50001C1.24894 8.32092 1.41012 9.13396 1.72428 9.89238C2.03844 10.6508 2.49939 11.3397 3.08063 11.9194C3.66035 12.5006 4.34922 12.9615 5.10764 13.2757C5.86606 13.5899 6.67909 13.7511 7.50001 13.75Z" stroke="black" stroke-width="1.25" stroke-linejoin="round"/>
<path fill-rule="evenodd" clip-rule="evenodd" d="M7.5 3.4375C7.7072 3.4375 7.90591 3.51981 8.05243 3.66632C8.19894 3.81284 8.28125 4.01155 8.28125 4.21875C8.28125 4.42595 8.19894 4.62466 8.05243 4.77118C7.90591 4.91769 7.7072 5 7.5 5C7.2928 5 7.09409 4.91769 6.94757 4.77118C6.80106 4.62466 6.71875 4.42595 6.71875 4.21875C6.71875 4.01155 6.80106 3.81284 6.94757 3.66632C7.09409 3.51981 7.2928 3.4375 7.5 3.4375Z" fill="black"/>
<path d="M7.65625 10.625V6.25H7.03125M6.5625 10.625H8.75" stroke="black" stroke-width="1.25" stroke-linecap="round" stroke-linejoin="round"/>
</svg>
