<svg width="31" height="30" viewBox="0 0 31 30" fill="none" xmlns="http://www.w3.org/2000/svg">
<path fill-rule="evenodd" clip-rule="evenodd" d="M13.6445 4.6875C8.72575 4.6875 4.73828 8.67496 4.73828 13.5938C4.73828 18.5125 8.72575 22.5 13.6445 22.5C18.5633 22.5 22.5508 18.5125 22.5508 13.5938C22.5508 8.67496 18.5633 4.6875 13.6445 4.6875ZM2.86328 13.5938C2.86328 7.63943 7.69021 2.8125 13.6445 2.8125C19.5989 2.8125 24.4258 7.63943 24.4258 13.5938C24.4258 19.5481 19.5989 24.375 13.6445 24.375C7.69021 24.375 2.86328 19.5481 2.86328 13.5938Z" fill="#25262B"/>
<path fill-rule="evenodd" clip-rule="evenodd" d="M19.9426 19.8918C20.3087 19.5257 20.9023 19.5257 21.2684 19.8918L26.9637 25.5871C27.3298 25.9532 27.3298 26.5468 26.9637 26.9129C26.5976 27.279 26.004 27.279 25.6379 26.9129L19.9426 21.2176C19.5764 20.8515 19.5764 20.2579 19.9426 19.8918Z" fill="#25262B"/>
</svg>
