<svg width="31" height="30" viewBox="0 0 31 30" fill="none" xmlns="http://www.w3.org/2000/svg">
<path d="M21.6543 7.46154L22.6511 7.5416L22.6511 7.54152L21.6543 7.46154ZM8.8215 7.46154L7.82459 7.54008L7.82459 7.54016L8.8215 7.46154ZM1.26471 27.5596L2.24614 27.7514L2.24615 27.7514L1.26471 27.5596ZM29.2119 27.5596L30.1933 27.3678L30.1933 27.3678L29.2119 27.5596ZM20.6575 7.38148C20.4073 10.4971 17.8514 12.9231 15.2379 12.9231V14.9231C19.0409 14.9231 22.3297 11.5431 22.6511 7.5416L20.6575 7.38148ZM15.2379 12.9231C12.6233 12.9231 10.064 10.4967 9.8184 7.38291L7.82459 7.54016C8.14044 11.5448 11.4362 14.9231 15.2379 14.9231V12.9231ZM9.81841 7.383C9.57883 4.34205 11.8738 2 15.2379 2V0C10.8731 0 7.48086 3.17718 7.82459 7.54008L9.81841 7.383ZM15.2379 2C18.5956 2 20.8966 4.40298 20.6575 7.38155L22.6511 7.54152C22.9954 3.25087 19.6091 0 15.2379 0V2ZM15.2379 17.2308C8.67224 17.2308 1.60795 20.5876 0.283264 27.3679L2.24615 27.7514C3.30429 22.3354 9.11658 19.2308 15.2379 19.2308V17.2308ZM0.283274 27.3678C0.162822 27.9842 0.283241 28.6359 0.665217 29.151C1.05957 29.6829 1.68338 30 2.40508 30V28C2.34014 28 2.30853 27.9869 2.29782 27.9816C2.28674 27.9762 2.27915 27.9698 2.27179 27.9598C2.25602 27.9386 2.22295 27.8701 2.24614 27.7514L0.283274 27.3678ZM2.40508 30H28.0708V28H2.40508V30ZM28.0708 30C28.7925 30 29.4165 29.6831 29.8111 29.1512C30.1933 28.636 30.3137 27.9842 30.1933 27.3678L28.2304 27.7514C28.2536 27.8701 28.2205 27.9385 28.2048 27.9597C28.1975 27.9696 28.1899 27.976 28.1787 27.9815C28.1678 27.9869 28.136 28 28.0708 28V30ZM30.1933 27.3678C28.8678 20.5877 21.8036 17.2308 15.2379 17.2308V19.2308C21.3592 19.2308 27.1716 22.3354 28.2304 27.7515L30.1933 27.3678Z" fill="#25262B"/>
</svg>
