<svg width="45" height="46" viewBox="0 0 45 46" fill="none" xmlns="http://www.w3.org/2000/svg">
<path d="M23.4165 22.9962L30.3047 16.1012C30.4262 15.9791 30.4944 15.8138 30.4943 15.6415C30.4942 15.4692 30.4258 15.304 30.3041 15.1821C30.0606 14.9397 29.6316 14.9385 29.3856 15.1833L22.4992 22.0782L15.6103 15.1814C15.3656 14.9397 14.9366 14.9409 14.693 15.1827C14.6326 15.2429 14.5847 15.3145 14.5522 15.3934C14.5198 15.4723 14.5033 15.5569 14.5039 15.6423C14.5039 15.816 14.5712 15.9788 14.693 16.0994L21.5812 22.9956L14.6936 29.8924C14.5721 30.0147 14.504 30.1802 14.5044 30.3526C14.5047 30.525 14.5734 30.6903 14.6955 30.8121C14.8136 30.929 14.9806 30.9963 15.1532 30.9963H15.1569C15.3301 30.9957 15.4971 30.9278 15.6128 30.8097L22.4992 23.9147L29.388 30.8115C29.5098 30.9327 29.6726 31 29.8451 31C29.9305 31.0002 30.015 30.9836 30.0939 30.9511C30.1728 30.9185 30.2445 30.8707 30.3048 30.8104C30.3651 30.75 30.413 30.6784 30.4455 30.5995C30.478 30.5206 30.4947 30.436 30.4944 30.3507C30.4944 30.1775 30.4271 30.0141 30.3047 29.8936L23.4165 22.9962Z" fill="black"/>
</svg>
