<svg width="15" height="18" viewBox="0 0 15 18" fill="none" xmlns="http://www.w3.org/2000/svg">
<path d="M7.5 16C6.11553 16 4.76215 15.5895 3.61101 14.8203C2.45987 14.0511 1.56266 12.9579 1.03285 11.6788C0.503033 10.3997 0.36441 8.99224 0.634506 7.63437C0.904603 6.2765 1.57129 5.02922 2.55026 4.05026C3.52922 3.07129 4.7765 2.4046 6.13437 2.13451C7.49224 1.86441 8.8997 2.00303 10.1788 2.53285C11.4579 3.06266 12.5511 3.95987 13.3203 5.11101C14.0895 6.26215 14.5 7.61553 14.5 9C14.5 10.8565 13.7625 12.637 12.4497 13.9497C11.137 15.2625 9.35652 16 7.5 16ZM7.5 3C6.31331 3 5.15328 3.3519 4.16658 4.01118C3.17989 4.67047 2.41085 5.60755 1.95673 6.7039C1.5026 7.80026 1.38378 9.00666 1.61529 10.1705C1.8468 11.3344 2.41825 12.4035 3.25736 13.2426C4.09648 14.0818 5.16557 14.6532 6.32946 14.8847C7.49335 15.1162 8.69975 14.9974 9.7961 14.5433C10.8925 14.0892 11.8295 13.3201 12.4888 12.3334C13.1481 11.3467 13.5 10.1867 13.5 9C13.5 7.4087 12.8679 5.88258 11.7426 4.75736C10.6174 3.63214 9.0913 3 7.5 3Z" fill="#25262B"/>
<path d="M9.795 12L7 9.205V4.5H8V8.79L10.5 11.295L9.795 12Z" fill="#25262B"/>
</svg>
