<svg width="31" height="31" viewBox="0 0 31 31" fill="none" xmlns="http://www.w3.org/2000/svg">
<rect x="1" y="1.30664" width="29" height="29" rx="5.5" stroke="#25262B"/>
<path d="M19.4971 6.80668H16.8291C13.4311 6.77268 12.9971 8.87568 12.9971 11.1517V12.8067H11.4971C11.4293 12.7976 11.3603 12.8043 11.2955 12.8262C11.2307 12.8482 11.1719 12.8847 11.1235 12.9331C11.0751 12.9815 11.0386 13.0403 11.0166 13.1051C10.9947 13.1699 10.988 13.2389 10.9971 13.3067V16.3067C10.988 16.3745 10.9947 16.4434 11.0166 16.5082C11.0386 16.573 11.0751 16.6319 11.1235 16.6803C11.1719 16.7286 11.2307 16.7652 11.2955 16.7871C11.3603 16.809 11.4293 16.8157 11.4971 16.8067H12.9971V24.3067C12.9887 24.3746 12.9961 24.4435 13.0184 24.5082C13.0408 24.5729 13.0777 24.6316 13.1262 24.6798C13.1747 24.728 13.2336 24.7645 13.2984 24.7865C13.3632 24.8085 13.4322 24.8154 13.5001 24.8067H16.5551C16.8501 24.8407 17.0891 24.6017 16.9951 24.3067L16.9971 16.8067H19.4971C19.5649 16.8157 19.6339 16.809 19.6986 16.7871C19.7634 16.7652 19.8223 16.7286 19.8707 16.6803C19.919 16.6319 19.9556 16.573 19.9775 16.5082C19.9994 16.4434 20.0061 16.3745 19.9971 16.3067V13.3067C20.0061 13.2389 19.9994 13.1699 19.9775 13.1051C19.9556 13.0403 19.919 12.9815 19.8707 12.9331C19.8223 12.8847 19.7634 12.8482 19.6986 12.8262C19.6339 12.8043 19.5649 12.7976 19.4971 12.8067H16.9941L16.9971 11.3067C17.0941 10.6677 17.0941 10.7717 17.6871 10.8067H19.4761C19.6151 10.7757 19.7631 10.7927 19.8671 10.6917C19.9711 10.5907 20.0311 10.4527 19.9961 10.3067V7.30668C20.0053 7.23894 19.9988 7.16998 19.977 7.10518C19.9552 7.04038 19.9187 6.98149 19.8704 6.93309C19.8221 6.8847 19.7633 6.84812 19.6985 6.82619C19.6338 6.80426 19.5648 6.79759 19.4971 6.80668ZM18.9621 9.75068L17.7081 9.70268C16.1551 9.70268 16.0251 10.5457 16.0251 11.4087L16.0211 13.3047C16.021 13.3749 16.0347 13.4444 16.0614 13.5093C16.0882 13.5742 16.1275 13.6332 16.1771 13.6829C16.2267 13.7326 16.2856 13.772 16.3505 13.7989C16.4154 13.8258 16.4849 13.8397 16.5551 13.8397H18.9971V15.7717H16.5571C16.4154 15.7717 16.2794 15.8279 16.1791 15.928C16.0788 16.0281 16.0223 16.164 16.0221 16.3057L16.0211 23.8067H13.9971V16.3067C13.9971 16.0117 13.7961 15.7727 13.5001 15.7727H11.9971V13.8407H13.5001C13.5702 13.8408 13.6397 13.8271 13.7046 13.8003C13.7695 13.7735 13.8284 13.7342 13.8781 13.6847C13.9781 13.5837 13.9961 13.4477 13.9961 13.3057V11.1507C13.9961 8.90868 14.4491 7.84068 16.8281 7.84068H18.9611L18.9621 9.75068Z" fill="#25262B"/>
</svg>
