<svg width="251" height="31" viewBox="0 0 251 31" fill="none" xmlns="http://www.w3.org/2000/svg">
<path d="M101.569 14.8084L106.188 14.724H116.859C118.158 14.724 119.153 14.4108 119.838 13.7817C120.523 13.1555 120.868 12.3074 120.868 11.2378C120.868 10.2158 120.523 9.43612 119.838 8.90097C119.153 8.3665 118.158 8.10029 116.859 8.10029H106.188L101.552 8.04873V4.12402H116.859C118.602 4.12402 120.119 4.36217 121.407 4.84007C122.698 5.31569 123.704 6.06026 124.424 7.07081C125.145 8.08158 125.506 9.37727 125.506 10.9579C125.506 12.0273 125.32 12.9343 124.947 13.6779C124.575 14.4222 124.057 15.0258 123.395 15.4917C122.733 15.9561 121.972 16.3092 121.113 16.554C120.251 16.7994 119.334 16.9548 118.356 17.0255L117.869 16.7454C119.497 16.7689 120.832 16.9032 121.878 17.1478C122.924 17.3909 123.709 17.8335 124.231 18.4717C124.754 19.1123 125.015 20.0594 125.015 21.3147V26.6832H120.38V21.6277C120.38 20.7684 120.227 20.0996 119.925 19.6239C119.624 19.1451 119.085 18.8153 118.305 18.6294C117.525 18.4435 116.404 18.3492 114.941 18.3492H106.188V18.359H101.552L101.569 14.8084Z" fill="#25262B"/>
<path d="M152.877 22.0801L151.412 22.6738V4.12402H156.05V26.6832H151.412L133.178 8.86538L134.64 8.27388V26.6832H130.005V4.12402H134.64L152.877 22.0801Z" fill="#25262B"/>
<path d="M161.731 4.12402H166.369V26.6832H161.731V4.12402Z" fill="#25262B"/>
<path d="M176.024 19.3625V15.6664H186.344C187.576 15.6664 188.553 15.3349 189.274 14.6725C189.993 14.0112 190.356 13.0848 190.356 11.9002C190.356 10.6682 189.993 9.72583 189.274 9.0757C188.553 8.42535 187.576 8.10029 186.344 8.10029H176.583V26.6834H171.944V4.12402H185.928C187.183 4.12402 188.36 4.27549 189.465 4.57888C190.57 4.88045 191.533 5.34489 192.36 5.97335C193.185 6.60021 193.83 7.4034 194.294 8.37881C194.758 9.354 194.991 10.529 194.991 11.9002C194.991 13.2475 194.758 14.3999 194.294 15.3509C193.83 16.3053 193.185 17.078 192.36 17.6711C191.533 18.2626 190.57 18.6939 189.465 18.9594C188.36 19.2282 187.183 19.3625 185.928 19.3625H176.024Z" fill="#25262B"/>
<path d="M212.425 23.1264C214.285 23.1264 215.918 22.8485 217.324 22.2901C218.731 21.7317 219.836 20.8836 220.636 19.7439C221.439 18.6061 221.84 17.1639 221.84 15.4209C221.84 13.6779 221.439 12.2367 220.636 11.0986C219.836 9.95848 218.731 9.10625 217.324 8.5355C215.918 7.9659 214.285 7.68099 212.425 7.68099C210.59 7.68099 208.95 7.9659 207.509 8.5355C206.067 9.10625 204.942 9.95848 204.129 11.0986C203.314 12.2367 202.908 13.6779 202.908 15.4209C202.908 17.1639 203.314 18.6061 204.129 19.7439C204.942 20.8836 206.067 21.7317 207.509 22.2901C208.95 22.8485 210.59 23.1264 212.425 23.1264ZM212.425 27.1355C209.426 27.1355 206.866 26.6663 204.739 25.7248C202.612 24.7825 200.984 23.4394 199.856 21.6963C198.73 19.9533 198.164 17.8617 198.164 15.4209C198.164 12.9577 198.73 10.8541 199.856 9.11104C200.984 7.36801 202.612 6.02488 204.739 5.08253C206.866 4.14248 209.426 3.67188 212.425 3.67188C215.447 3.67188 218.017 4.14248 220.133 5.08253C222.245 6.02488 223.868 7.36801 224.996 9.11104C226.122 10.8541 226.686 12.9577 226.686 15.4209C226.686 17.8617 226.122 19.9533 224.996 21.6963C223.868 23.4394 222.245 24.7825 220.133 25.7248C218.017 26.6663 215.447 27.1355 212.425 27.1355Z" fill="#25262B"/>
<path d="M235.507 4.12402V22.8132H250.5V26.6832H230.871V4.12402H235.507Z" fill="#25262B"/>
<path d="M67.7117 4.12402V7.99399H50.3462V14.0625H64.5739V17.687H50.3462V26.6832H45.7109V4.12402H67.7117Z" fill="#25262B"/>
<path d="M91.9081 16.7125V4.12402H96.5459V17.2002C96.5459 18.6891 96.3294 19.9896 95.9003 21.1058C95.4699 22.2203 94.8599 23.1618 94.0704 23.9303C93.2793 24.6956 92.3556 25.3177 91.2981 25.7956C90.2408 26.2712 89.0883 26.6134 87.8474 26.8226C86.6033 27.0326 85.2964 27.1364 83.9227 27.1364C82.5047 27.1364 81.1577 27.0326 79.878 26.8226C78.6017 26.6134 77.4333 26.2712 76.3758 25.7956C75.3175 25.3177 74.4067 24.6956 73.6382 23.9303C72.8703 23.1618 72.2724 22.2203 71.8436 21.1058C71.4122 19.9896 71.1982 18.6891 71.1982 17.2002V4.12402H75.8335V16.7125C75.8335 18.479 76.1828 19.8222 76.8797 20.7378C77.5766 21.6569 78.5383 22.2863 79.7582 22.6225C80.9782 22.9599 82.3656 23.1271 83.9227 23.1271C85.4349 23.1271 86.7867 22.9599 87.9859 22.6225C89.1826 22.2863 90.1345 21.6569 90.8457 20.7378C91.5524 19.8222 91.9081 18.479 91.9081 16.7125Z" fill="#25262B"/>
<path d="M4.91721 12.1028C2.82905 10.3356 1.50211 7.69698 1.50211 4.75408V2.00188H25.3825V8.91922H12.6548C9.71765 8.91922 7.02088 10.1152 4.91721 12.1028ZM11.1283 15.3822H25.3825V22.2988H10.6849V28.8051H1.50211V22.8002C1.50211 19.1146 2.84912 15.7861 5.00503 13.4363C6.73688 14.662 8.85013 15.3822 11.1283 15.3822ZM26.3844 9.92133V1H0.5V4.75408C0.5 7.97688 1.94214 10.8691 4.21484 12.82C1.92526 15.3459 0.5 18.8869 0.5 22.8002V29.807H11.6867V23.3016H26.3844V14.3794H11.1283C9.12615 14.3794 7.26633 13.7662 5.7245 12.7162C7.62835 10.9675 10.0379 9.92133 12.6548 9.92133H26.3844Z" fill="#111414" stroke="#25262B"/>
</svg>
