<svg width="33" height="32" viewBox="0 0 33 32" fill="none" xmlns="http://www.w3.org/2000/svg">
<g clip-path="url(#clip0_3152_2735)">
<path d="M24 7.73521H26.1429M10.0714 1.30664H22.9286C25.2019 1.30664 27.382 2.2097 28.9895 3.81715C30.5969 5.42461 31.5 7.60478 31.5 9.87807V22.7352C31.5 25.0085 30.5969 27.1887 28.9895 28.7961C27.382 30.4036 25.2019 31.3066 22.9286 31.3066H10.0714C7.79814 31.3066 5.61797 30.4036 4.01051 28.7961C2.40306 27.1887 1.5 25.0085 1.5 22.7352V9.87807C1.5 7.60478 2.40306 5.42461 4.01051 3.81715C5.61797 2.2097 7.79814 1.30664 10.0714 1.30664ZM16.5 22.7352C14.795 22.7352 13.1599 22.0579 11.9543 20.8523C10.7487 19.6467 10.0714 18.0116 10.0714 16.3066C10.0714 14.6017 10.7487 12.9665 11.9543 11.761C13.1599 10.5554 14.795 9.87807 16.5 9.87807C18.205 9.87807 19.8401 10.5554 21.0457 11.761C22.2513 12.9665 22.9286 14.6017 22.9286 16.3066C22.9286 18.0116 22.2513 19.6467 21.0457 20.8523C19.8401 22.0579 18.205 22.7352 16.5 22.7352Z" stroke="#25262B"/>
</g>
<defs>
<clipPath id="clip0_3152_2735">
<rect width="32" height="31" fill="white" transform="translate(0.5 0.806641)"/>
</clipPath>
</defs>
</svg>
