<svg width="70" height="42" viewBox="0 0 70 42" fill="none" xmlns="http://www.w3.org/2000/svg">
<g opacity="0.5">
<path d="M55.1989 7.11133H14.8011C12.1495 7.11133 10 9.26086 10 11.9124V30.088C10 32.7396 12.1495 34.8891 14.8011 34.8891H55.1989C57.8505 34.8891 60 32.7396 60 30.088V11.9124C60 9.26086 57.8505 7.11133 55.1989 7.11133Z" fill="#FFB3C7"/>
<path d="M55.3242 23.3758C54.67 23.3758 54.1397 23.9109 54.1397 24.5711C54.1397 25.2311 54.67 25.7663 55.3242 25.7663C55.9783 25.7663 56.5087 25.2311 56.5087 24.5711C56.5087 23.9109 55.9784 23.3758 55.3242 23.3758ZM51.4272 22.4518C51.4272 21.548 50.6617 20.8155 49.7173 20.8155C48.7729 20.8155 48.0073 21.548 48.0073 22.4518C48.0073 23.3555 48.7728 24.0882 49.7173 24.0882C50.6618 24.0882 51.4272 23.3555 51.4272 22.4518ZM51.4335 19.2715H53.3206V25.6318H51.4335V25.2253C50.9004 25.5922 50.2569 25.8079 49.5628 25.8079C47.726 25.8079 46.2369 24.3053 46.2369 22.4517C46.2369 20.5982 47.726 19.0957 49.5628 19.0957C50.2569 19.0957 50.9004 19.3114 51.4335 19.6784V19.2715ZM36.3313 20.1V19.2716H34.3992V25.6318H36.3356V22.6623C36.3356 21.6604 37.4117 21.122 38.1584 21.122C38.1661 21.122 38.1732 21.1227 38.1809 21.1228V19.2721C37.4145 19.2721 36.7096 19.6031 36.3313 20.1ZM31.5184 22.4518C31.5184 21.548 30.7528 20.8156 29.8084 20.8156C28.8641 20.8156 28.0984 21.5481 28.0984 22.4518C28.0984 23.3556 28.864 24.0882 29.8084 24.0882C30.7528 24.0882 31.5184 23.3556 31.5184 22.4518ZM31.5247 19.2716H33.4119V25.6318H31.5247V25.2253C30.9915 25.5922 30.348 25.8079 29.654 25.8079C27.8171 25.8079 26.328 24.3053 26.328 22.4518C26.328 20.5982 27.8171 19.0958 29.654 19.0958C30.348 19.0958 30.9916 19.3114 31.5247 19.6784V19.2716ZM42.8836 19.1005C42.1297 19.1005 41.4162 19.3367 40.9392 19.9882V19.2719H39.0602V25.6318H40.9623V22.2895C40.9623 21.3223 41.6051 20.8487 42.379 20.8487C43.2084 20.8487 43.6852 21.3487 43.6852 22.2764V25.6318H45.5701V21.5873C45.5701 20.1072 44.4039 19.1005 42.8836 19.1005ZM23.5791 25.6318H25.5543V16.4373H23.5791V25.6318ZM14.9023 25.6343H16.9939V16.4356H14.9023V25.6343ZM22.2179 16.4356C22.2179 18.427 21.4488 20.2796 20.0783 21.6566L22.9695 25.6347H20.3861L17.2441 21.3113L18.055 20.6985C19.3998 19.6821 20.1711 18.1283 20.1711 16.4355L22.2179 16.4356Z" fill="#0A0B09"/>
</g>
</svg>
