<svg width="15" height="13" viewBox="0 0 15 13" fill="none" xmlns="http://www.w3.org/2000/svg">
<path d="M12.3125 0.8125C12.8927 0.8125 13.4491 1.04297 13.8593 1.4532C14.2695 1.86344 14.5 2.41984 14.5 3V10C14.5 10.5802 14.2695 11.1366 13.8593 11.5468C13.4491 11.957 12.8927 12.1875 12.3125 12.1875H2.6875C2.10734 12.1875 1.55094 11.957 1.1407 11.5468C0.730468 11.1366 0.5 10.5802 0.5 10V3C0.5 2.41984 0.730468 1.86344 1.1407 1.4532C1.55094 1.04297 2.10734 0.8125 2.6875 0.8125H12.3125ZM13.625 4.27837L7.72225 7.75212C7.66644 7.78489 7.60407 7.80487 7.53961 7.81062C7.47515 7.81637 7.41022 7.80775 7.3495 7.78537L7.27775 7.75212L1.375 4.28012V10C1.375 10.3481 1.51328 10.6819 1.75942 10.9281C2.00556 11.1742 2.3394 11.3125 2.6875 11.3125H12.3125C12.6606 11.3125 12.9944 11.1742 13.2406 10.9281C13.4867 10.6819 13.625 10.3481 13.625 10V4.27837ZM12.3125 1.6875H2.6875C2.3394 1.6875 2.00556 1.82578 1.75942 2.07192C1.51328 2.31806 1.375 2.6519 1.375 3V3.26425L7.5 6.8675L13.625 3.2625V3C13.625 2.6519 13.4867 2.31806 13.2406 2.07192C12.9944 1.82578 12.6606 1.6875 12.3125 1.6875Z" fill="#25262B"/>
</svg>
