<svg width="70" height="50" viewBox="0 0 70 50" fill="none" xmlns="http://www.w3.org/2000/svg">
<g opacity="0.5">
<path d="M48.6507 21.9346H45.9523C45.7935 21.9346 45.6348 22.0938 45.5554 22.2531L44.4443 29.2605C44.4443 29.4198 44.5237 29.4994 44.6824 29.4994H46.111C46.2697 29.4994 46.3491 29.4198 46.3491 29.2605L46.6666 27.2698C46.6666 27.1105 46.8253 26.9512 47.0634 26.9512H47.9364C49.7618 26.9512 50.7935 26.0753 51.0316 24.3235C51.1904 23.6068 51.0316 22.9698 50.7142 22.5716C50.238 22.1735 49.5237 21.9346 48.6507 21.9346ZM48.9681 24.5624C48.8094 25.5179 48.0951 25.5179 47.3808 25.5179H46.9047L47.2221 23.6864C47.2221 23.6068 47.3015 23.5272 47.4602 23.5272H47.6189C48.0951 23.5272 48.5713 23.5272 48.8094 23.8457C48.9681 23.9253 48.9681 24.1642 48.9681 24.5624Z" fill="#139AD6"/>
<path d="M29.2064 21.9346H26.5079C26.3492 21.9346 26.1905 22.0938 26.1111 22.2531L25 29.2605C25 29.4198 25.0794 29.4994 25.2381 29.4994H26.5079C26.6667 29.4994 26.8254 29.3401 26.9048 29.1809L27.2222 27.2698C27.2222 27.1105 27.381 26.9512 27.619 26.9512H28.4921C30.3175 26.9512 31.3492 26.0753 31.5873 24.3235C31.746 23.6068 31.5873 22.9698 31.2698 22.5716C30.7937 22.1735 30.1587 21.9346 29.2064 21.9346ZM29.5238 24.5624C29.3651 25.5179 28.6508 25.5179 27.9365 25.5179H27.5397L27.8571 23.6864C27.8571 23.6068 27.9365 23.5272 28.0952 23.5272H28.254C28.7302 23.5272 29.2064 23.5272 29.4444 23.8457C29.5238 23.9253 29.6032 24.1642 29.5238 24.5624Z" fill="#263B80"/>
<path d="M37.3806 24.4825H36.1107C36.0314 24.4825 35.8726 24.5621 35.8726 24.6418L35.7933 25.0399L35.7139 24.8807C35.3964 24.4825 34.8409 24.3232 34.206 24.3232C32.7774 24.3232 31.5075 25.4381 31.2694 26.951C31.1107 27.7473 31.3488 28.464 31.7456 28.9418C32.1425 29.4195 32.698 29.5788 33.4123 29.5788C34.6028 29.5788 35.2377 28.8621 35.2377 28.8621L35.1583 29.2603C35.1583 29.4195 35.2377 29.4992 35.3964 29.4992H36.5869C36.7456 29.4992 36.9044 29.3399 36.9837 29.1807L37.698 24.7214C37.6187 24.6418 37.4599 24.4825 37.3806 24.4825ZM35.5552 27.0307C35.3964 27.7473 34.8409 28.3047 34.0472 28.3047C33.6504 28.3047 33.3329 28.1455 33.1742 27.9862C33.0155 27.7473 32.9361 27.4288 32.9361 27.0307C33.0155 26.314 33.6504 25.7566 34.3647 25.7566C34.7615 25.7566 34.9996 25.9158 35.2377 26.0751C35.4758 26.314 35.5552 26.7121 35.5552 27.0307Z" fill="#263B80"/>
<path d="M56.7458 24.4825H55.4759C55.3966 24.4825 55.2379 24.5621 55.2379 24.6418L55.1585 25.0399L55.0791 24.8807C54.7617 24.4825 54.2061 24.3232 53.5712 24.3232C52.1426 24.3232 50.8728 25.4381 50.6347 26.951C50.476 27.7473 50.714 28.464 51.1109 28.9418C51.5077 29.4195 52.0633 29.5788 52.7775 29.5788C53.968 29.5788 54.6029 28.8621 54.6029 28.8621L54.5236 29.2603C54.5236 29.4195 54.6029 29.4992 54.7617 29.4992H55.9521C56.1109 29.4992 56.2696 29.3399 56.349 29.1807L57.0633 24.7214C56.9839 24.6418 56.9045 24.4825 56.7458 24.4825ZM54.9204 27.0307C54.7617 27.7473 54.2061 28.3047 53.4125 28.3047C53.0156 28.3047 52.6982 28.1455 52.5394 27.9862C52.3807 27.7473 52.3013 27.4288 52.3013 27.0307C52.3807 26.314 53.0156 25.7566 53.7299 25.7566C54.1267 25.7566 54.3648 25.9158 54.6029 26.0751C54.9204 26.314 54.9998 26.7121 54.9204 27.0307Z" fill="#139AD6"/>
<path d="M44.2859 24.4824H42.9367C42.778 24.4824 42.6986 24.5621 42.6192 24.6417L40.8732 27.3491L40.0796 24.8009C40.0002 24.6417 39.9208 24.5621 39.6827 24.5621H38.4129C38.2542 24.5621 38.1748 24.7213 38.1748 24.8806L39.6034 29.101L38.2542 31.0121C38.1748 31.1713 38.2542 31.4102 38.4129 31.4102H39.6827C39.8415 31.4102 39.9208 31.3306 40.0002 31.251L44.3653 24.9602C44.6034 24.7213 44.4446 24.4824 44.2859 24.4824Z" fill="#263B80"/>
<path d="M58.2537 22.1729L57.1426 29.3396C57.1426 29.4989 57.2219 29.5785 57.3807 29.5785H58.4918C58.6505 29.5785 58.8092 29.4192 58.8886 29.26L59.9997 22.2525C59.9997 22.0933 59.9204 22.0137 59.7616 22.0137H58.4918C58.4124 21.934 58.3331 22.0137 58.2537 22.1729Z" fill="#139AD6"/>
<path d="M19.127 19.5454C18.5714 18.9084 17.5397 18.5898 16.1111 18.5898H12.1429C11.9048 18.5898 11.6667 18.8287 11.5873 19.0676L10 29.4991C10 29.738 10.1587 29.8973 10.3175 29.8973H12.7778L13.4127 25.9954V26.1547C13.4921 25.9158 13.7302 25.6769 13.9683 25.6769H15.1587C17.4603 25.6769 19.2064 24.7213 19.7619 22.0936C19.7619 22.0139 19.7619 21.9343 19.7619 21.8547C19.6825 21.8547 19.6825 21.8547 19.7619 21.8547C19.8413 20.8195 19.6825 20.1824 19.127 19.5454Z" fill="#263B80"/>
<path d="M19.6829 21.8545C19.6829 21.9341 19.6829 22.0138 19.6829 22.0934C19.1273 24.8008 17.3813 25.6767 15.0797 25.6767H13.8892C13.6512 25.6767 13.4131 25.9156 13.3337 26.1545L12.54 31.0119C12.54 31.1712 12.6194 31.3304 12.8575 31.3304H14.921C15.1591 31.3304 15.3972 31.1712 15.3972 30.9323V30.8527L15.794 28.3841V28.2249C15.794 27.986 16.0321 27.8267 16.2702 27.8267H16.5877C18.5718 27.8267 20.1591 27.0304 20.5559 24.6415C20.7146 23.686 20.6353 22.81 20.1591 22.2526C20.0797 22.0934 19.921 21.9341 19.6829 21.8545Z" fill="#139AD6"/>
<path d="M19.1274 21.6158C19.048 21.6158 18.9686 21.5362 18.8893 21.5362C18.8099 21.5362 18.7305 21.5362 18.6512 21.4566C18.3337 21.377 18.0163 21.377 17.6194 21.377H14.5242C14.4448 21.377 14.3655 21.377 14.2861 21.4566C14.1274 21.5362 14.048 21.6955 14.048 21.8547L13.4131 25.9955V26.1547C13.4925 25.9159 13.7305 25.677 13.9686 25.677H15.1591C17.4607 25.677 19.2067 24.7214 19.7623 22.0936C19.7623 22.014 19.7623 21.9344 19.8417 21.8547C19.6829 21.7751 19.6036 21.6955 19.4448 21.6955C19.2067 21.6158 19.2067 21.6158 19.1274 21.6158Z" fill="#232C65"/>
</g>
</svg>
