<svg width="19" height="15" viewBox="0 0 19 15" fill="none" xmlns="http://www.w3.org/2000/svg">
<path d="M16.8889 0.5H2.11111C1.55121 0.5 1.01424 0.726922 0.61833 1.13085C0.22242 1.53477 0 2.08261 0 2.65385V7.5H19V2.65385C19 2.08261 18.7776 1.53477 18.3817 1.13085C17.9858 0.726922 17.4488 0.5 16.8889 0.5Z" fill="#EEEEEE"/>
<path d="M0 12.3462C0 12.9174 0.22242 13.4652 0.61833 13.8692C1.01424 14.2731 1.55121 14.5 2.11111 14.5H16.8889C17.4488 14.5 17.9858 14.2731 18.3817 13.8692C18.7776 13.4652 19 12.9174 19 12.3462V7.5H0V12.3462Z" fill="#DC143C"/>
</svg>
