<svg width="70" height="40" viewBox="0 0 70 40" fill="none" xmlns="http://www.w3.org/2000/svg">
<g opacity="0.5">
<path fill-rule="evenodd" clip-rule="evenodd" d="M20.4743 21.2797L24.6016 21.2744L24.4512 22.208L20.9994 25.4836L23.897 25.4784L23.7281 26.4854L19.4609 26.488L19.6404 25.4469L22.9496 22.2972H20.308L20.4743 21.2797Z" fill="#D13239"/>
<path fill-rule="evenodd" clip-rule="evenodd" d="M15.9587 19.6816C15.869 19.5872 15.7397 19.5138 15.5972 19.4561C15.4468 19.3984 15.2805 19.3564 15.1169 19.3276C14.9111 19.2909 14.7105 19.2751 14.568 19.2699C14.4361 19.2646 14.3516 19.2646 14.3516 19.2646H12.5466H11.2034L10 26.4872H11.1242L11.5675 23.8122L13.7473 23.8226C13.7473 23.8226 14.597 23.8567 15.1987 23.5394C15.8004 23.2221 15.9614 22.5009 15.9614 22.5009C15.9614 22.5009 16.0273 22.2334 16.0828 21.9082C16.1435 21.5489 16.2042 21.1188 16.2358 20.8906C16.249 20.791 16.2569 20.728 16.2569 20.728C16.2569 20.728 16.2728 20.6546 16.2728 20.5392C16.2754 20.3792 16.2517 20.138 16.125 19.9072C16.0801 19.8259 16.0273 19.7524 15.9587 19.6816ZM15.0932 20.9562C15.0932 20.9693 14.9929 21.5489 14.8609 22.236C14.8108 22.4983 14.6076 22.6399 14.3754 22.6897C13.9901 22.771 13.5758 22.7553 13.5758 22.7553L11.7549 22.75L12.156 20.3504L13.8054 20.3556C13.8054 20.3556 13.9162 20.353 14.0719 20.3556C14.2487 20.3583 14.4836 20.3661 14.6762 20.3923C14.8425 20.4133 14.9744 20.4474 15.0166 20.4999C15.072 20.5681 15.0932 20.6572 15.1011 20.7359C15.1116 20.8513 15.0932 20.9483 15.0932 20.9562Z" fill="#D13239"/>
<path fill-rule="evenodd" clip-rule="evenodd" d="M30.1983 19.2646H31.2803L30.069 26.4872L28.9844 26.4845L30.1983 19.2646Z" fill="#D13239"/>
<path fill-rule="evenodd" clip-rule="evenodd" d="M35.9727 21.2794L37.0098 21.2767L37.3766 24.9431L38.9731 21.2715L40.253 21.2741L40.6304 24.9562L42.2243 21.2767H43.301L41.0157 26.4825H39.7384L39.369 22.8371L37.7566 26.4825L36.5004 26.4877L35.9727 21.2794Z" fill="#D13239"/>
<path d="M28.2011 21.3215C27.8977 21.2245 27.3725 21.2035 26.9265 21.2088C26.4964 21.214 26.2985 21.235 26.1375 21.2691C26.1375 21.2691 25.3722 21.3792 24.9368 21.9142C24.5013 22.4492 24.372 23.6189 24.372 23.6189C24.372 23.6189 24.1134 24.9118 24.1899 25.3445C24.2665 25.7746 24.4011 26.1759 24.8919 26.3621C25.3827 26.5509 25.7997 26.5404 25.7997 26.5404C25.7997 26.5404 26.6758 26.6086 27.3356 26.4539C27.9953 26.2991 28.3436 25.8376 28.3436 25.8376C28.3436 25.8376 28.4993 25.6382 28.6102 25.4022C28.721 25.1662 28.7553 25.001 28.7606 24.98L28.8292 24.6994L27.7076 24.702C27.7076 24.702 27.647 25.4389 27.04 25.5071C26.4357 25.5753 26.1111 25.5491 25.9923 25.5438C25.8762 25.5386 25.227 25.5674 25.2798 25.0272C25.2798 25.0193 25.2798 25.0088 25.2825 24.9931C25.3115 24.3794 25.3801 24.2194 25.3801 24.2194L28.9031 24.2089L29.0535 23.3435C29.2277 22.3627 29.1037 21.6152 28.2011 21.3215ZM27.9663 23.2202L25.5516 23.2176L25.6466 22.8374C25.6466 22.8374 25.7311 22.5384 25.8973 22.4125C26.0662 22.2866 26.28 22.263 26.4805 22.2447C26.6811 22.2263 27.2168 22.187 27.6522 22.2761C27.7974 22.305 27.9346 22.3863 27.9715 22.5069C28.056 22.7901 27.9663 23.2202 27.9663 23.2202Z" fill="#D13239"/>
<path d="M25.2876 25.004C25.2876 25.0118 25.2849 25.0197 25.2849 25.0276C25.2823 25.0695 25.2876 25.0014 25.2876 25.004Z" fill="#D13239"/>
<path d="M31.9323 25.0059C31.9323 25.0138 31.9297 25.0217 31.9297 25.0295C31.9297 25.0715 31.9323 25.0033 31.9323 25.0059Z" fill="#D13239"/>
<path d="M34.8486 21.3235C34.5451 21.2264 34.02 21.2055 33.574 21.2107C33.1438 21.2159 32.9459 21.2369 32.7849 21.271C32.7849 21.271 32.0196 21.3812 31.5842 21.9162C31.1488 22.4512 31.0195 23.6208 31.0195 23.6208C31.0195 23.6208 30.7609 24.9137 30.8374 25.3465C30.9139 25.7766 31.0485 26.1778 31.5394 26.364C32.0302 26.5528 32.4472 26.5423 32.4472 26.5423C32.4472 26.5423 33.3233 26.6105 33.983 26.4558C34.6428 26.3011 34.9911 25.8395 34.9911 25.8395C34.9911 25.8395 35.1468 25.6402 35.2576 25.4042C35.3685 25.1681 35.4028 25.0029 35.408 24.9819L35.4767 24.7013L34.3551 24.7039C34.3551 24.7039 34.2944 25.4409 33.6875 25.5091C33.0831 25.5773 32.7586 25.551 32.6398 25.5484C32.5237 25.5432 31.8745 25.5694 31.9273 25.0318C31.9273 25.0239 31.9273 25.0134 31.9299 24.9977C31.959 24.384 32.0276 24.224 32.0276 24.224L35.5506 24.2135L35.701 23.3481C35.8751 22.3646 35.7511 21.6146 34.8486 21.3235ZM34.6032 23.2196L32.1885 23.217L32.2835 22.8367C32.2835 22.8367 32.368 22.5377 32.5342 22.4118C32.7005 22.2859 32.9169 22.2623 33.1174 22.244C33.318 22.2256 33.8537 22.1863 34.2891 22.2755C34.4343 22.3043 34.5715 22.3856 34.6085 22.5062C34.6929 22.7869 34.6032 23.2196 34.6032 23.2196Z" fill="#D13239"/>
<path fill-rule="evenodd" clip-rule="evenodd" d="M44.5467 21.279L45.2407 25.0869L47.2015 21.2764L48.3046 21.2869L45.4783 26.7287C45.4783 26.7287 44.9663 27.7147 44.6496 27.9639C44.333 28.213 44.1377 28.3258 43.8791 28.352C43.6204 28.3782 43.5149 28.3966 43.2668 28.352L43.0029 28.3048L43.1665 27.3318C43.1665 27.3318 43.6046 27.4131 43.8632 27.3109C44.1245 27.2086 44.333 26.768 44.333 26.768L44.4649 26.5477L43.4436 21.2764L44.5467 21.279Z" fill="#D13239"/>
<path fill-rule="evenodd" clip-rule="evenodd" d="M48.7054 21.7954L49.8427 21.798L49.9113 21.3601C49.9113 21.3601 50.0327 20.5681 50.3045 20.4159C50.3916 20.3661 50.5315 20.3215 50.6925 20.2927C50.9907 20.2402 51.368 20.235 51.6768 20.2455C52.1492 20.2612 52.3286 20.2665 52.8089 20.3215C53.2892 20.3766 53.1678 20.8382 53.1678 20.8382L53.0728 21.5279C53.0728 21.5279 53.0306 21.8374 52.9197 22.0288C52.8221 22.1993 52.5529 22.3147 52.3972 22.3645C52.0225 22.4851 50.74 22.8103 50.74 22.8103L49.7319 23.0988C49.7319 23.0988 49.1117 23.2771 48.766 23.6574C48.4177 24.0403 48.2805 24.473 48.233 24.6986C48.1855 24.9241 47.9189 26.4845 47.9189 26.4845L53.3604 26.4871L53.5425 25.4067L49.2384 25.4119L49.3149 24.9713C49.3149 24.9713 49.3651 24.5176 49.5498 24.3681C49.6079 24.3209 49.6369 24.258 49.98 24.1373C50.1858 24.0639 50.8878 23.8777 50.8878 23.8777L52.5107 23.4371C52.5107 23.4371 53.3974 23.2116 53.7457 22.729C54.0941 22.2491 54.2287 21.3286 54.2287 21.3286C54.2287 21.3286 54.3237 20.4343 54.2498 20.1537C54.1785 19.8731 53.912 19.5374 53.5874 19.3931C53.2628 19.2489 52.925 19.165 51.946 19.1781C50.9669 19.1912 50.4814 19.2358 49.9852 19.4194C49.4891 19.6003 49.2015 19.9308 49.0194 20.3976C48.8215 20.8408 48.7054 21.7954 48.7054 21.7954Z" fill="#B3B2B1"/>
<path fill-rule="evenodd" clip-rule="evenodd" d="M58.9498 23.804L59.7125 19.2617H58.3613L54.1548 23.7515L53.9648 24.8897H57.6435L57.3744 26.4842L58.5038 26.4868L58.7704 24.8897L59.8127 24.8923L60.0001 23.804H58.9498ZM57.8256 23.8066L55.4479 23.804L58.3428 20.7382L57.8256 23.8066Z" fill="#B3B2B1"/>
<path fill-rule="evenodd" clip-rule="evenodd" d="M18.3447 19.8603H21.8097C21.8097 19.8603 22.5855 19.2362 23.137 18.8349C23.6886 18.4337 24.6914 17.8016 24.6914 17.8016L22.7333 16.8916C22.7333 16.8916 21.0787 17.9092 20.3767 18.3891C19.6959 18.8323 18.3447 19.8603 18.3447 19.8603Z" fill="#B3B2B1"/>
<path fill-rule="evenodd" clip-rule="evenodd" d="M25.7917 17.1588L24.1846 16.0835C24.1846 16.0835 25.6386 15.2627 27.573 14.4969C29.5047 13.7311 30.5365 13.4111 30.5365 13.4111L30.8637 14.9348C30.8637 14.9348 29.0033 15.5538 27.9371 16.0547C26.8341 16.5215 25.7917 17.1588 25.7917 17.1588Z" fill="#B3B2B1"/>
<path fill-rule="evenodd" clip-rule="evenodd" d="M32.0512 14.6028L31.7715 13.0424C31.7715 13.0424 33.756 12.5179 35.5716 12.1822C37.3898 11.8465 39.7991 11.6865 39.7991 11.6865L39.0022 14.0966C39.0022 14.0966 36.8831 13.8082 34.8934 14.0783C33.3443 14.2619 32.0512 14.6028 32.0512 14.6028Z" fill="#B3B2B1"/>
<path fill-rule="evenodd" clip-rule="evenodd" d="M40.2637 14.3007L41.6043 11.6231C41.6043 11.6231 44.5414 11.5654 47.0748 11.9562C49.6082 12.3443 51.9252 12.9423 51.875 12.9685L45.4518 16.307C45.4518 16.307 43.9503 15.3629 42.0872 14.7833C41.0316 14.4738 40.2637 14.3007 40.2637 14.3007Z" fill="#B3B2B1"/>
<path fill-rule="evenodd" clip-rule="evenodd" d="M46.6025 17.0333L48.0144 18.0981H59.6178C59.6178 18.0981 59.594 17.7257 59.2853 17.1959C59.0926 16.8655 58.7417 16.5141 58.3749 16.1495C58.2403 16.0184 57.7072 15.604 57.3061 15.3444C56.2822 14.6835 55.7095 14.4291 54.646 13.9492L46.6025 17.0333Z" fill="#B3B2B1"/>
<path d="M19.0961 21.2744C18.6606 21.2744 18.249 21.4449 17.898 21.6363L17.9587 21.2744H16.8055L15.8818 26.4592H17.0377L17.5496 23.5875C17.6552 23.0053 18.0933 22.2841 18.9483 22.2841L19.5447 22.2815L19.7241 21.2744H19.0961Z" fill="#D13239"/>
</g>
</svg>
