<svg width="18" height="17" viewBox="0 0 18 17" fill="none" xmlns="http://www.w3.org/2000/svg">
<path d="M6.47 1.5H4.25C3.71957 1.5 3.21086 1.71071 2.83579 2.08579C2.46071 2.46086 2.25 2.96957 2.25 3.5V5.5C2.25 11.023 6.727 15.5 12.25 15.5H14.25C14.7804 15.5 15.2891 15.2893 15.6642 14.9142C16.0393 14.5391 16.25 14.0304 16.25 13.5V12.118C16.2499 11.9323 16.1981 11.7504 16.1004 11.5925C16.0028 11.4346 15.8631 11.307 15.697 11.224L13.281 10.016C13.1529 9.9519 13.0124 9.91609 12.8693 9.91099C12.7261 9.90589 12.5835 9.93161 12.4511 9.98642C12.3187 10.0412 12.1997 10.1238 12.102 10.2287C12.0043 10.3335 11.9303 10.4581 11.885 10.594L11.588 11.487C11.4948 11.7668 11.3026 12.0029 11.0475 12.1509C10.7925 12.299 10.4922 12.3488 10.203 12.291C9.03243 12.0567 7.95739 11.4812 7.11334 10.637C6.2693 9.79278 5.69402 8.71762 5.46 7.547C5.40222 7.25782 5.45204 6.9575 5.60009 6.70246C5.74814 6.44742 5.98423 6.25523 6.264 6.162L7.372 5.792C7.61077 5.71236 7.81071 5.5456 7.93194 5.32502C8.05317 5.10444 8.08676 4.84626 8.026 4.602L7.44 2.257C7.38583 2.04075 7.26095 1.84881 7.08521 1.71166C6.90946 1.5745 6.69293 1.50001 6.47 1.5Z" stroke="#25262B"/>
</svg>
