<svg width="31" height="31" viewBox="0 0 31 31" fill="none" xmlns="http://www.w3.org/2000/svg">
<rect x="1" y="1.30664" width="29" height="29" rx="5.5" stroke="#25262B"/>
<path d="M22.625 12.0957C21.6412 12.0945 20.698 11.7032 20.0023 11.0075C19.3066 10.3118 18.9152 9.36861 18.9141 8.38477C18.9141 8.26666 18.8671 8.15339 18.7836 8.06988C18.7001 7.98637 18.5869 7.93945 18.4688 7.93945H15.5C15.3819 7.93945 15.2686 7.98637 15.1851 8.06988C15.1016 8.15339 15.0547 8.26666 15.0547 8.38477V18.1816C15.0545 18.4738 14.9759 18.7606 14.8272 19.012C14.6784 19.2635 14.4649 19.4704 14.209 19.6112C13.953 19.7521 13.6639 19.8216 13.3719 19.8127C13.0799 19.8037 12.7956 19.7166 12.5487 19.5604C12.3019 19.4041 12.1014 19.1845 11.9683 18.9245C11.8352 18.6644 11.7744 18.3733 11.7921 18.0817C11.8098 17.7901 11.9054 17.5086 12.0689 17.2665C12.2325 17.0244 12.458 16.8307 12.722 16.7054C12.7981 16.6693 12.8625 16.6124 12.9075 16.5412C12.9526 16.47 12.9765 16.3874 12.9766 16.3032V13.1348C12.9765 13.07 12.9623 13.0061 12.935 12.9474C12.9077 12.8887 12.868 12.8367 12.8185 12.795C12.7691 12.7532 12.7111 12.7227 12.6487 12.7057C12.5862 12.6886 12.5208 12.6853 12.457 12.6961C9.87422 13.1555 7.92969 15.5135 7.92969 18.1816C7.92969 19.6383 8.50833 21.0352 9.53831 22.0652C10.5683 23.0952 11.9653 23.6738 13.4219 23.6738C14.8785 23.6738 16.2755 23.0952 17.3054 22.0652C18.3354 21.0352 18.9141 19.6383 18.9141 18.1816V14.985C20.0464 15.6238 21.325 15.958 22.625 15.9551C22.7431 15.9551 22.8564 15.9082 22.9399 15.8246C23.0234 15.7411 23.0703 15.6279 23.0703 15.5098V12.541C23.0703 12.4229 23.0234 12.3096 22.9399 12.2261C22.8564 12.1426 22.7431 12.0957 22.625 12.0957ZM22.1797 15.0496C20.9356 14.9702 19.7392 14.5408 18.7285 13.8109C18.6619 13.7631 18.5834 13.7345 18.5016 13.7285C18.4198 13.7224 18.3379 13.7391 18.2649 13.7767C18.192 13.8142 18.1309 13.8711 18.0883 13.9412C18.0456 14.0113 18.0232 14.0918 18.0234 14.1738V18.1816C18.0234 19.4021 17.5386 20.5725 16.6757 21.4354C15.8127 22.2984 14.6423 22.7832 13.4219 22.7832C12.2015 22.7832 11.031 22.2984 10.1681 21.4354C9.30512 20.5725 8.82031 19.4021 8.82031 18.1816C8.82031 16.1243 10.1911 14.2866 12.0859 13.7003V16.0404C11.7133 16.273 11.4078 16.5988 11.1997 16.9856C10.9915 17.3725 10.888 17.8069 10.8993 18.246C10.9106 18.6852 11.0363 19.1137 11.264 19.4894C11.4917 19.865 11.8135 20.1747 12.1976 20.3878C12.5818 20.6009 13.0148 20.7101 13.4541 20.7045C13.8933 20.6989 14.3235 20.5787 14.702 20.3558C15.0806 20.133 15.3944 19.8152 15.6124 19.4339C15.8305 19.0526 15.9452 18.6209 15.9453 18.1816V8.83008H18.045C18.1494 9.89121 18.6186 10.8833 19.3725 11.6372C20.1265 12.3912 21.1186 12.8604 22.1797 12.9648V15.0496Z" fill="#25262B"/>
</svg>
